SplineFontDB: 3.2
FontName: Controllercons-Solid
FullName: Controllercons Solid
FamilyName: Controllercons
Weight: Solid
Copyright: Copyright (c) 2020, Kieran McClung
Version: 2.0.0
ItalicAngle: 0
UnderlinePosition: 48
UnderlineWidth: 31
Ascent: 800
Descent: 200
InvalidEm: 0
sfntRevision: 0x00020000
LayerCount: 2
Layer: 0 0 "Sfondo" 1
Layer: 1 0 "Fore" 0
XUID: [1021 849 -1117100050 6050]
StyleMap: 0x0000
FSType: 0
OS2Version: 4
OS2_WeightWidthSlopeOnly: 0
OS2_UseTypoMetrics: 1
CreationTime: 1589192850
ModificationTime: 1620033350
PfmFamily: 17
TTFWeight: 400
TTFWidth: 5
LineGap: 90
VLineGap: 0
Panose: 2 0 5 9 0 0 0 0 0 0
OS2TypoAscent: 800
OS2TypoAOffset: 0
OS2TypoDescent: -200
OS2TypoDOffset: 0
OS2TypoLinegap: 90
OS2WinAscent: 800
OS2WinAOffset: 0
OS2WinDescent: 200
OS2WinDOffset: 0
HheadAscent: 800
HheadAOffset: 0
HheadDescent: -200
HheadDOffset: 0
OS2SubXSize: 650
OS2SubYSize: 700
OS2SubXOff: 0
OS2SubYOff: 140
OS2SupXSize: 650
OS2SupYSize: 700
OS2SupXOff: 0
OS2SupYOff: 480
OS2StrikeYSize: 49
OS2StrikeYPos: 258
OS2Vendor: 'PfEd'
OS2CodePages: 00000001.00000000
OS2UnicodeRanges: 00000000.02000000.00000000.00000000
MarkAttachClasses: 1
DEI: 91125
LangName: 1033 "" "" "" "FontForge 2.0 : Controllercons Solid : 29-5-2020"
Encoding: UnicodeFull
UnicodeInterp: none
NameList: AGL For New Fonts
DisplaySize: -48
AntiAlias: 1
FitToEm: 0
WinInfo: 835461 27 11
BeginPrivate: 5
BlueShift 2 20
StdHW 4 [17]
StdVW 4 [31]
StemSnapH 32 [17 31 44 48 53 57 62 70 82 100]
StemSnapV 32 [16 31 48 57 62 73 77 83 99 117]
EndPrivate
BeginChars: 1114113 34

StartChar: .notdef
Encoding: 1114112 -1 0
Width: 1000
Flags: MW
HStem: 0 50<100 900 100 950> 483 50<100 900 100 100>
VStem: 50 50<50 50 50 483> 900 50<50 483 483 483>
LayerCount: 2
Fore
SplineSet
50 0 m 1
 50 533 l 1
 950 533 l 1
 950 0 l 1
 50 0 l 1
100 50 m 1
 900 50 l 1
 900 483 l 1
 100 483 l 1
 100 50 l 1
EndSplineSet
Validated: 1
EndChar

StartChar: Atari_2600
Encoding: 835584 835584 1
Width: 1000
Flags: MW
HStem: -200 70.2129 -106.383 17.0176 -93.499 16.4062 -4.25586 48.9375<445.175 559.081 445.175 572.585> 146.32 213.742 213.901 36.8037 287.513 36.377 457.447 48.9355 538.298 182.979 567.222 15.8018 579.031 16.3984 586.973 16.7969 636.135 163.865 754.919 45.0811
VStem: 0 57.8135 0 117.022 91.4902 182.979 144.68 17.0215 146.785 16.9209 246.809 48.9365 384.474 235.308 411.229 35.9941 446.531 36.6338 483.865 36.8672 520.032 36.6455 557.37 35.9873 708.511 48.9365 834.67 16.627 842.553 17.0215 882.887 117.113
LayerCount: 2
Fore
SplineSet
502.127929688 -106.3828125 m 0xd1000124
 495.762695312 -106.3828125 489.31640625 -106.212890625 482.967773438 -105.877929688 c 1
 483.865234375 -88.8798828125 l 1
 490 -89.2021484375 496.177734375 -89.365234375 502.392578125 -89.365234375 c 0
 508.721679688 -89.365234375 514.486328125 -89.1962890625 520.732421875 -88.8623046875 c 1
 521.646484375 -105.858398438 l 1
 515.181640625 -106.206054688 508.614257812 -106.3828125 502.127929688 -106.3828125 c 0xd1000124
444.499023438 -101.759765625 m 1
 431.7421875 -99.6904296875 418.958984375 -96.8857421875 406.692382812 -93.4990234375 c 1
 411.228515625 -77.0927734375 l 1
 422.907226562 -80.3173828125 435.077148438 -82.98828125 447.22265625 -84.958984375 c 1xb1000424
 444.499023438 -101.759765625 l 1
560.112304688 -101.703125 m 1
 557.370117188 -84.9033203125 l 1
 569.512695312 -82.919921875 581.681640625 -80.2373046875 593.357421875 -77.0009765625 c 1x91000064
 597.907226562 -93.4033203125 l 1
 585.645507812 -96.8017578125 572.865234375 -99.6201171875 560.112304688 -101.703125 c 1
369.998046875 -81.1650390625 m 1
 358.0078125 -76.3896484375 346.173828125 -70.9091796875 334.86328125 -64.912109375 c 1
 342.83984375 -49.875 l 1
 353.608398438 -55.5859375 364.875976562 -60.8037109375 376.291015625 -65.3505859375 c 1
 369.998046875 -81.1650390625 l 1
634.578125 -81.0361328125 m 1
 628.26953125 -65.2265625 l 1
 639.6796875 -60.6708984375 650.938476562 -55.443359375 661.69921875 -49.7236328125 c 1
 669.690429688 -64.751953125 l 1
 658.387695312 -70.7607421875 646.561523438 -76.2509765625 634.578125 -81.0361328125 c 1
301.705078125 -44.94921875 m 1
 290.95703125 -37.6533203125 280.775390625 -29.9111328125 270.8984375 -21.529296875 c 1
 281.915039062 -8.5537109375 l 1
 291.323242188 -16.5380859375 301.022460938 -23.9140625 311.260742188 -30.86328125 c 1
 301.705078125 -44.94921875 l 1
702.817382812 -44.76953125 m 1
 693.247070312 -30.6923828125 l 1
 703.4765625 -23.7353515625 713.166015625 -16.353515625 722.564453125 -8.361328125 c 1
 733.59375 -21.326171875 l 1
 723.7265625 -29.7158203125 713.555664062 -37.4658203125 702.817382812 -44.76953125 c 1
242.793945312 5.064453125 m 1
 233.862304688 14.48046875 225.595703125 24.1875 217.711914062 34.5234375 c 1
 231.247070312 44.84375 l 1
 238.7578125 34.9990234375 246.6328125 25.751953125 255.140625 16.78125 c 1
 242.793945312 5.064453125 l 1
761.674804688 5.291015625 m 1
 749.315429688 16.9951171875 l 1
 757.817382812 25.974609375 765.685546875 35.23046875 773.189453125 45.0830078125 c 1
 786.732421875 34.775390625 l 1
 778.857421875 24.431640625 770.598632812 14.7158203125 761.674804688 5.291015625 c 1
195.950195312 66.5087890625 m 1
 189.315429688 77.4970703125 183.217773438 88.94140625 177.772460938 100.657226562 c 1
 193.208984375 107.828125 l 1
 198.395507812 96.671875 204.202148438 85.7734375 210.51953125 75.3095703125 c 1
 195.950195312 66.5087890625 l 1
808.475585938 66.7900390625 m 1
 793.897460938 75.5771484375 l 1
 800.208984375 86.0517578125 806.0078125 96.962890625 811.184570312 108.129882812 c 1
 826.630859375 100.9765625 l 1
 821.194335938 89.248046875 815.103515625 77.7900390625 808.475585938 66.791015625 c 1
 808.475585938 66.7900390625 l 1
163.405273438 136.592773438 m 1
 159.3359375 148.647460938 155.810546875 161.2890625 153.037109375 173.879882812 c 1
 169.659179688 177.5390625 l 1
 172.301757812 165.552734375 175.658203125 153.516601562 179.53125 142.041015625 c 1
 163.405273438 136.592773438 l 1
840.963867188 136.935546875 m 1
 824.83203125 142.3671875 l 1
 828.6953125 153.8515625 832.040039062 165.89453125 834.669921875 177.889648438 c 1
 851.296875 174.247070312 l 1x91000034
 848.53515625 161.647460938 845.022460938 148.998046875 840.963867188 136.935546875 c 1
146.78515625 212.064453125 m 1x95002024
 145.399414062 224.874023438 144.6953125 237.515625 144.6796875 250.686523438 c 1
 161.701171875 250.705078125 l 1x95004024
 161.715820312 238.154296875 162.38671875 226.107421875 163.706054688 213.901367188 c 1
 146.78515625 212.064453125 l 1x95002024
857.513671875 212.440429688 m 1
 840.587890625 214.256835938 l 1
 841.89453125 226.466796875 842.552734375 238.509765625 842.552734375 251.063476562 c 2
 842.552734375 251.796875 l 1
 859.57421875 251.796875 l 1
 859.57421875 251.063476562 l 2x9100002c
 859.573242188 237.890625 858.883789062 225.252929688 857.513671875 212.440429688 c 1
163.629882812 287.512695312 m 1x93000024
 146.705078125 289.313476562 l 1
 148.080078125 302.219726562 150.166015625 315.052734375 152.877929688 327.512695312 c 1
 169.508789062 323.889648438 l 1
 166.926757812 312.022460938 164.940429688 299.802734375 163.629882812 287.512695312 c 1x93000024
840.508789062 288.58203125 m 1
 839.161132812 300.86328125 837.13671875 313.083007812 834.518554688 324.938476562 c 1
 851.13671875 328.614257812 l 1
 853.88671875 316.165039062 856.013671875 303.333984375 857.4296875 290.4375 c 1
 840.508789062 288.58203125 l 1
179.307617188 359.420898438 m 1
 163.168945312 364.833007812 l 1
 167.271484375 377.0546875 172.114257812 389.220703125 177.465820312 400.811523438 c 1
 192.918945312 393.671875 l 1
 187.823242188 382.637695312 183.213867188 371.0546875 179.307617188 359.420898438 c 1
824.609375 360.423828125 m 1
 820.666992188 372.043945312 816.0234375 383.607421875 810.893554688 394.625 c 1
 826.323242188 401.8125 l 1
 831.709960938 390.239257812 836.587890625 378.09375 840.728515625 365.889648438 c 1
 824.609375 360.423828125 l 1
210.171875 426.2421875 m 1
 195.5859375 435.014648438 l 1
 202.2734375 446.129882812 209.48046875 456.762695312 217.29296875 467.0546875 c 1
 230.848632812 456.758789062 l 1
 223.407226562 446.95703125 216.541992188 436.829101562 210.171875 426.2421875 c 1
793.548828125 427.125 m 1
 787.1484375 437.689453125 780.256835938 447.791015625 772.787109375 457.569335938 c 1
 786.313476562 467.903320312 l 1
 794.155273438 457.637695312 801.390625 447.032226562 808.110351562 435.94140625 c 1
 793.548828125 427.125 l 1
254.692382812 484.87109375 m 1
 242.323242188 496.5625 l 1
 251.251953125 506.005859375 260.482421875 514.774414062 270.376953125 523.2109375 c 1
 281.41796875 510.255859375 l 1
 271.9921875 502.219726562 263.19921875 493.8671875 254.692382812 484.87109375 c 1
748.865234375 485.60546875 m 1
 740.33203125 494.575195312 731.513671875 502.903320312 722.064453125 510.9140625 c 1
 733.068359375 523.899414062 l 1
 742.986328125 515.491210938 752.2421875 506.75 761.19921875 497.333984375 c 1
 748.865234375 485.60546875 l 1
310.708984375 532.6171875 m 1
 301.125976562 546.68359375 l 1
 311.771484375 553.932617188 322.80859375 560.611328125 334.229492188 566.703125 c 1
 342.237304688 551.682617188 l 1
 331.359375 545.880859375 320.84765625 539.520507812 310.709960938 532.6171875 c 1
 310.708984375 532.6171875 l 1
692.6953125 533.192382812 m 1
 682.536132812 540.068359375 671.998046875 546.40234375 661.099609375 552.171875 c 1
 669.057617188 567.216796875 l 1
 680.502929688 561.159179688 691.568359375 554.508789062 702.23828125 547.2890625 c 1
 692.6953125 533.192382812 l 1
375.6484375 567.221679688 m 1x91400024
 369.323242188 583.0234375 l 1x91400024
 381.1484375 587.756835938 393.57421875 591.969726562 405.984375 595.4296875 c 1
 410.55078125 579.03125 l 1x91200024
 398.737304688 575.73828125 386.907226562 571.727539062 375.650390625 567.221679688 c 1
 375.6484375 567.221679688 l 1x91400024
627.630859375 567.611328125 m 1
 616.356445312 572.08203125 604.508789062 576.057617188 592.680664062 579.31640625 c 1
 597.197265625 595.7265625 l 1
 609.62109375 592.3046875 622.064453125 588.12890625 633.90625 583.43359375 c 1
 627.630859375 567.611328125 l 1
446.53125 586.97265625 m 1x91100224
 443.7734375 603.76953125 l 1
 456.405273438 605.83984375 469.194335938 607.249023438 482.231445312 607.96484375 c 1
 483.165039062 590.96875 l 1
 470.74609375 590.286132812 458.564453125 588.944335938 446.53125 586.97265625 c 1x91100224
556.677734375 587.14453125 m 1x910000a4
 544.634765625 589.079101562 532.458007812 590.3828125 520.032226562 591.02734375 c 1
 520.913085938 608.026367188 l 1
 533.95703125 607.348632812 546.741210938 605.98046875 559.383789062 603.94921875 c 1
 556.677734375 587.14453125 l 1x910000a4
931.072265625 800 m 2x91060024
 969.114257812 800 1000 769.115234375 1000 731.073242188 c 2
 1000 -131.072265625 l 2
 1000 -169.114257812 969.114257812 -200 931.072265625 -200 c 2
 68.927734375 -200 l 2
 30.8857421875 -200 0 -169.114257812 0 -131.072265625 c 2
 0 731.073242188 l 2
 0 769.115234375 30.8857421875 800 68.927734375 800 c 2
 931.072265625 800 l 2x91060024
500 -129.787109375 m 0
 711.375976562 -129.767578125 882.88671875 41.7392578125 882.88671875 253.119140625 c 0
 882.88671875 464.51171875 711.262695312 636.134765625 499.87109375 636.134765625 c 0x91090024
 456.161132812 636.134765625 414.151367188 628.796875 375.0078125 615.288085938 c 1
 272.125976562 718.168945312 l 2
 249.403320312 740.891601562 217.986328125 754.918945312 183.344726562 754.918945312 c 0
 114.061523438 754.918945312 57.8134765625 698.669921875 57.8134765625 629.387695312 c 0x91060024
 57.8134765625 594.74609375 71.875 563.36328125 94.59765625 540.640625 c 2
 176.690429688 458.546875 l 1
 139.059570312 399.27734375 117.022460938 328.584960938 117.022460938 253.243164062 c 0x91050024
 117.022460938 41.8603515625 288.624023438 -129.758789062 500 -129.787109375 c 0
274.46875 629.787109375 m 0x91808024
 274.46875 579.29296875 233.473632812 538.297851562 182.979492188 538.297851562 c 0
 132.485351562 538.297851562 91.490234375 579.29296875 91.490234375 629.787109375 c 0
 91.490234375 680.28125 132.484375 721.276367188 182.978515625 721.276367188 c 0
 233.47265625 721.276367188 274.46875 680.28125 274.46875 629.787109375 c 0x91808024
502.127929688 506.3828125 m 0
 643.041992188 506.3828125 757.447265625 391.978515625 757.447265625 251.064453125 c 0
 757.447265625 110.149414062 643.04296875 -4.255859375 502.127929688 -4.255859375 c 0
 361.213867188 -4.255859375 246.80859375 110.149414062 246.80859375 251.063476562 c 0x91001024
 246.80859375 391.977539062 361.212890625 506.3828125 502.127929688 506.3828125 c 0
502.127929688 44.681640625 m 0
 616.033203125 44.681640625 708.510742188 137.158203125 708.510742188 251.064453125 c 0
 708.510742188 364.969726562 616.033203125 457.447265625 502.127929688 457.447265625 c 0
 388.221679688 457.447265625 295.745117188 364.969726562 295.745117188 251.064453125 c 0
 295.745117188 137.158203125 388.221679688 44.681640625 502.127929688 44.681640625 c 0
429.739257812 164.828125 m 2
 389.409179688 234.682617188 l 2
 386.270507812 240.120117188 384.473632812 246.427734375 384.473632812 253.151367188 c 0
 384.473632812 259.875976562 386.270507812 266.262695312 389.409179688 271.700195312 c 2
 429.739257812 341.553710938 l 2
 436.138671875 352.63671875 448.090820312 360.0625 461.796875 360.0625 c 2
 542.458007812 360.0625 l 2
 556.1640625 360.0625 568.1171875 352.63671875 574.515625 341.553710938 c 2
 614.845703125 271.700195312 l 2
 617.985351562 266.262695312 619.78125 259.955078125 619.78125 253.231445312 c 0
 619.78125 246.506835938 617.985351562 240.120117188 614.845703125 234.682617188 c 2
 574.515625 164.828125 l 2
 568.1171875 153.74609375 556.1640625 146.3203125 542.458007812 146.3203125 c 2
 461.796875 146.3203125 l 2x99000824
 448.090820312 146.3203125 436.138671875 153.74609375 429.739257812 164.828125 c 2
EndSplineSet
Validated: 1
EndChar

StartChar: Atari_Jaguar
Encoding: 835585 835585 2
Width: 1000
Flags: MW
HStem: -67.2061 47.1699 3.51074 57.3193 84.376 57.3193 165.242 57.3184 245.036 91.96 437.734 114.391 454.485 230.204 472.461 44.9268
VStem: 0.509766 167.32 223.274 48.3076 412.118 50.1533 538.083 49.7988
LayerCount: 2
Fore
SplineSet
271.60546875 523.254882812 m 2xfcf0
 271.58984375 523.088867188 271.577148438 522.926757812 271.577148438 522.756835938 c 0
 271.577148438 519.809570312 273.970703125 517.416015625 276.91796875 517.416015625 c 0
 277.205078125 517.416015625 277.487304688 517.439453125 277.76171875 517.482421875 c 2
 301.60546875 517.947265625 l 2
 301.895507812 517.991210938 302.185546875 518.010742188 302.487304688 518.010742188 c 0
 305.6484375 518.010742188 308.23046875 515.510742188 308.362304688 512.381835938 c 2
 308.395507812 512.180664062 l 2
 309.307617188 506.529296875 309.78125 500.938476562 309.78125 495.03125 c 0
 309.78125 489.123046875 309.307617188 483.325195312 308.395507812 477.673828125 c 2
 308.362304688 477.47265625 l 2
 308.23046875 474.34375 305.655273438 471.83984375 302.494140625 471.83984375 c 0
 302.192382812 471.83984375 301.895507812 471.862304688 301.60546875 471.90625 c 2
 277.76171875 472.37109375 l 2
 277.486328125 472.4140625 277.209960938 472.442382812 276.921875 472.442382812 c 0
 273.974609375 472.442382812 271.58203125 470.049804688 271.58203125 467.102539062 c 0
 271.58203125 466.932617188 271.58984375 466.764648438 271.60546875 466.599609375 c 2
 272.298828125 444.071289062 l 2
 272.317382812 443.879882812 272.331054688 443.69140625 272.331054688 443.495117188 c 0
 272.331054688 440.31640625 269.75 437.734375 266.5703125 437.734375 c 0xfcf0
 266.491210938 437.734375 266.412109375 437.736328125 266.333984375 437.739257812 c 2
 265.879882812 437.676757812 l 2
 259.860351562 436.84375 253.985351562 436.4140625 247.73828125 436.4140625 c 0
 241.337890625 436.4140625 235.041992188 436.866210938 228.880859375 437.739257812 c 0
 228.803710938 437.736328125 228.729492188 437.729492188 228.651367188 437.729492188 c 0
 225.46875 437.729492188 222.884765625 440.313476562 222.884765625 443.49609375 c 0
 222.884765625 443.665039062 222.891601562 443.83203125 222.90625 443.997070312 c 2
 223.251953125 466.692382812 l 2
 223.263671875 466.834960938 223.274414062 466.97265625 223.274414062 467.1171875 c 0
 223.274414062 470.06640625 220.879882812 472.4609375 217.930664062 472.4609375 c 0
 217.647460938 472.4609375 217.370117188 472.439453125 217.099609375 472.396484375 c 2
 192.444335938 471.891601562 l 2
 192.158203125 471.848632812 191.87109375 471.831054688 191.573242188 471.831054688 c 0
 188.413085938 471.831054688 185.831054688 474.331054688 185.69921875 477.459960938 c 2
 185.663085938 477.686523438 l 2
 184.751953125 483.333984375 184.278320312 488.920898438 184.278320312 494.823242188 c 0
 184.278320312 500.7265625 184.751953125 506.51953125 185.663085938 512.16796875 c 2
 185.69921875 512.39453125 l 2
 185.831054688 515.5234375 188.407226562 518.02734375 191.568359375 518.02734375 c 0
 191.866210938 518.02734375 192.158203125 518.004882812 192.444335938 517.962890625 c 2
 217.099609375 517.45703125 l 2
 217.370117188 517.4140625 217.642578125 517.387695312 217.924804688 517.387695312 c 0xf9f0
 220.874023438 517.387695312 223.26953125 519.782226562 223.26953125 522.732421875 c 0
 223.26953125 522.876953125 223.263671875 523.01953125 223.251953125 523.161132812 c 2
 222.90625 545.857421875 l 2
 222.892578125 546.022460938 222.881835938 546.18359375 222.881835938 546.352539062 c 0
 222.881835938 549.53515625 225.465820312 552.119140625 228.6484375 552.119140625 c 0
 228.7265625 552.119140625 228.803710938 552.118164062 228.880859375 552.115234375 c 0
 235.041992188 552.98828125 241.06640625 553.440429688 247.467773438 553.440429688 c 0
 253.713867188 553.440429688 259.860351562 553.009765625 265.879882812 552.177734375 c 2
 266.333984375 552.115234375 l 2
 266.412109375 552.118164062 266.48828125 552.125 266.567382812 552.125 c 0
 269.74609375 552.125 272.328125 549.543945312 272.328125 546.365234375 c 0
 272.328125 546.16796875 272.317382812 545.974609375 272.298828125 545.783203125 c 2
 271.60546875 523.254882812 l 2xfcf0
999.490234375 260.892578125 m 0
 999.85546875 254.067382812 1000.04785156 247.876953125 1000.04785156 240.9609375 c 0
 1000.04785156 224.673828125 999.022460938 208.625 997.032226562 192.875 c 0
 995.07421875 148.837890625 989.346679688 105.759765625 980.224609375 63.9619140625 c 0
 968.634765625 18.6005859375 952.41796875 -25.9931640625 932.6953125 -67.47265625 c 0
 932.62890625 -67.6513671875 932.54296875 -67.82421875 932.443359375 -67.984375 c 2
 932.0625 -68.751953125 l 2
 921.439453125 -81.2236328125 839.458007812 -84.1259765625 817.2109375 -84.6875 c 0
 817.013671875 -84.6923828125 816.8046875 -84.681640625 816.60546875 -84.681640625 c 0
 813.057617188 -84.681640625 809.694335938 -83.8818359375 806.6875 -82.453125 c 2
 806.298828125 -82.2685546875 l 2
 803.282226562 -80.83984375 799.891601562 -80.0283203125 796.333984375 -80.0283203125 c 2
 796.165039062 -80.0283203125 l 1
 735.424804688 -80.46875 l 2
 735.368164062 -80.4697265625 735.293945312 -80.4580078125 735.237304688 -80.4580078125 c 0
 730.05078125 -80.4580078125 725.258789062 -78.7587890625 721.38671875 -75.88671875 c 2
 715.278320312 -71.35546875 l 2
 712.553710938 -69.333984375 709.334960938 -67.8818359375 705.881835938 -67.2060546875 c 2
 294.118164062 -67.2060546875 l 2
 290.665039062 -67.8818359375 287.446289062 -69.333984375 284.721679688 -71.35546875 c 2
 278.61328125 -75.88671875 l 2
 274.741210938 -78.7587890625 269.932617188 -80.4697265625 264.74609375 -80.4697265625 c 0
 264.689453125 -80.4697265625 264.631835938 -80.4697265625 264.575195312 -80.46875 c 2
 203.834960938 -80.0283203125 l 2
 203.778320312 -80.0283203125 203.704101562 -80.041015625 203.6484375 -80.041015625 c 0
 200.090820312 -80.041015625 196.717773438 -80.83984375 193.701171875 -82.2685546875 c 2
 193.3125 -82.453125 l 2
 190.305664062 -83.8818359375 186.931640625 -84.6943359375 183.3828125 -84.6943359375 c 0
 183.184570312 -84.6943359375 182.986328125 -84.6923828125 182.7890625 -84.6875 c 0
 160.541992188 -84.126953125 78.560546875 -81.2236328125 67.9375 -68.751953125 c 2
 67.556640625 -67.984375 l 2
 67.45703125 -67.82421875 67.37109375 -67.6513671875 67.3046875 -67.47265625 c 0
 47.58203125 -25.9931640625 31.365234375 18.6005859375 19.775390625 63.9619140625 c 0
 10.6533203125 105.759765625 4.92578125 148.837890625 2.9677734375 192.875 c 0
 0.9775390625 208.625 -0.0400390625 223.9921875 -0.0400390625 240.278320312 c 0
 -0.0400390625 247.194335938 0.14453125 254.067382812 0.509765625 260.892578125 c 0
 16.4990234375 593.1015625 208.67578125 642.227539062 273.581054688 649.329101562 c 0
 283.379882812 649.922851562 292.315429688 653.927734375 299.118164062 660.165039062 c 0
 305.861328125 665.916015625 314.346679688 669.780273438 323.596679688 670.897460938 c 0
 381.774414062 679.263671875 440.077148438 683.912109375 500.372070312 684.689453125 c 0xfaf0
 555.895507812 683.953125 609.494140625 680.299804688 663.44140625 673.767578125 c 0
 677.452148438 672.93359375 690.455078125 667.873046875 700.984375 659.890625 c 0
 707.53125 653.860351562 716.146484375 649.987304688 725.598632812 649.41796875 c 0
 789.6875 642.640625 983.432617188 594.512695312 999.490234375 260.892578125 c 0
247.03125 421.078125 m 0
 247.903320312 421.048828125 248.73828125 421.078125 249.6171875 421.078125 c 0
 290.986328125 421.078125 324.747070312 453.916992188 326.23046875 494.926757812 c 0
 324.747070312 535.9375 291.028320312 568.8203125 249.658203125 568.8203125 c 0
 248.779296875 568.8203125 247.903320312 568.805664062 247.03125 568.776367188 c 0
 246.159179688 568.805664062 245.32421875 568.775390625 244.4453125 568.775390625 c 0
 203.075195312 568.775390625 169.315429688 535.9375 167.830078125 494.927734375 c 0
 169.314453125 453.916992188 203.034179688 421.034179688 244.405273438 421.034179688 c 0
 245.284179688 421.034179688 246.159179688 421.048828125 247.03125 421.078125 c 0
400.344726562 -20.0361328125 m 2
 406.842773438 -20.0361328125 412.118164062 -14.7607421875 412.118164062 -8.2626953125 c 0
 412.118164062 -1.7646484375 406.842773438 3.5107421875 400.344726562 3.5107421875 c 2
 350.041992188 3.5107421875 l 2
 343.543945312 3.5107421875 338.268554688 -1.7646484375 338.268554688 -8.2626953125 c 0
 338.268554688 -14.7607421875 343.543945312 -20.0361328125 350.041992188 -20.0361328125 c 2
 400.344726562 -20.0361328125 l 2
400.344726562 60.830078125 m 2
 406.842773438 60.830078125 412.162109375 66.10546875 412.162109375 72.603515625 c 0
 412.162109375 79.1005859375 406.88671875 84.3759765625 400.388671875 84.3759765625 c 2
 400.344726562 84.3759765625 l 1
 350.041992188 84.3759765625 l 1
 349.999023438 84.3759765625 l 2
 343.500976562 84.3759765625 338.225585938 79.1005859375 338.225585938 72.603515625 c 0
 338.225585938 66.10546875 343.500976562 60.830078125 349.999023438 60.830078125 c 2
 350.041992188 60.830078125 l 1
 400.344726562 60.830078125 l 2
402.307617188 141.6953125 m 2
 408.805664062 141.6953125 414.081054688 146.970703125 414.081054688 153.46875 c 0
 414.081054688 159.965820312 408.805664062 165.2421875 402.307617188 165.2421875 c 2
 352.00390625 165.2421875 l 2
 345.505859375 165.2421875 340.23046875 159.965820312 340.23046875 153.46875 c 0
 340.23046875 146.970703125 345.505859375 141.6953125 352.00390625 141.6953125 c 2
 402.307617188 141.6953125 l 2
402.307617188 222.560546875 m 2
 408.805664062 222.560546875 414.081054688 227.8359375 414.081054688 234.333984375 c 0
 414.081054688 240.83203125 408.805664062 246.107421875 402.307617188 246.107421875 c 2
 352.00390625 246.107421875 l 2
 345.505859375 246.107421875 340.23046875 240.83203125 340.23046875 234.333984375 c 0
 340.23046875 227.8359375 345.505859375 222.560546875 352.00390625 222.560546875 c 2
 402.307617188 222.560546875 l 2
417.84375 392.673828125 m 0
 419.668945312 391.315429688 421.93359375 390.497070312 424.381835938 390.497070312 c 0
 427.982421875 390.497070312 431.1796875 392.237304688 433.177734375 394.921875 c 2
 464.454101562 436.946289062 l 2
 465.799804688 438.766601562 466.606445312 441.036132812 466.606445312 443.471679688 c 0
 466.606445312 449.51953125 461.696289062 454.430664062 455.647460938 454.430664062 c 0
 452.05859375 454.430664062 448.870117188 452.701171875 446.87109375 450.03125 c 2
 415.595703125 408.0078125 l 2
 414.237304688 406.182617188 413.418945312 403.91796875 413.418945312 401.469726562 c 0
 413.418945312 397.869140625 415.159179688 394.671875 417.84375 392.673828125 c 0
524.348632812 -20.0361328125 m 2
 530.846679688 -20.0361328125 536.122070312 -14.7607421875 536.122070312 -8.2626953125 c 0
 536.122070312 -1.7646484375 530.846679688 3.5107421875 524.348632812 3.5107421875 c 2
 474.044921875 3.5107421875 l 2
 467.546875 3.5107421875 462.271484375 -1.7646484375 462.271484375 -8.2626953125 c 0
 462.271484375 -14.7607421875 467.546875 -20.0361328125 474.044921875 -20.0361328125 c 2
 524.348632812 -20.0361328125 l 2
524.348632812 60.830078125 m 2
 530.846679688 60.830078125 536.165039062 66.10546875 536.165039062 72.603515625 c 0
 536.165039062 79.1005859375 530.889648438 84.3759765625 524.391601562 84.3759765625 c 2
 524.348632812 84.3759765625 l 1
 474.044921875 84.3759765625 l 1
 474.000976562 84.3759765625 l 2
 467.502929688 84.3759765625 462.227539062 79.1005859375 462.227539062 72.603515625 c 0
 462.227539062 66.10546875 467.502929688 60.830078125 474.000976562 60.830078125 c 2
 474.044921875 60.830078125 l 1
 524.348632812 60.830078125 l 2
526.309570312 141.6953125 m 2
 532.807617188 141.6953125 538.083007812 146.970703125 538.083007812 153.46875 c 0
 538.083007812 159.965820312 532.807617188 165.2421875 526.309570312 165.2421875 c 2
 476.006835938 165.2421875 l 2
 469.508789062 165.2421875 464.233398438 159.965820312 464.233398438 153.46875 c 0
 464.233398438 146.970703125 469.508789062 141.6953125 476.006835938 141.6953125 c 2
 526.309570312 141.6953125 l 2
526.309570312 222.560546875 m 2
 532.807617188 222.560546875 538.083007812 227.8359375 538.083007812 234.333984375 c 0
 538.083007812 240.83203125 532.807617188 246.107421875 526.309570312 246.107421875 c 2
 476.006835938 246.107421875 l 2
 469.508789062 246.107421875 464.233398438 240.83203125 464.233398438 234.333984375 c 0
 464.233398438 227.8359375 469.508789062 222.560546875 476.006835938 222.560546875 c 2
 526.309570312 222.560546875 l 2
538.671875 436.973632812 m 2
 540.030273438 438.798828125 540.844726562 441.078125 540.844726562 443.526367188 c 0
 540.844726562 449.57421875 535.934570312 454.485351562 529.885742188 454.485351562 c 0
 526.28515625 454.485351562 523.086914062 452.744140625 521.088867188 450.059570312 c 2
 489.814453125 408.036132812 l 2
 488.442382812 406.206054688 487.618164062 403.9140625 487.618164062 401.453125 c 0
 487.618164062 395.405273438 492.528320312 390.495117188 498.577148438 390.495117188 c 0
 502.19140625 390.495117188 505.399414062 392.248046875 507.396484375 394.950195312 c 2
 538.671875 436.973632812 l 2
647.995117188 -21.10546875 m 2
 654.493164062 -21.10546875 659.76953125 -15.830078125 659.76953125 -9.33203125 c 0
 659.76953125 -2.8349609375 654.494140625 2.44140625 647.99609375 2.44140625 c 2
 597.692382812 2.44140625 l 2
 591.194335938 2.44140625 585.918945312 -2.8349609375 585.918945312 -9.33203125 c 0
 585.918945312 -15.830078125 591.194335938 -21.10546875 597.692382812 -21.10546875 c 2
 647.995117188 -21.10546875 l 2
647.995117188 59.7587890625 m 2
 654.493164062 59.7587890625 659.76953125 65.0341796875 659.76953125 71.5322265625 c 0
 659.76953125 78.0302734375 654.494140625 83.3056640625 647.99609375 83.3056640625 c 2
 597.692382812 83.3056640625 l 2
 591.194335938 83.3056640625 585.918945312 78.0302734375 585.918945312 71.5322265625 c 0
 585.918945312 65.0341796875 591.194335938 59.7587890625 597.692382812 59.7587890625 c 2
 647.995117188 59.7587890625 l 2
649.958007812 140.625 m 2
 656.456054688 140.625 661.731445312 145.900390625 661.731445312 152.3984375 c 0
 661.731445312 158.896484375 656.456054688 164.171875 649.958007812 164.171875 c 2
 599.655273438 164.171875 l 2
 593.157226562 164.171875 587.881835938 158.896484375 587.881835938 152.3984375 c 0
 587.881835938 145.900390625 593.157226562 140.625 599.655273438 140.625 c 2
 649.958007812 140.625 l 2
649.958007812 221.491210938 m 2
 656.455078125 221.491210938 661.73046875 226.765625 661.73046875 233.263671875 c 0
 661.73046875 239.760742188 656.455078125 245.036132812 649.958007812 245.036132812 c 2
 599.655273438 245.036132812 l 2
 593.157226562 245.036132812 587.8828125 239.760742188 587.8828125 233.263671875 c 0
 587.8828125 226.765625 593.157226562 221.491210938 599.655273438 221.491210938 c 2
 649.958007812 221.491210938 l 2
722.033203125 373.885742188 m 0
 724.041015625 376.545898438 725.247070312 379.86328125 725.247070312 383.44921875 c 0
 725.247070312 390.231445312 720.986328125 396.02734375 714.998046875 398.303710938 c 0
 697.202148438 407.822265625 685.200195312 414.444335938 670.301757812 421.065429688 c 0
 661.08203125 425.1640625 643.401367188 437.619140625 630.157226562 416.926757812 c 2
 604.181640625 372.291992188 l 2
 601.578125 367.912109375 600.063476562 362.791992188 600.063476562 357.33203125 c 0
 600.063476562 355.4765625 600.236328125 353.661132812 600.56640625 351.900390625 c 0
 601.69140625 343.500976562 608.876953125 336.99609375 617.58203125 336.99609375 c 0
 618.053710938 336.99609375 618.521484375 337.015625 618.983398438 337.052734375 c 0
 643.815429688 336.639648438 686.44140625 336.639648438 686.44140625 336.639648438 c 2
 693.256835938 336.639648438 700.926757812 332.9140625 710.03125 350.295898438 c 0
 719.13671875 367.677734375 719.338867188 367.995117188 722.033203125 373.885742188 c 0
779.213867188 458.478515625 m 0
 779.8046875 460.081054688 780.1484375 461.810546875 780.1484375 463.6171875 c 0
 780.1484375 468.849609375 777.44140625 473.455078125 773.3515625 476.107421875 c 0
 760.521484375 483.556640625 717.06640625 504.663085938 717.06640625 504.663085938 c 1
 717.06640625 504.663085938 698.443359375 514.181640625 688.924804688 500.111328125 c 2
 666.576171875 471.5546875 l 2
 664.005859375 468.611328125 662.432617188 464.759765625 662.432617188 460.547851562 c 0
 662.432617188 453.569335938 666.7109375 447.58203125 672.78515625 445.067382812 c 0
 689.829101562 435.434570312 719.146484375 421.8203125 725.099609375 419.07421875 c 0
 728.862304688 416.329101562 733.516601562 414.690429688 738.526367188 414.690429688 c 0
 745.076171875 414.690429688 750.984375 417.459960938 755.142578125 421.891601562 c 0
 763.2578125 432.114257812 770.720703125 442.5546875 774.1953125 447.500976562 c 0
 776.510742188 450.74609375 778.247070312 454.48828125 779.213867188 458.478515625 c 0
842.05078125 531.150390625 m 0
 842.641601562 532.75390625 842.985351562 534.482421875 842.985351562 536.290039062 c 0
 842.985351562 541.522460938 840.278320312 546.126953125 836.189453125 548.779296875 c 0
 824.1796875 555.751953125 786.840820312 571.21484375 782.12109375 573.161132812 c 0
 781.830078125 573.28125 781.543945312 573.409179688 781.2578125 573.541992188 c 0
 778.649414062 574.756835938 762.950195312 581.397460938 754.09375 569.66015625 c 0
 753.465820312 568.849609375 752.795898438 568.098632812 752.0625 567.383789062 c 2
 731.55859375 546.836914062 l 2
 729.189453125 544.509765625 727.385742188 541.618164062 726.350585938 538.379882812 c 0
 725.861328125 536.868164062 725.579101562 535.262695312 725.579101562 533.588867188 c 0
 725.579101562 527.390625 729.205078125 522.033203125 734.450195312 519.5234375 c 0
 735.310546875 518.977539062 736.21875 518.489257812 737.15625 518.0703125 c 2
 788.1875 495.106445312 l 2
 788.5234375 494.955078125 788.858398438 494.80078125 789.186523438 494.6328125 c 0
 792.578125 492.689453125 796.53515625 491.55859375 800.721679688 491.55859375 c 0
 807.172851562 491.55859375 813.013671875 494.198242188 817.219726562 498.456054688 c 0
 827.98046875 510.043945312 833.55859375 515.225585938 837.033203125 520.172851562 c 0
 839.348632812 523.416992188 841.083984375 527.16015625 842.05078125 531.150390625 c 0
EndSplineSet
Validated: 33
EndChar

StartChar: Sega_Dreamcast
Encoding: 835586 835586 3
Width: 1000
Flags: MW
HStem: -22.5879 55.4111 349.973 88.0342 606.869 193.455
VStem: 217.479 174.718 608.063 168.504 769.607 92.6875
LayerCount: 2
Fore
SplineSet
949.611328125 574.360351562 m 0xf0
 964.319335938 537.701171875 985.967773438 460.8984375 972.056640625 283.044921875 c 0
 966.96484375 201.12109375 955.376953125 120.606445312 937.97265625 42.623046875 c 0
 926.698242188 -8.2919921875 910.467773438 -58.6279296875 890.4609375 -105.646484375 c 0
 877.146484375 -134.478515625 861.4375 -162.064453125 843.637695312 -188.018554688 c 0
 838.966796875 -195.208984375 830.885742188 -199.9375 821.680664062 -199.9375 c 0
 819.270507812 -199.9375 816.935546875 -199.611328125 814.71875 -199.000976562 c 0
 807.499023438 -159.774414062 797.1640625 -120.672851562 784.41015625 -83.6806640625 c 0
 776.1484375 -63.0869140625 777.537109375 -58.2822265625 726.58203125 -48.671875 c 0
 660.861328125 -36.1005859375 593.694335938 -27.30078125 525.520507812 -22.587890625 c 0
 516.911132812 -22.185546875 508.4140625 -21.83203125 500 -21.828125 c 0
 491.5859375 -21.83203125 483.087890625 -22.185546875 474.478515625 -22.587890625 c 0
 406.3046875 -27.30078125 339.137695312 -36.1005859375 273.41796875 -48.671875 c 0
 222.462890625 -58.2822265625 223.8515625 -63.0869140625 215.58984375 -83.6806640625 c 0
 202.834960938 -120.672851562 192.5 -159.774414062 185.280273438 -199.000976562 c 0
 183.063476562 -199.611328125 180.751953125 -199.96875 178.341796875 -199.96875 c 0
 169.135742188 -199.96875 161.032226562 -195.208984375 156.361328125 -188.018554688 c 0
 138.561523438 -162.064453125 122.852539062 -134.478515625 109.538085938 -105.646484375 c 0
 89.53125 -58.6279296875 73.30078125 -8.2919921875 62.0263671875 42.623046875 c 0
 44.6220703125 120.606445312 33.0341796875 201.12109375 27.9423828125 283.044921875 c 0
 14.0322265625 460.8984375 35.6806640625 537.701171875 50.388671875 574.360351562 c 0
 54.73828125 585.375 59.8486328125 596.17578125 65.5380859375 606.434570312 c 0
 68.2412109375 610.50390625 72.0078125 613.73828125 76.486328125 615.79296875 c 0
 102.407226562 628.116210938 76.486328125 615.79296875 210.140625 651.760742188 c 1
 275.092773438 741.7265625 380.4765625 800.32421875 499.8125 800.32421875 c 0
 619.149414062 800.32421875 724.907226562 741.7265625 789.859375 651.760742188 c 1
 789.859375 651.760742188 897.591796875 628.116210938 923.513671875 615.79296875 c 0
 927.9921875 613.73828125 931.758789062 610.50390625 934.461914062 606.434570312 c 0
 940.151367188 596.17578125 945.26171875 585.375 949.611328125 574.360351562 c 0xf0
74.2578125 483.998046875 m 0
 74.318359375 444.587890625 106.331054688 412.609375 145.754882812 412.609375 c 2
 145.868164062 412.609375 l 2
 185.391601562 412.609375 217.479492188 444.702148438 217.479492188 484.224609375 c 0
 217.479492188 523.748046875 185.391601562 555.836914062 145.868164062 555.836914062 c 0
 106.344726562 555.836914062 74.2568359375 523.748046875 74.2568359375 484.224609375 c 0
 74.2568359375 484.149414062 74.2568359375 484.07421875 74.2578125 483.998046875 c 0
276.859375 232.077148438 m 2
 279.997070312 232.077148438 282.5390625 243.140625 282.5390625 256.7890625 c 0
 282.5390625 270.4375 279.997070312 281.500976562 276.859375 281.500976562 c 2
 224.701171875 281.500976562 l 1
 224.701171875 333.498046875 l 2
 224.701171875 336.625976562 213.603515625 339.16015625 199.913085938 339.16015625 c 0
 186.221679688 339.16015625 175.124023438 336.625976562 175.124023438 333.498046875 c 2
 175.124023438 281.500976562 l 1
 122.96484375 281.500976562 l 2
 119.827148438 281.500976562 117.28515625 270.4375 117.28515625 256.7890625 c 0
 117.28515625 243.140625 119.827148438 232.077148438 122.96484375 232.077148438 c 2
 175.124023438 232.077148438 l 1
 175.124023438 180.081054688 l 2
 175.124023438 176.952148438 186.22265625 174.41796875 199.913085938 174.41796875 c 0
 213.602539062 174.41796875 224.701171875 176.952148438 224.701171875 180.081054688 c 2
 224.701171875 232.077148438 l 1
 276.859375 232.077148438 l 2
543.688476562 34.712890625 m 0
 545.0625 34.828125 546.143554688 35.9833984375 546.143554688 37.38671875 c 0
 546.143554688 37.8779296875 546.01171875 38.337890625 545.78125 38.7333984375 c 0
 534.001953125 63.6416015625 520.19921875 87.4462890625 504.600585938 109.87109375 c 2
 502.455078125 112.955078125 l 2
 501.987304688 113.75390625 501.124023438 114.291015625 500.131835938 114.291015625 c 0
 499.140625 114.291015625 498.272460938 113.75390625 497.8046875 112.955078125 c 2
 495.66015625 109.87109375 l 2
 480.061523438 87.4462890625 466.258789062 63.6416015625 454.479492188 38.7333984375 c 0
 454.249023438 38.337890625 454.1171875 37.875 454.1171875 37.3837890625 c 0
 454.1171875 35.98046875 455.198242188 34.828125 456.571289062 34.712890625 c 0
 471.08984375 33.4619140625 484.797851562 32.8232421875 499.637695312 32.8232421875 c 0
 514.478515625 32.8232421875 529.169921875 33.4619140625 543.688476562 34.712890625 c 0
608.063476562 459.484375 m 2xf8
 608.063476562 559.994140625 l 2
 607.947265625 585.861328125 586.927734375 606.833984375 561.041992188 606.869140625 c 2
 439.21875 606.869140625 l 2
 413.333007812 606.833984375 392.313476562 585.861328125 392.197265625 559.994140625 c 2
 392.197265625 459.484375 l 2
 392.313476562 433.618164062 413.333007812 412.645507812 439.21875 412.609375 c 2
 561.041992188 412.609375 l 2
 586.927734375 412.645507812 607.947265625 433.618164062 608.063476562 459.484375 c 2xf8
730.100585938 354.60546875 m 0
 730.12109375 354.60546875 730.140625 354.606445312 730.161132812 354.606445312 c 0
 751.911132812 354.606445312 769.573242188 372.248046875 769.607421875 393.989257812 c 0xf4
 769.607421875 415.7265625 751.961914062 433.374023438 730.224609375 433.374023438 c 0
 708.48828125 433.374023438 690.840820312 415.7265625 690.840820312 393.989257812 c 0
 690.840820312 372.293945312 708.420898438 354.672851562 730.100585938 354.60546875 c 0
815.828125 271.204101562 m 0
 815.848632812 271.204101562 815.868164062 271.205078125 815.888671875 271.205078125 c 0
 837.638671875 271.205078125 855.30078125 288.846679688 855.334960938 310.587890625 c 0
 855.334960938 332.325195312 837.689453125 349.97265625 815.952148438 349.97265625 c 0
 794.215820312 349.97265625 776.568359375 332.325195312 776.568359375 310.587890625 c 0
 776.568359375 288.892578125 794.1484375 271.271484375 815.828125 271.204101562 c 0
815.828125 438.006835938 m 0
 815.848632812 438.006835938 815.8671875 438.0078125 815.887695312 438.0078125 c 0
 837.637695312 438.0078125 855.299804688 455.6484375 855.333984375 477.390625 c 0
 855.333984375 499.127929688 837.688476562 516.775390625 815.952148438 516.775390625 c 0
 794.21484375 516.775390625 776.567382812 499.127929688 776.567382812 477.390625 c 0xf8
 776.567382812 455.6953125 794.1484375 438.07421875 815.828125 438.006835938 c 0
901.553710938 354.60546875 m 0
 901.57421875 354.60546875 901.594726562 354.606445312 901.615234375 354.606445312 c 0
 923.365234375 354.606445312 941.02734375 372.248046875 941.061523438 393.989257812 c 0
 941.061523438 415.7265625 923.416015625 433.374023438 901.678710938 433.374023438 c 0
 879.942382812 433.374023438 862.294921875 415.7265625 862.294921875 393.989257812 c 0xf4
 862.294921875 372.294921875 879.874023438 354.672851562 901.553710938 354.60546875 c 0
EndSplineSet
Validated: 33
EndChar

StartChar: Nintendo_GameCube
Encoding: 835587 835587 4
Width: 1000
Flags: MW
HStem: 69.873 61.0576 272.712 56.1973 346.604 47.5498 482.886 27.6396 502.562 136.085 564.832 73.7939
VStem: 18.2598 94.5967 405.636 59.5947 534.748 55.6367 725.056 18.7061 860.401 29.0459 943.585 40.3965
LayerCount: 2
Fore
SplineSet
991.907226562 307.7578125 m 1xe7f0
 1006.46386719 198.0859375 1000.20703125 41.38671875 982.5078125 -17.09765625 c 0
 964.80859375 -75.576171875 922.145507812 -76.6171875 922.145507812 -76.6171875 c 1
 834.8359375 -89.5693359375 829.783203125 132.463867188 821.397460938 169.758789062 c 0
 820.322265625 174.66015625 818.751953125 179.5 816.8046875 184.010742188 c 0
 815.112304688 188.193359375 811.021484375 191.151367188 806.235351562 191.151367188 c 0
 801.771484375 191.151367188 797.903320312 188.58203125 796.029296875 184.84375 c 2
 794.11328125 180.95703125 l 2
 790.997070312 174.249023438 788.293945312 167.1328125 786.157226562 159.944335938 c 0
 768.705078125 107.600585938 719.303710938 69.873046875 661.125976562 69.873046875 c 0
 647.036132812 69.873046875 633.458984375 72.0888671875 620.7265625 76.19140625 c 0
 576.069335938 90.7451171875 542.515625 130.053710938 536.154296875 177.813476562 c 0
 535.241210938 183.954101562 534.748046875 190.120117188 534.748046875 196.512695312 c 0
 534.748046875 232.091796875 549.401367188 264.274414062 572.998046875 287.350585938 c 0
 580.3828125 294.453125 587.16015625 301.874023438 593.572265625 309.87890625 c 0
 598.114257812 314.739257812 601.211914062 321.013671875 602.16796875 327.922851562 c 0
 602.177734375 328.096679688 602.192382812 328.258789062 602.192382812 328.435546875 c 0
 602.192382812 331.74609375 600.450195312 334.653320312 597.833007812 336.288085938 c 0
 570.62890625 343.1640625 542.497070312 346.850585938 513.168945312 346.850585938 c 0
 508.759765625 346.850585938 504.369140625 346.767578125 500 346.604492188 c 0
 495.626953125 346.767578125 491.583984375 346.817382812 487.170898438 346.817382812 c 0
 457.829101562 346.817382812 429.333007812 343.169921875 402.111328125 336.302734375 c 0
 399.512695312 334.740234375 397.782226562 331.899414062 397.782226562 328.6484375 c 0
 397.782226562 328.620117188 397.782226562 328.590820312 397.783203125 328.5625 c 0
 398.584960938 321.381835938 401.73046875 314.860351562 406.43359375 309.869140625 c 0
 412.842773438 301.868164062 419.6171875 294.452148438 426.998046875 287.353515625 c 0
 450.595703125 264.278320312 465.23046875 232.2109375 465.23046875 196.631835938 c 0
 465.23046875 190.239257812 464.756835938 183.95703125 463.84375 177.817382812 c 0
 457.485351562 130.057617188 423.932617188 90.7470703125 379.275390625 76.193359375 c 0
 366.541015625 72.0908203125 352.986328125 69.8212890625 338.89453125 69.8212890625 c 0
 280.716796875 69.8212890625 231.293945312 107.6015625 213.841796875 159.944335938 c 0
 211.705078125 167.1328125 209.001953125 174.249023438 205.885742188 180.95703125 c 2
 203.969726562 184.84375 l 2
 202.095703125 188.58203125 198.239257812 191.147460938 193.775390625 191.147460938 c 0
 188.98828125 191.147460938 184.88671875 188.193359375 183.194335938 184.010742188 c 0
 181.247070312 179.5 179.676757812 174.66015625 178.6015625 169.758789062 c 0
 170.215820312 132.463867188 165.162109375 -89.5693359375 77.853515625 -76.6171875 c 1
 77.853515625 -76.6171875 35.1904296875 -75.576171875 17.4912109375 -17.09765625 c 0
 -0.2080078125 41.38671875 -6.46484375 198.0859375 8.091796875 307.7578125 c 1
 8.091796875 307.7578125 16.849609375 394.247070312 18.1015625 423.185546875 c 0
 18.123046875 423.685546875 18.234375 424.169921875 18.259765625 424.669921875 c 0
 18.197265625 426.594726562 17.9697265625 428.4765625 17.9697265625 430.416015625 c 0
 17.9716796875 493.177734375 50.466796875 548.2578125 99.72265625 579.7734375 c 1
 110.709960938 601.041015625 127.909179688 618.288085938 149.140625 629.333984375 c 0
 161.287109375 635.284179688 175.061523438 638.647460938 189.48828125 638.647460938 c 0xebf0
 200.541015625 638.647460938 211.138671875 636.686523438 220.953125 633.09375 c 1
 303.920898438 661.587890625 392.857421875 677.290039062 485.440429688 677.290039062 c 0
 490.303710938 677.290039062 495.157226562 677.247070312 500 677.162109375 c 0
 504.844726562 677.247070312 509.639648438 677.057617188 514.504882812 677.057617188 c 0
 607.1015625 677.057617188 696.111328125 661.577148438 779.0859375 633.065429688 c 1
 788.91796875 636.676757812 799.662109375 638.625976562 810.741210938 638.625976562 c 0
 825.1640625 638.625976562 838.8125 635.28515625 850.955078125 629.334960938 c 0
 871.611328125 618.537109375 888.446289062 601.91796875 899.508789062 581.422851562 c 1
 950.250976562 550.514648438 983.981445312 494.958984375 983.981445312 431.251953125 c 0
 983.981445312 424.009765625 983.543945312 416.868164062 982.692382812 409.854492188 c 0
 985.209960938 373.900390625 991.907226562 307.7578125 991.907226562 307.7578125 c 1xe7f0
191.407226562 344.944335938 m 0
 234.767578125 345.104492188 269.920898438 380.35546875 269.920898438 423.752929688 c 0
 269.920898438 467.1484375 234.770507812 502.399414062 191.412109375 502.5625 c 0
 148.283203125 501.842773438 113.401367188 466.857421875 112.856445312 423.685546875 c 0
 112.856445312 423.659179688 112.859375 423.634765625 112.859375 423.608398438 c 0
 112.859375 380.23046875 148.044921875 345.006835938 191.407226562 344.944335938 c 0
402.888671875 225.78125 m 2
 367.072265625 225.782226562 l 1
 367.071289062 225.782226562 l 2
 365.584960938 225.782226562 364.377929688 226.989257812 364.376953125 228.475585938 c 2
 364.376953125 264.428710938 l 2
 364.376953125 265.911132812 363.173828125 267.114257812 361.692382812 267.114257812 c 2
 361.69140625 267.114257812 l 1
 320.258789062 267.114257812 l 2
 318.740234375 267.110351562 317.5078125 265.877929688 317.502929688 264.359375 c 2
 317.502929688 228.466796875 l 2
 317.499023438 226.986328125 316.297851562 225.78515625 314.817382812 225.78125 c 2
 279 225.78125 l 2
 277.514648438 225.776367188 276.309570312 224.571289062 276.3046875 223.0859375 c 2
 276.3046875 181.376953125 l 2
 276.309570312 179.896484375 277.510742188 178.6953125 278.990234375 178.69140625 c 2
 314.80859375 178.69140625 l 2
 316.293945312 178.686523438 317.499023438 177.482421875 317.502929688 175.997070312 c 2
 317.502929688 140.049804688 l 2
 317.506835938 138.567382812 318.7109375 137.36328125 320.193359375 137.359375 c 2
 361.747070312 137.359375 l 2
 363.23046875 137.36328125 364.43359375 138.567382812 364.4375 140.049804688 c 2
 364.4375 176.005859375 l 2
 364.4375 177.48828125 365.640625 178.69140625 367.123046875 178.69140625 c 2
 402.940429688 178.69140625 l 2
 404.42578125 178.6953125 405.630859375 179.900390625 405.635742188 181.385742188 c 2
 405.635742188 223.03515625 l 2
 405.635742188 224.55078125 404.404296875 225.78125 402.888671875 225.78125 c 2
499.049804688 394.154296875 m 2
 512.086914062 394.16015625 522.669921875 404.74609375 522.669921875 417.784179688 c 2
 522.669921875 417.8515625 l 2
 522.669921875 430.9296875 512.049804688 441.548828125 498.970703125 441.548828125 c 0
 485.891601562 441.548828125 475.2734375 430.930664062 475.2734375 417.8515625 c 0
 475.2734375 404.772460938 485.891601562 394.154296875 498.970703125 394.154296875 c 2
 499.049804688 394.154296875 l 2
650.494140625 376.48828125 m 0
 649.643554688 373.342773438 649.172851562 370.05078125 649.172851562 366.637695312 c 0
 649.172851562 345.814453125 666.078125 328.909179688 686.901367188 328.909179688 c 0
 690.25390625 328.909179688 693.50390625 329.346679688 696.598632812 330.168945312 c 0
 712.944335938 334.375976562 725.055664062 349.208007812 725.055664062 366.858398438 c 0
 725.055664062 387.775390625 708.07421875 404.7578125 687.157226562 404.7578125 c 0
 669.567382812 404.7578125 654.759765625 392.748046875 650.494140625 376.48828125 c 0
731.341796875 190.185546875 m 0
 731.92578125 193.857421875 732.296875 197.553710938 732.296875 201.388671875 c 0
 732.296875 240.752929688 700.337890625 272.711914062 660.973632812 272.711914062 c 0
 657.271484375 272.711914062 653.635742188 272.4296875 650.084960938 271.884765625 c 0
 616.296875 266.456054688 590.384765625 237.200195312 590.384765625 201.890625 c 0
 590.384765625 162.7265625 622.180664062 130.930664062 661.344726562 130.930664062 c 0
 696.521484375 130.930664062 725.754882812 156.583007812 731.341796875 190.185546875 c 0
718.421875 511.654296875 m 0
 721.462890625 501.610351562 730.779296875 494.28515625 741.811523438 494.28515625 c 0
 742.140625 494.28515625 742.467773438 494.291992188 742.793945312 494.3046875 c 0
 754.078125 494.515625 757.544921875 500.495117188 770.375 504.524414062 c 0
 775.130859375 505.995117188 779.099609375 507.647460938 783.98046875 508.810546875 c 0
 789.576171875 509.770507812 795.249023438 510.349609375 801.07421875 510.525390625 c 0
 814.724609375 510.828125 825.750976562 521.901367188 825.97265625 535.571289062 c 0
 825.97265625 535.583007812 825.995117188 535.581054688 825.995117188 535.591796875 c 0
 825.995117188 543.899414062 821.950195312 551.270507812 815.723632812 555.83984375 c 0
 805.62890625 561.547851562 793.880859375 564.83203125 781.466796875 564.83203125 c 0xf7f0
 773.66015625 564.83203125 766.15234375 563.543945312 759.14453125 561.16796875 c 0
 744.935546875 555.870117188 732.583984375 546.963867188 723.131835938 535.44921875 c 0
 719.467773438 531.064453125 717.258789062 525.403320312 717.258789062 519.248046875 c 0
 717.258789062 516.602539062 717.666015625 514.05078125 718.421875 511.654296875 c 0
859.615234375 415.078125 m 0
 860.095703125 418.09765625 860.401367188 421.138671875 860.401367188 424.291992188 c 0
 860.401367188 456.630859375 834.146484375 482.885742188 801.807617188 482.885742188 c 0
 798.759765625 482.885742188 795.766601562 482.65234375 792.84375 482.203125 c 0
 765.065429688 477.747070312 743.76171875 453.69921875 743.76171875 424.673828125 c 0
 743.76171875 392.486328125 769.89453125 366.353515625 802.08203125 366.353515625 c 0
 831.001953125 366.353515625 855.033203125 387.44921875 859.615234375 415.078125 c 0
934.552734375 404.52734375 m 0
 940.286132812 414.666992188 943.584960938 426.467773438 943.584960938 438.9375 c 0
 943.584960938 446.75390625 942.298828125 454.272460938 939.926757812 461.29296875 c 0
 934.618164062 475.506835938 925.748046875 487.88671875 914.290039062 497.420898438 c 0
 909.9375 501.091796875 904.327148438 503.3125 898.193359375 503.3125 c 0
 896.96484375 503.3125 895.756835938 503.223632812 894.576171875 503.051757812 c 0
 882.513671875 501.0234375 873.287109375 490.537109375 873.287109375 477.90234375 c 0
 873.287109375 477.504882812 873.296875 477.108398438 873.314453125 476.715820312 c 0
 873.818359375 466.174804688 879.502929688 462.5390625 883.465820312 450.024414062 c 0
 884.934570312 445.249023438 886.578125 441.268554688 887.741210938 436.307617188 c 0
 888.698242188 430.71484375 889.275390625 425.045898438 889.447265625 419.22265625 c 0
 889.680664062 405.53515625 900.737304688 394.453125 914.416015625 394.178710938 c 0
 922.71484375 394.185546875 930.053710938 398.254882812 934.552734375 404.52734375 c 0
EndSplineSet
Validated: 33
EndChar

StartChar: JoyCon_L
Encoding: 835588 835588 5
Width: 1000
Flags: MW
HStem: 107.94 117.823 229.619 69.8408 376.548 81.834 617.484 182.516
VStem: 262.304 52.0361 262.304 86.7832 262.304 128.341 390.876 77.5029 543.269 172.305
LayerCount: 2
Fore
SplineSet
728.568359375 456.140625 m 2xf580
 715.573242188 456.140625 l 1
 715.573242188 198.469726562 l 1
 728.569335938 198.469726562 l 2
 733.606445312 198.469726562 737.696289062 194.37890625 737.696289062 189.341796875 c 2
 737.696289062 70.9541015625 l 2
 737.696289062 65.916015625 733.606445312 61.826171875 728.568359375 61.8251953125 c 2
 715.573242188 61.8251953125 l 1
 715.573242188 -64.66796875 l 2
 715.518554688 -99.4521484375 699.895507812 -130.572265625 675.23046875 -151.42578125 c 0
 645.522460938 -174.887695312 624.896484375 -182.984375 624.896484375 -177.235351562 c 2
 624.897460938 -161.840820312 l 2
 624.897460938 -150.98828125 617.3203125 -144.05078125 599.750976562 -138.1953125 c 0
 597.747070312 -137.526367188 596.703125 -135.033203125 596.176757812 -132.19140625 c 1
 596.176757812 -189.887695312 l 2
 596.176757812 -195.46875 591.646484375 -200 586.065429688 -200 c 2
 479.135742188 -200 l 2
 478.842773438 -200.000976562 478.567382812 -199.984375 478.274414062 -199.984375 c 0
 359.389648438 -199.984375 262.810546875 -103.717773438 262.303710938 15.048828125 c 2xf980
 262.303710938 571.2734375 l 1
 262.309570312 571.411132812 l 2
 262.314453125 577.829101562 262.66796875 584.154296875 263.27734375 590.405273438 c 0
 265.041992188 609.845703125 269.521484375 628.83984375 276.186523438 646.412109375 c 1
 276.1015625 646.43359375 275.991210938 646.360351562 275.911132812 646.3984375 c 0
 271.625 649.8359375 268.901367188 655.125976562 268.901367188 661.043945312 c 0
 268.901367188 663.85546875 269.521484375 666.522460938 270.631835938 668.91796875 c 0
 308.064453125 746.499023438 387.325195312 799.889648438 479.143554688 800 c 2
 531.362304688 800 l 2
 538.920898438 800 549.092773438 793.864257812 549.092773438 786.306640625 c 1
 596.176757812 786.307617188 l 2
 662.12109375 785.99609375 715.573242188 732.36328125 715.573242188 666.346679688 c 2
 715.573242188 666.311523438 l 1
 715.573242188 592.784179688 l 1
 728.569335938 592.784179688 l 2
 733.606445312 592.784179688 737.696289062 588.694335938 737.696289062 583.65625 c 2
 737.696289062 465.26953125 l 2
 737.696289062 460.231445312 733.606445312 456.140625 728.568359375 456.140625 c 2xf580
429.244140625 617.484375 m 0
 429.155273438 617.484375 429.072265625 617.478515625 428.984375 617.478515625 c 0
 384.994140625 617.478515625 349.260742188 581.8515625 349.086914062 537.903320312 c 0xf580
 349.103515625 494.01171875 384.732421875 458.381835938 428.627929688 458.381835938 c 0
 472.534179688 458.381835938 508.180664062 494.028320312 508.180664062 537.934570312 c 0
 508.180664062 581.634765625 472.8671875 617.15234375 429.244140625 617.484375 c 0
342.330078125 227.002929688 m 0
 345.649414062 226.05859375 349.141601562 225.532226562 352.76171875 225.532226562 c 0
 373.796875 225.532226562 390.875976562 242.610351562 390.875976562 263.646484375 c 0
 390.875976562 266.934570312 390.458007812 270.125976562 389.673828125 273.170898438 c 0
 385.502929688 289.774414062 370.477539062 302.104492188 352.587890625 302.104492188 c 0
 331.478515625 302.104492188 314.33984375 284.966796875 314.33984375 263.856445312 c 0xf980
 314.33984375 246.299804688 326.1953125 231.490234375 342.330078125 227.002929688 c 0
439.197265625 375.263671875 m 0
 436.037109375 376.102539062 432.725585938 376.547851562 429.302734375 376.547851562 c 0
 408.029296875 376.547851562 390.758789062 359.27734375 390.758789062 338.00390625 c 0
 390.758789062 316.73046875 408.029296875 299.459960938 429.302734375 299.459960938 c 0
 450.576171875 299.459960938 467.84765625 316.73046875 467.84765625 338.00390625 c 0
 467.84765625 341.751953125 467.311523438 345.375976562 466.311523438 348.802734375 c 0
 462.67578125 361.76953125 452.2890625 371.934570312 439.197265625 375.263671875 c 0
419.244140625 153.83203125 m 0
 422.418945312 152.984375 425.748046875 152.533203125 429.1875 152.533203125 c 0
 450.459960938 152.533203125 467.73046875 169.803710938 467.73046875 191.076171875 c 0
 467.73046875 212.348632812 450.459960938 229.619140625 429.1875 229.619140625 c 0
 407.915039062 229.619140625 390.64453125 212.348632812 390.64453125 191.076171875 c 0xf380
 390.64453125 187.3046875 391.1875 183.659179688 392.19921875 180.212890625 c 0
 395.85546875 167.299804688 406.203125 157.176757812 419.244140625 153.83203125 c 0
526.6015625 55.5185546875 m 2
 526.600585938 100.021484375 l 2
 526.600585938 104.391601562 523.052734375 107.940429688 518.682617188 107.940429688 c 2
 473.509765625 107.940429688 l 2
 469.138671875 107.940429688 465.590820312 104.391601562 465.590820312 100.021484375 c 2
 465.590820312 55.5185546875 l 2
 465.590820312 51.1484375 469.139648438 47.6005859375 473.509765625 47.6005859375 c 2
 518.68359375 47.6005859375 l 2
 523.052734375 47.6005859375 526.6015625 51.1484375 526.6015625 55.5185546875 c 2
543.268554688 253.444335938 m 0
 544.220703125 256.778320312 544.72265625 260.296875 544.72265625 263.935546875 c 0
 544.72265625 285.002929688 527.618164062 302.107421875 506.55078125 302.107421875 c 0
 485.483398438 302.107421875 468.37890625 285.002929688 468.37890625 263.935546875 c 0
 468.37890625 242.868164062 485.483398438 225.763671875 506.55078125 225.763671875 c 0
 509.868164062 225.763671875 513.086914062 226.1875 516.15625 226.984375 c 0
 529.247070312 230.313476562 539.6328125 240.478515625 543.268554688 253.444335938 c 0
565.080078125 679.423828125 m 1
 565.080078125 699.825195312 l 1
 513.734375 699.825195312 l 1
 513.734375 679.423828125 l 1
 565.080078125 679.423828125 l 1
EndSplineSet
Validated: 33
EndChar

StartChar: JoyCon_R
Encoding: 835589 835589 6
Width: 1000
Flags: MW
HStem: 344.483 82.3105 503.43 70.8457
VStem: 262.304 193.506 531.785 77.8135 543.749 193.947 608.975 128.722 650.504 87.1924 685.572 52.124
LayerCount: 2
Fore
SplineSet
737.690429688 571.411132812 m 2xe1
 737.696289062 571.2734375 l 1
 737.696289062 15.048828125 l 2
 737.189453125 -103.717773438 640.626953125 -200.001953125 521.7421875 -200.001953125 c 0
 521.44921875 -200.001953125 521.157226562 -200.000976562 520.864257812 -200 c 2
 413.934570312 -200 l 2
 408.353515625 -200 403.823242188 -195.46875 403.823242188 -189.887695312 c 2
 403.823242188 -132.19140625 l 1
 403.296875 -135.033203125 402.252929688 -137.526367188 400.249023438 -138.1953125 c 0
 382.6796875 -144.05078125 375.102539062 -150.98828125 375.102539062 -161.840820312 c 2
 375.103515625 -177.235351562 l 2
 375.103515625 -182.984375 354.477539062 -174.887695312 324.76953125 -151.42578125 c 0
 300.104492188 -130.572265625 284.481445312 -99.4521484375 284.426757812 -64.66796875 c 2
 284.426757812 61.8251953125 l 1
 271.431640625 61.8251953125 l 2
 266.393554688 61.826171875 262.303710938 65.916015625 262.303710938 70.9541015625 c 2
 262.303710938 189.341796875 l 2
 262.303710938 194.37890625 266.393554688 198.469726562 271.430664062 198.469726562 c 2
 284.426757812 198.469726562 l 1
 284.426757812 456.140625 l 1
 271.431640625 456.140625 l 2
 266.393554688 456.140625 262.303710938 460.23046875 262.303710938 465.268554688 c 2
 262.303710938 583.65625 l 2
 262.303710938 588.693359375 266.393554688 592.784179688 271.430664062 592.784179688 c 2
 284.426757812 592.784179688 l 1
 284.426757812 666.311523438 l 1
 284.4375 666.345703125 l 1
 284.4375 732.362304688 337.87890625 785.99609375 403.823242188 786.307617188 c 2
 450.908203125 786.307617188 l 1
 450.908203125 793.865234375 461.080078125 800 468.637695312 800 c 2
 520.856445312 800 l 2
 612.674804688 799.889648438 691.934570312 746.499023438 729.3671875 668.91796875 c 0
 730.478515625 666.522460938 731.12109375 663.845703125 731.12109375 661.034179688 c 0
 731.12109375 655.1171875 728.375 649.8359375 724.087890625 646.3984375 c 0
 724.0078125 646.360351562 723.897460938 646.43359375 723.8125 646.412109375 c 1
 730.478515625 628.83984375 734.958007812 609.845703125 736.72265625 590.405273438 c 0
 737.33203125 584.154296875 737.685546875 577.829101562 737.690429688 571.411132812 c 2xe1
570.643554688 650.315429688 m 0
 570.598632812 650.315429688 570.556640625 650.313476562 570.51171875 650.313476562 c 0
 549.486328125 650.313476562 532.41015625 633.275390625 532.345703125 612.265625 c 0
 532.362304688 591.295898438 549.38671875 574.275390625 570.360351562 574.275390625 c 0
 591.344726562 574.275390625 608.380859375 591.3125 608.380859375 612.295898438 c 0
 608.380859375 633.185546875 591.497070312 650.163085938 570.643554688 650.315429688 c 0
608.97265625 465.409179688 m 0
 608.920898438 486.401367188 591.8671875 503.4296875 570.86328125 503.4296875 c 0
 570.790039062 503.4296875 570.716796875 503.4296875 570.643554688 503.428710938 c 0
 549.50390625 503.419921875 532.344726562 486.25 532.344726562 465.108398438 c 0
 532.344726562 443.961914062 549.512695312 426.793945312 570.659179688 426.793945312 c 0
 591.805664062 426.793945312 608.974609375 443.961914062 608.974609375 465.108398438 c 0xe4
 608.974609375 465.208984375 608.973632812 465.30859375 608.97265625 465.409179688 c 0
435.071289062 679.631835938 m 1
 450.40234375 679.631835938 l 1
 450.40234375 664.423828125 l 1
 470.783203125 664.423828125 l 1
 470.783203125 679.631835938 l 1
 486.115234375 679.631835938 l 1
 486.115234375 699.909179688 l 1
 470.783203125 699.909179688 l 1
 470.783203125 715.0859375 l 1
 450.40234375 715.0859375 l 1
 450.40234375 699.909179688 l 1
 435.071289062 699.909179688 l 1
 435.071289062 679.631835938 l 1
493.922851562 576.23046875 m 0
 472.959960938 576.166015625 455.943359375 559.188476562 455.809570312 538.2421875 c 0
 455.809570312 517.275390625 472.829101562 500.252929688 493.795898438 500.252929688 c 0
 514.762695312 500.252929688 531.78515625 517.275390625 531.78515625 538.2421875 c 0xf0
 531.78515625 559.166015625 514.831054688 576.162109375 493.922851562 576.23046875 c 0
503.93359375 38.3330078125 m 0
 503.950195312 38.3330078125 503.965820312 38.337890625 503.982421875 38.337890625 c 0
 525.838867188 38.337890625 543.600585938 56.0087890625 543.749023438 77.830078125 c 0xe8
 543.716796875 99.5703125 526.063476562 117.2109375 504.31640625 117.2109375 c 0
 482.548828125 117.2109375 464.875976562 99.5380859375 464.875976562 77.771484375 c 0
 464.875976562 56.130859375 482.341796875 38.5380859375 503.93359375 38.3330078125 c 0
570.67578125 186.234375 m 0
 570.774414062 186.234375 570.868164062 186.2421875 570.967773438 186.2421875 c 0
 614.713867188 186.2421875 650.259765625 221.63671875 650.50390625 265.326171875 c 1xe2
 650.516601562 265.357421875 l 1
 650.516601562 309.028320312 615.061523438 344.483398438 571.390625 344.483398438 c 0
 527.719726562 344.483398438 492.264648438 309.028320312 492.264648438 265.357421875 c 0
 492.264648438 221.924804688 527.333984375 186.619140625 570.67578125 186.234375 c 0
647.271484375 500.25390625 m 0
 647.364257812 500.252929688 647.452148438 500.252929688 647.544921875 500.252929688 c 0
 668.520507812 500.252929688 685.551757812 517.272460938 685.572265625 538.2421875 c 0
 685.572265625 559.209960938 668.555664062 576.232421875 647.588867188 576.232421875 c 0
 626.62109375 576.232421875 609.598632812 559.209960938 609.598632812 538.2421875 c 0xf1
 609.598632812 517.380859375 626.450195312 500.424804688 647.271484375 500.25390625 c 0
EndSplineSet
Validated: 33
EndChar

StartChar: JoyCons_Grip
Encoding: 835590 835590 7
Width: 1000
Flags: MW
HStem: -62.1553 179.202 160.746 85.332 167.461 49.9883 248.871 50.5801 332.058 59.6123 355.281 59.2656 447.172 51.3086 529.773 132.341 550.872 111.242 589.406 62.791 589.406 72.708
VStem: 202.391 56.1279 742.048 56.3545
LayerCount: 2
Fore
SplineSet
966.162109375 301.775390625 m 0x9298
 997.274414062 136.713867188 1009.37304688 79.67578125 992.087890625 33.8740234375 c 0
 974.803710938 -11.9287109375 922.952148438 -84.521484375 848.630859375 -15.3857421875 c 0
 848.201171875 -14.986328125 847.845703125 -14.552734375 847.426757812 -14.1474609375 c 2
 847.450195312 -13.8212890625 l 1
 818.860351562 -43.603515625 778.653320312 -62.1142578125 734.150390625 -62.1142578125 c 2
 733.96875 -62.1142578125 l 1
 266.197265625 -62.1142578125 l 2
 266.137695312 -62.1142578125 266.079101562 -62.1552734375 266.01953125 -62.1552734375 c 0
 221.418945312 -62.1552734375 181.134765625 -43.5234375 152.534179688 -13.625 c 1
 152.572265625 -14.146484375 l 2
 152.154296875 -14.5517578125 151.798828125 -14.984375 151.369140625 -15.3837890625 c 0
 77.0478515625 -84.51953125 25.1953125 -11.9287109375 7.912109375 33.875 c 0
 -9.3720703125 79.6787109375 2.7265625 136.71484375 33.8388671875 301.776367188 c 0
 64.30078125 463.395507812 111.211914062 528.734375 113.161132812 531.396484375 c 1
 113.188476562 531.010742188 l 1
 114.756835938 537.7578125 116.809570312 544.498046875 119.217773438 550.880859375 c 1
 119.15625 550.897460938 119.076171875 550.84375 119.017578125 550.872070312 c 0x9298
 115.913085938 553.361328125 113.940429688 557.193359375 113.940429688 561.478515625 c 0
 113.940429688 563.514648438 114.389648438 565.446289062 115.193359375 567.180664062 c 0
 142.303710938 623.3671875 199.706054688 662.034179688 266.203125 662.114257812 c 2x9318
 304.021484375 662.114257812 l 2x9238
 309.49609375 662.114257812 316.862304688 657.670898438 316.862304688 652.197265625 c 1
 343.149414062 652.197265625 l 2
 347.461914062 652.197265625 350.963867188 648.696289062 350.963867188 644.3828125 c 2
 350.963867188 625.30078125 l 1
 362.344726562 626.443359375 371.575195312 635.041015625 373.66796875 646.1171875 c 0
 374.4453125 649.579101562 377.532226562 652.176757812 381.22265625 652.198242188 c 2
 618.943359375 652.198242188 l 2
 622.633789062 652.176757812 625.720703125 649.579101562 626.498046875 646.1171875 c 0
 628.590820312 635.041015625 637.8203125 626.443359375 649.202148438 625.30078125 c 1
 649.202148438 644.3828125 l 2
 649.202148438 648.696289062 652.704101562 652.197265625 657.016601562 652.197265625 c 2
 683.303710938 652.197265625 l 1x9258
 683.303710938 657.670898438 690.669921875 662.114257812 696.14453125 662.114257812 c 2
 733.962890625 662.114257812 l 2x9238
 800.459960938 662.034179688 857.862304688 623.3671875 884.97265625 567.180664062 c 0
 885.776367188 565.446289062 886.2421875 563.5078125 886.2421875 561.47265625 c 0
 886.2421875 557.186523438 884.252929688 553.362304688 881.1484375 550.872070312 c 0
 881.08984375 550.84375 881.010742188 550.896484375 880.948242188 550.880859375 c 1
 883.318359375 544.590820312 885.34375 537.952148438 886.900390625 531.30859375 c 0
 889.228515625 528.112304688 935.83203125 462.690429688 966.162109375 301.775390625 c 0x9298
230.17578125 529.7734375 m 0x9718
 230.112304688 529.7734375 230.051757812 529.76953125 229.98828125 529.76953125 c 0
 198.129882812 529.76953125 172.25 503.967773438 172.124023438 472.138671875 c 0
 172.13671875 440.350585938 197.939453125 414.546875 229.729492188 414.546875 c 0
 261.52734375 414.546875 287.34375 440.36328125 287.34375 472.161132812 c 0
 287.34375 503.810546875 261.768554688 529.533203125 230.17578125 529.7734375 c 0x9718
167.23046875 246.975585938 m 0
 169.635742188 246.291015625 172.166015625 245.909179688 174.790039062 245.909179688 c 0
 190.0234375 245.909179688 202.390625 258.276367188 202.390625 273.509765625 c 0
 202.390625 275.892578125 202.087890625 278.205078125 201.51953125 280.411132812 c 0
 198.498046875 292.435546875 187.616210938 301.366210938 174.66015625 301.366210938 c 0
 159.372070312 301.366210938 146.9609375 288.954101562 146.9609375 273.666015625 c 0
 146.9609375 260.951171875 155.545898438 250.2265625 167.23046875 246.975585938 c 0
237.384765625 354.350585938 m 0
 235.096679688 354.958007812 232.697265625 355.28125 230.21875 355.28125 c 0
 214.8125 355.28125 202.303710938 342.772460938 202.303710938 327.366210938 c 0
 202.303710938 311.959960938 214.8125 299.451171875 230.21875 299.451171875 c 0
 245.625976562 299.451171875 258.133789062 311.959960938 258.133789062 327.366210938 c 0
 258.133789062 330.080078125 257.74609375 332.705078125 257.021484375 335.186523438 c 0
 254.388671875 344.577148438 246.866210938 351.939453125 237.384765625 354.350585938 c 0
222.93359375 193.982421875 m 0
 225.232421875 193.369140625 227.643554688 193.04296875 230.134765625 193.04296875 c 0
 245.541015625 193.04296875 258.048828125 205.55078125 258.048828125 220.95703125 c 0
 258.048828125 236.36328125 245.541015625 248.87109375 230.134765625 248.87109375 c 0
 214.728515625 248.87109375 202.220703125 236.36328125 202.220703125 220.95703125 c 0
 202.220703125 218.225585938 202.61328125 215.584960938 203.346679688 213.08984375 c 0
 205.994140625 203.736328125 213.48828125 196.405273438 222.93359375 193.982421875 c 0
300.684570312 122.782226562 m 1
 300.684570312 155.01171875 l 2
 300.684570312 158.176757812 298.115234375 160.74609375 294.950195312 160.74609375 c 2
 294.94921875 160.74609375 l 1
 262.234375 160.74609375 l 1
 262.233398438 160.74609375 l 2xd218
 259.068359375 160.74609375 256.499023438 158.176757812 256.499023438 155.01171875 c 2
 256.499023438 122.782226562 l 1
 256.499023438 122.78125 l 2
 256.499023438 119.616210938 259.068359375 117.046875 262.233398438 117.046875 c 2
 262.234375 117.046875 l 1
 294.94921875 117.046875 l 1
 294.950195312 117.046875 l 2
 298.115234375 117.046875 300.684570312 119.616210938 300.684570312 122.78125 c 2
 300.684570312 122.782226562 l 1
312.755859375 266.125976562 m 0
 313.4453125 268.541015625 313.80859375 271.087890625 313.80859375 273.723632812 c 0
 313.80859375 288.981445312 301.421875 301.368164062 286.1640625 301.368164062 c 0
 270.905273438 301.368164062 258.518554688 288.981445312 258.518554688 273.723632812 c 0
 258.518554688 258.465820312 270.905273438 246.078125 286.1640625 246.078125 c 0
 288.56640625 246.078125 290.897460938 246.384765625 293.120117188 246.961914062 c 0
 302.600585938 249.374023438 310.123046875 256.735351562 312.755859375 266.125976562 c 0
328.552734375 574.6328125 m 1
 328.551757812 589.40625 l 1x9258
 291.366210938 589.40625 l 1x9238
 291.366210938 574.6328125 l 1
 328.552734375 574.6328125 l 1
770.190429688 553.55078125 m 0
 770.157226562 553.55078125 770.126953125 553.548828125 770.09375 553.548828125 c 0
 754.866210938 553.548828125 742.499023438 541.209960938 742.453125 525.993164062 c 0
 742.465820312 510.806640625 754.795898438 498.48046875 769.985351562 498.48046875 c 0
 785.182617188 498.48046875 797.520507812 510.819335938 797.520507812 526.016601562 c 0
 797.520507812 541.145507812 785.29296875 553.440429688 770.190429688 553.55078125 c 0
797.950195312 419.637695312 m 0
 797.912109375 434.840820312 785.561523438 447.171875 770.349609375 447.171875 c 2
 770.190429688 447.171875 l 2
 754.880859375 447.166015625 742.453125 434.73046875 742.453125 419.418945312 c 0
 742.453125 404.103515625 754.88671875 391.669921875 770.202148438 391.669921875 c 0x9a18
 785.517578125 391.669921875 797.951171875 404.103515625 797.951171875 419.418945312 c 0
 797.951171875 419.4921875 797.951171875 419.564453125 797.950195312 419.637695312 c 0
672.004882812 574.782226562 m 1
 683.108398438 574.782226562 l 1
 683.108398438 563.768554688 l 1
 697.869140625 563.768554688 l 1
 697.869140625 574.782226562 l 1
 708.97265625 574.782226562 l 1
 708.97265625 589.466796875 l 1
 697.869140625 589.466796875 l 1
 697.869140625 600.458984375 l 1
 683.108398438 600.458984375 l 1
 683.108398438 589.466796875 l 1
 672.004882812 589.466796875 l 1
 672.004882812 574.782226562 l 1
714.626953125 499.895507812 m 0
 699.4453125 499.849609375 687.120117188 487.553710938 687.024414062 472.3828125 c 0
 687.024414062 457.198242188 699.350585938 444.87109375 714.53515625 444.87109375 c 0
 729.719726562 444.87109375 742.047851562 457.198242188 742.047851562 472.3828125 c 0
 742.047851562 487.537109375 729.76953125 499.845703125 714.626953125 499.895507812 c 0
721.876953125 110.334960938 m 0
 721.888671875 110.334960938 721.900390625 110.338867188 721.912109375 110.338867188 c 0
 737.741210938 110.338867188 750.60546875 123.13671875 750.712890625 138.940429688 c 0
 750.688476562 154.684570312 737.904296875 167.4609375 722.154296875 167.4609375 c 0xb218
 706.389648438 167.4609375 693.590820312 154.662109375 693.590820312 138.897460938 c 0
 693.590820312 123.225585938 706.240234375 110.484375 721.876953125 110.334960938 c 0
770.213867188 217.44921875 m 0
 770.28515625 217.44921875 770.3515625 217.455078125 770.423828125 217.455078125 c 0
 802.106445312 217.455078125 827.849609375 243.088867188 828.02734375 274.73046875 c 1
 828.036132812 274.751953125 l 1
 828.036132812 306.379882812 802.358398438 332.057617188 770.73046875 332.057617188 c 0xba18
 739.103515625 332.057617188 713.42578125 306.379882812 713.42578125 274.751953125 c 0
 713.42578125 243.296875 738.823242188 217.727539062 770.213867188 217.44921875 c 0
825.686523438 444.87109375 m 0
 825.75390625 444.870117188 825.81640625 444.87109375 825.883789062 444.87109375 c 0
 841.075195312 444.87109375 853.41015625 457.196289062 853.42578125 472.383789062 c 0
 853.42578125 487.568359375 841.1015625 499.896484375 825.916015625 499.896484375 c 0
 810.731445312 499.896484375 798.40234375 487.568359375 798.40234375 472.383789062 c 0
 798.40234375 457.274414062 810.607421875 444.994140625 825.686523438 444.87109375 c 0
EndSplineSet
Validated: 33
EndChar

StartChar: Sega_Master_System
Encoding: 835591 835591 8
Width: 1000
Flags: MW
HStem: 96.875 17.1367 141.658 20.2588 166.184 30.5029 291.355 30.5039 330.389 27.7236 382.636 120.489 409.299 21.3193 439.148 20.2598 486.035 17.0898
VStem: 0 73.5752<120.785 120.801 120.801 479.246> 109.845 19.6895 137.816 118.139 137.824 20.7275 272.542 118.139 369.945 20.7285 398.964 19.6885 629.016 28.3135 751.997 28.3135 796.891 28.3135 919.873 28.3145 983.162 16.8379
LayerCount: 2
Fore
SplineSet
988.34375 503.125 m 2xf8e1f8
 994.791992188 503.03125 1000.00097656 497.770507812 1000.00097656 491.299804688 c 0
 1000.00097656 491.243164062 1000.00097656 491.1875 1000 491.130859375 c 2
 1000 108.869140625 l 2
 1000.00097656 108.8125 999.998046875 108.759765625 999.998046875 108.703125 c 0
 999.998046875 102.232421875 994.791992188 96.96875 988.34375 96.875 c 2
 11.65625 96.875 l 2
 5.2080078125 96.96875 -0.0009765625 102.229492188 -0.0009765625 108.700195312 c 0
 -0.0009765625 108.756835938 -0.0009765625 108.8125 0 108.869140625 c 2
 0 491.130859375 l 2
 -0.0009765625 491.1875 0.001953125 491.240234375 0.001953125 491.296875 c 0
 0.001953125 497.767578125 5.2080078125 503.03125 11.65625 503.125 c 2
 988.34375 503.125 l 2xf8e1f8
983.161132812 164.44140625 m 2
 983.16015625 375.846679688 l 2
 983.161132812 375.87890625 983.159179688 375.909179688 983.159179688 375.94140625 c 0
 983.159179688 379.603515625 980.212890625 382.583007812 976.5625 382.635742188 c 2
 461.520507812 382.635742188 l 2xfc61f8
 457.870117188 382.689453125 454.921875 385.666992188 454.921875 389.329101562 c 2
 454.921875 389.42578125 l 1
 454.921875 479.24609375 l 2
 454.922851562 479.278320312 454.920898438 479.307617188 454.920898438 479.33984375 c 0
 454.920898438 483.002929688 451.974609375 485.982421875 448.32421875 486.03515625 c 2
 80.1728515625 486.03515625 l 2
 76.5234375 485.982421875 73.57421875 483.00390625 73.57421875 479.341796875 c 0
 73.57421875 479.309570312 73.5751953125 479.278320312 73.5751953125 479.24609375 c 2
 73.5751953125 120.80078125 l 2
 73.5751953125 120.768554688 73.576171875 120.739257812 73.576171875 120.70703125 c 0
 73.576171875 117.043945312 76.5234375 114.064453125 80.1728515625 114.01171875 c 2
 448.32421875 114.01171875 l 2
 451.974609375 114.064453125 454.922851562 117.04296875 454.922851562 120.705078125 c 0
 454.922851562 120.737304688 454.922851562 120.768554688 454.921875 120.80078125 c 2
 454.921875 150.86328125 l 2
 454.921875 150.895507812 454.923828125 150.92578125 454.923828125 150.958007812 c 0
 454.923828125 154.620117188 457.870117188 157.599609375 461.520507812 157.65234375 c 2
 976.5625 157.65234375 l 2
 980.212890625 157.705078125 983.162109375 160.68359375 983.162109375 164.345703125 c 0
 983.162109375 164.377929688 983.161132812 164.41015625 983.161132812 164.44140625 c 2
629.015625 330.388671875 m 1
 629.015625 358.112304688 l 1
 780.310546875 358.112304688 l 1
 780.310546875 330.388671875 l 1
 629.015625 330.388671875 l 1
319.05078125 430.618164062 m 2xfa69f8
 358.671875 430.044921875 390.680664062 397.719726562 390.680664062 357.962890625 c 0xfa6df8
 390.680664062 357.615234375 390.678710938 357.268554688 390.673828125 356.921875 c 2
 390.673828125 244.14453125 l 2
 390.678710938 243.797851562 390.662109375 243.46875 390.662109375 243.122070312 c 0
 390.662109375 203.365234375 358.671875 171.021484375 319.05078125 170.447265625 c 2
 209.446289062 170.447265625 l 2
 169.825195312 171.021484375 137.81640625 203.346679688 137.81640625 243.103515625 c 0xfa73f8
 137.81640625 243.451171875 137.819335938 243.797851562 137.82421875 244.14453125 c 2
 137.82421875 356.921875 l 2
 137.819335938 357.268554688 137.8359375 357.596679688 137.8359375 357.944335938 c 0
 137.8359375 397.701171875 169.825195312 430.044921875 209.446289062 430.618164062 c 2
 319.05078125 430.618164062 l 2xfa69f8
191.709960938 292.002929688 m 2
 196.305664062 292.133789062 199.997070312 295.905273438 199.997070312 300.533203125 c 0
 199.997070312 305.161132812 196.305664062 308.932617188 191.709960938 309.063476562 c 2
 166.83984375 309.063476562 l 2
 162.243164062 308.932617188 158.551757812 305.16015625 158.551757812 300.533203125 c 0
 158.551757812 295.905273438 162.243164062 292.133789062 166.83984375 292.002929688 c 2
 191.709960938 292.002929688 l 2
272.5390625 200.303710938 m 2
 272.5390625 225.89453125 l 2
 272.541015625 225.974609375 272.541992188 226.055664062 272.541992188 226.13671875 c 0
 272.541992188 230.713867188 268.826171875 234.430664062 264.249023438 234.430664062 c 0
 259.670898438 234.430664062 255.955078125 230.713867188 255.955078125 226.13671875 c 0
 255.955078125 226.055664062 255.956054688 225.974609375 255.958984375 225.89453125 c 2
 255.958984375 200.303710938 l 2
 255.956054688 200.22265625 255.955078125 200.141601562 255.955078125 200.060546875 c 0xf875f8
 255.955078125 195.483398438 259.671875 191.767578125 264.249023438 191.767578125 c 0
 268.826171875 191.767578125 272.541992188 195.483398438 272.541992188 200.060546875 c 0
 272.541992188 200.141601562 272.541015625 200.22265625 272.5390625 200.303710938 c 2
272.5390625 375.171875 m 2
 272.5390625 400.762695312 l 2
 272.541015625 400.84375 272.541992188 400.924804688 272.541992188 401.005859375 c 0
 272.541992188 405.583007812 268.826171875 409.298828125 264.249023438 409.298828125 c 0xfa75f8
 259.670898438 409.298828125 255.955078125 405.583007812 255.955078125 401.005859375 c 0
 255.955078125 400.924804688 255.956054688 400.84375 255.958984375 400.762695312 c 2
 255.958984375 375.171875 l 2
 255.956054688 375.091796875 255.955078125 375.010742188 255.955078125 374.9296875 c 0
 255.955078125 370.352539062 259.671875 366.635742188 264.249023438 366.635742188 c 0
 268.826171875 366.635742188 272.541992188 370.352539062 272.541992188 374.9296875 c 0
 272.541992188 375.010742188 272.541015625 375.091796875 272.5390625 375.171875 c 2
361.658203125 292.002929688 m 2
 366.25390625 292.133789062 369.9453125 295.905273438 369.9453125 300.533203125 c 0xf863f8
 369.9453125 305.161132812 366.25390625 308.932617188 361.658203125 309.063476562 c 2
 336.787109375 309.063476562 l 2
 332.19140625 308.932617188 328.5 305.16015625 328.5 300.533203125 c 0
 328.5 295.905273438 332.19140625 292.133789062 336.787109375 292.002929688 c 2
 361.658203125 292.002929688 l 2
796.891601562 330.388671875 m 1
 796.891601562 358.112304688 l 1
 948.186523438 358.112304688 l 1
 948.186523438 330.388671875 l 1
 796.891601562 330.388671875 l 1
129.534179688 244.14453125 m 2
 129.533203125 244.067382812 129.547851562 243.955078125 129.547851562 243.877929688 c 0
 129.547851562 222.787109375 137.409179688 203.518554688 150.357421875 188.84375 c 1
 113.8046875 151.232421875 l 2
 113.384765625 150.805664062 112.80078125 150.540039062 112.15625 150.540039062 c 0
 110.879882812 150.540039062 109.84375 151.576171875 109.84375 152.852539062 c 0
 109.84375 152.875 109.84375 152.897460938 109.844726562 152.919921875 c 2
 109.844726562 448.146484375 l 2
 109.84375 448.168945312 109.84375 448.190429688 109.84375 448.212890625 c 0
 109.84375 449.489257812 110.879882812 450.525390625 112.15625 450.525390625 c 0
 112.801757812 450.525390625 113.384765625 450.260742188 113.8046875 449.833984375 c 2
 150.357421875 412.22265625 l 1
 137.409179688 397.548828125 129.533203125 378.245117188 129.533203125 357.154296875 c 0
 129.533203125 357.077148438 129.533203125 356.999023438 129.534179688 356.921875 c 2
 129.534179688 244.14453125 l 2
407.708007812 459.408203125 m 2xf961f8
 408.999023438 459.37109375 410.036132812 458.311523438 410.036132812 457.01171875 c 0
 410.036132812 456.358398438 409.7734375 455.765625 409.348632812 455.333007812 c 2
 372.795898438 417.721679688 l 1
 358.775390625 430.978515625 339.84375 439.12109375 319.05078125 439.1484375 c 2
 209.446289062 439.1484375 l 2
 188.923828125 439.120117188 170.211914062 431.178710938 156.254882812 418.21875 c 1
 120.184570312 455.333007812 l 2
 119.759765625 455.765625 119.498046875 456.359375 119.498046875 457.012695312 c 0
 119.498046875 458.311523438 120.53515625 459.37109375 121.825195312 459.408203125 c 2
 407.708007812 459.408203125 l 2xf961f8
414.692382812 448.768554688 m 2
 415.112304688 449.194335938 415.696289062 449.459960938 416.340820312 449.459960938 c 0
 417.6171875 449.459960938 418.653320312 448.423828125 418.653320312 447.147460938 c 0
 418.653320312 447.125 418.653320312 447.1015625 418.65234375 447.079101562 c 2
 418.65234375 153.985351562 l 2
 418.653320312 153.962890625 418.653320312 153.94140625 418.653320312 153.918945312 c 0
 418.653320312 152.642578125 417.6171875 151.606445312 416.340820312 151.606445312 c 0
 415.696289062 151.606445312 415.112304688 151.87109375 414.692382812 152.297851562 c 2
 378.623046875 189.412109375 l 1
 391.282226562 204.015625 398.963867188 223.103515625 398.963867188 243.928710938 c 2
 398.963867188 244.14453125 l 1
 398.963867188 356.921875 l 2
 398.963867188 356.994140625 398.946289062 357.104492188 398.946289062 357.176757812 c 0
 398.946289062 378.000976562 391.282226562 397.049804688 378.623046875 411.653320312 c 1
 414.692382812 448.768554688 l 2
409.348632812 145.733398438 m 2
 409.7734375 145.30078125 410.03515625 144.70703125 410.03515625 144.053710938 c 0
 410.03515625 142.754882812 408.999023438 141.6953125 407.708007812 141.658203125 c 2
 121.825195312 141.658203125 l 2
 120.53515625 141.6953125 119.497070312 142.754882812 119.497070312 144.053710938 c 0
 119.497070312 144.708007812 119.759765625 145.30078125 120.184570312 145.733398438 c 2
 156.254882812 182.846679688 l 1
 170.211914062 169.88671875 188.923828125 161.9453125 209.446289062 161.916992188 c 2
 319.05078125 161.916992188 l 2
 339.84375 161.944335938 358.775390625 170.086914062 372.795898438 183.34375 c 1
 409.348632812 145.733398438 l 2
629.015625 321.859375 m 1
 780.310546875 321.859375 l 1
 780.310546875 166.18359375 l 1
 629.015625 166.18359375 l 1
 629.015625 321.859375 l 1
704.663085938 196.686523438 m 0
 730.787109375 196.6875 751.997070312 217.897460938 751.997070312 244.021484375 c 0
 751.99609375 270.145507812 730.787109375 291.35546875 704.663085938 291.35546875 c 0
 678.538085938 291.35546875 657.329101562 270.145507812 657.329101562 244.020507812 c 0
 657.329101562 217.896484375 678.538085938 196.686523438 704.663085938 196.686523438 c 0
796.890625 321.859375 m 1
 948.1875 321.859375 l 1
 948.1875 166.18359375 l 1
 796.890625 166.18359375 l 1
 796.890625 321.859375 l 1
872.538085938 196.686523438 m 0
 898.662109375 196.686523438 919.873046875 217.897460938 919.873046875 244.021484375 c 0
 919.872070312 270.145507812 898.663085938 291.35546875 872.538085938 291.35546875 c 0
 846.4140625 291.35546875 825.204101562 270.145507812 825.204101562 244.020507812 c 0
 825.204101562 217.896484375 846.4140625 196.686523438 872.538085938 196.686523438 c 0
EndSplineSet
Validated: 1
EndChar

StartChar: Sega_Mega_Drive
Encoding: 835592 835592 9
Width: 1000
Flags: MW
HStem: 2.78125 157.068 221.908 20.3691 221.908 75.4561 272.842 83.6484 314.273 83.6494 395.125 19.6562
VStem: 124.765 23.3604 298.599 19.0684 378.724 287.521 633.339 83.6934 734.524 83.6611 838.895 83.6631
LayerCount: 2
Fore
SplineSet
222.674804688 414.76953125 m 0xc730
 275.16015625 414.390625 317.666992188 371.676757812 317.666992188 319.102539062 c 0
 317.666992188 318.849609375 317.666015625 318.596679688 317.6640625 318.34375 c 0
 317.6640625 265.119140625 274.426757812 221.908203125 221.202148438 221.908203125 c 0
 167.9765625 221.908203125 124.764648438 265.120117188 124.764648438 318.344726562 c 0
 124.764648438 371.569335938 167.9765625 414.78125 221.202148438 414.78125 c 0
 221.693359375 414.78125 222.184570312 414.77734375 222.674804688 414.76953125 c 0xc730
294.810546875 297.364257812 m 2xa330
 296.907226562 297.40625 298.598632812 299.12109375 298.598632812 301.228515625 c 2
 298.598632812 301.243164062 l 1
 298.598632812 335.568359375 l 2
 298.591796875 337.662109375 296.900390625 339.362304688 294.809570312 339.385742188 c 2
 247.208984375 339.385742188 l 1
 247.1875 339.385742188 l 2
 245.091796875 339.385742188 243.389648438 341.086914062 243.389648438 343.18359375 c 2
 243.389648438 343.203125 l 1
 243.389648438 391.245117188 l 1
 243.389648438 391.2734375 l 2
 243.389648438 393.388671875 241.680664062 395.107421875 239.5703125 395.125 c 2
 205.83984375 395.125 l 2
 203.727539062 395.096679688 202.020507812 393.373046875 202.020507812 391.25390625 c 2
 202.020507812 391.245117188 l 1
 202.020507812 343.265625 l 2
 202.009765625 341.163085938 200.3046875 339.458007812 198.202148438 339.448242188 c 2
 151.944335938 339.448242188 l 2
 149.841796875 339.4375 148.13671875 337.733398438 148.125 335.630859375 c 2
 148.125 301.305664062 l 1
 148.125976562 301.296875 l 2
 148.125976562 299.177734375 149.83203125 297.454101562 151.9453125 297.426757812 c 2
 198.202148438 297.426757812 l 2
 200.3125 297.409179688 202.021484375 295.690429688 202.021484375 293.576171875 c 2
 202.021484375 293.546875 l 1
 202.021484375 246.1875 l 2
 202.021484375 246.18359375 202.022460938 246.178710938 202.022460938 246.174804688 c 0
 202.022460938 244.049804688 203.725585938 242.3203125 205.840820312 242.27734375 c 2
 239.509765625 242.27734375 l 2xc730
 241.622070312 242.309570312 243.329101562 244.034179688 243.329101562 246.154296875 c 2
 243.329101562 246.1875 l 1
 243.329101562 293.484375 l 1
 243.329101562 293.513671875 l 2
 243.329101562 295.627929688 245.037109375 297.346679688 247.147460938 297.364257812 c 2
 294.810546875 297.364257812 l 2xa330
996.4296875 350.869140625 m 0
 998.526367188 335.354492188 999.889648438 320.046875 999.889648438 303.9609375 c 0
 999.889648438 189.016601562 944.59765625 86.8837890625 859.18359375 22.732421875 c 0
 842.866210938 10.2431640625 822.404296875 2.7919921875 800.288085938 2.7919921875 c 0
 790.779296875 2.7919921875 781.587890625 4.1640625 772.90234375 6.72265625 c 0
 741.497070312 17.8955078125 742.841796875 24.2265625 713.263671875 74.501953125 c 0
 694.606445312 111.560546875 660.368164062 139.29296875 619.161132812 149.356445312 c 0
 581.467773438 160.65234375 541.583007812 166.720703125 500.233398438 166.720703125 c 0
 458.73828125 166.720703125 418.658203125 160.608398438 380.84765625 149.235351562 c 0
 339.611328125 139.1953125 305.344726562 111.454101562 286.68359375 74.375 c 0
 257.108398438 24.099609375 258.513671875 17.8955078125 227.07421875 6.5947265625 c 0
 218.448242188 4.09375 209.267578125 2.78125 199.83984375 2.78125 c 0
 177.637695312 2.78125 157.159179688 10.216796875 140.759765625 22.7314453125 c 0
 43.8330078125 98.9453125 -15.5 218.14453125 3.548828125 350.869140625 c 0
 11.7109375 396.555664062 35.2568359375 437.048828125 68.75 466.44140625 c 0
 169.46484375 544.823242188 362.314453125 601.758789062 500.00390625 597.037109375 c 1
 637.666015625 602.079101562 830.658203125 544.494140625 931.291015625 466.380859375 c 0
 964.783203125 437.025390625 988.315429688 396.544921875 996.4296875 350.869140625 c 0
222.674804688 159.849609375 m 0
 309.033203125 161.2109375 378.723632812 231.743164062 378.723632812 318.422851562 c 0x83b0
 378.723632812 405.102539062 309.033203125 475.633789062 222.674804688 476.995117188 c 0
 136.361328125 475.58203125 66.7236328125 405.0703125 66.7236328125 318.421875 c 0
 66.7236328125 231.774414062 136.361328125 161.262695312 222.674804688 159.849609375 c 0
673.423828125 452.07421875 m 2
 669.193359375 450.243164062 666.245117188 446.028320312 666.245117188 441.12890625 c 0
 666.245117188 439.533203125 666.559570312 438.009765625 667.12890625 436.619140625 c 0
 668.885742188 432.518554688 672.962890625 429.65625 677.703125 429.65625 c 0
 679.376953125 429.65625 680.967773438 430.015625 682.403320312 430.66015625 c 2
 746.872070312 458.995117188 l 2
 751.115234375 460.756835938 754.08984375 464.946289062 754.08984375 469.82421875 c 0
 754.08984375 471.442382812 753.76171875 472.985351562 753.166992188 474.388671875 c 0
 751.40234375 478.486328125 747.323242188 481.34375 742.58203125 481.34375 c 0
 740.912109375 481.34375 739.325195312 480.987304688 737.892578125 480.346679688 c 2
 673.423828125 452.07421875 l 2
861.62890625 254.78515625 m 0
 890.609375 267.6953125 927.897460938 274.494140625 945.956054688 303.912109375 c 0
 989.4140625 361.639648438 936.260742188 447.387695312 865.065429688 441.615234375 c 1
 864.821289062 441.677734375 865.434570312 441.615234375 865.065429688 441.615234375 c 1
 833.326171875 440.28515625 802.540039062 433.9375 774.065429688 423.521484375 c 0
 763.243164062 420.1328125 752.443359375 416.081054688 742.166015625 411.573242188 c 0
 713.90234375 400.21875 687.78125 384.641601562 664.625976562 365.579101562 c 0
 621.599609375 330.495117188 592.974609375 313.475585938 589.159179688 260.247070312 c 0
 585.7265625 195.68359375 652.166992188 147.94140625 707.275390625 178.59375 c 0
 723.673828125 188.919921875 740.747070312 198.3984375 758.296875 206.897460938 c 0
 771.375 213.848632812 819.956054688 235.822265625 847.819335938 248.639648438 c 0
 853.807617188 251.24609375 858.560546875 253.517578125 861.62890625 254.78515625 c 0
674.525390625 301.4921875 m 0
 674.747070312 301.49609375 674.969726562 301.497070312 675.192382812 301.497070312 c 0
 698.284179688 301.497070312 717.032226562 282.749023438 717.032226562 259.657226562 c 0
 717.032226562 236.564453125 698.284179688 217.81640625 675.192382812 217.81640625 c 0
 652.099609375 217.81640625 633.3515625 236.564453125 633.3515625 259.657226562 c 1
 633.33984375 259.688476562 l 2
 633.33984375 259.782226562 633.338867188 259.875976562 633.338867188 259.969726562 c 0x8370
 633.338867188 282.7734375 651.765625 301.3046875 674.525390625 301.4921875 c 0
775.717773438 356.485351562 m 0
 775.931640625 356.489257812 776.146484375 356.490234375 776.361328125 356.490234375 c 0
 799.4453125 356.490234375 818.185546875 337.75 818.185546875 314.666015625 c 0
 818.185546875 291.583007812 799.4453125 272.841796875 776.361328125 272.841796875 c 0x9330
 753.283203125 272.841796875 734.534179688 291.575195312 734.526367188 314.651367188 c 0
 734.525390625 314.766601562 734.524414062 314.881835938 734.524414062 314.997070312 c 0
 734.524414062 337.795898438 752.95703125 356.319335938 775.717773438 356.485351562 c 0
880.08203125 397.91796875 m 0
 880.298828125 397.920898438 880.515625 397.922851562 880.732421875 397.922851562 c 0
 903.81640625 397.922851562 922.557617188 379.181640625 922.557617188 356.098632812 c 0
 922.557617188 333.014648438 903.81640625 314.2734375 880.732421875 314.2734375 c 0x8b30
 857.654296875 314.2734375 838.905273438 333.006835938 838.896484375 356.083007812 c 0
 838.895507812 356.219726562 838.89453125 356.356445312 838.89453125 356.494140625 c 0
 838.89453125 379.278320312 857.330078125 397.783203125 880.08203125 397.91796875 c 0
EndSplineSet
Validated: 37
EndChar

StartChar: N64
Encoding: 835593 835593 10
Width: 1000
Flags: MW
HStem: 182.23 102.007 283.194 50.2998 345.869 57.4297 415.659 68.0518 484.981 59.374
VStem: -0.1875 387.554 448.996 102.008 540.188 113.737 736.09 79.9463 799.298 200.875 813.278 62.7666
LayerCount: 2
Fore
SplineSet
448.99609375 233.234375 m 0xbe
 448.99609375 261.40234375 471.83203125 284.237304688 500 284.237304688 c 0
 528.16796875 284.237304688 551.00390625 261.40234375 551.00390625 233.234375 c 0
 551.00390625 205.065429688 528.16796875 182.23046875 500 182.23046875 c 0
 471.83203125 182.23046875 448.99609375 205.065429688 448.99609375 233.234375 c 0xbe
989.370117188 430.456054688 m 0
 996.48828125 386.591796875 1000.17285156 342.848632812 1000.17285156 296.987304688 c 0
 1000.17285156 287.140625 1000.00292969 277.333984375 999.6640625 267.569335938 c 0
 996.73828125 150.384765625 950.518554688 21.9833984375 902.083984375 28.96875 c 0
 865.978515625 34.1767578125 834.102539062 52.7314453125 801.57421875 241.854492188 c 1
 799.297851562 262.849609375 l 1
 799.297851562 262.856445312 l 2
 799.297851562 274.079101562 790.189453125 283.189453125 778.96875 283.194335938 c 0
 777.1796875 283.194335938 688.380859375 293.287109375 669.515625 234.041992188 c 0
 658.092773438 197.88671875 648.577148438 159.950195312 641.541015625 122.065429688 c 2
 606.751953125 -22.0625 l 2
 593.000976562 -79.6962890625 569.303710938 -183.213867188 500.329101562 -184.479492188 c 1
 500.323242188 -184.505859375 l 2
 500.288085938 -184.499023438 500.25390625 -184.49609375 500.216796875 -184.49609375 c 0
 500.180664062 -184.49609375 500.14453125 -184.499023438 500.109375 -184.505859375 c 2
 500.103515625 -184.479492188 l 1
 499.896484375 -184.479492188 l 1
 499.890625 -184.505859375 l 2
 499.85546875 -184.499023438 499.8203125 -184.49609375 499.784179688 -184.49609375 c 0
 499.747070312 -184.49609375 499.711914062 -184.499023438 499.676757812 -184.505859375 c 2
 499.670898438 -184.479492188 l 1
 430.696289062 -183.21484375 406.999023438 -79.6962890625 393.248046875 -22.0625 c 2
 358.458984375 122.065429688 l 2
 351.422851562 159.950195312 341.907226562 197.88671875 330.484375 234.041992188 c 0
 311.619140625 293.287109375 222.8203125 283.194335938 221.03125 283.194335938 c 0x7c40
 209.810546875 283.189453125 200.702148438 274.079101562 200.702148438 262.856445312 c 2
 200.702148438 262.849609375 l 1
 198.42578125 241.854492188 l 1
 165.897460938 52.7314453125 134.021484375 34.1767578125 97.916015625 28.96875 c 0
 49.4814453125 21.9833984375 3.26171875 150.384765625 0.3359375 267.569335938 c 0
 -0.0029296875 277.33203125 -0.1875 285.875 -0.1875 295.719726562 c 0
 -0.1875 341.583007812 3.5126953125 386.58984375 10.6298828125 430.456054688 c 0
 16.474609375 462.71484375 11.400390625 488.590820312 19.3642578125 519.516601562 c 0
 28.8759765625 567.189453125 56.1767578125 608.463867188 94.24609375 635.87890625 c 1
 93.7490234375 635.522460938 93.171875 635.262695312 92.6787109375 634.90234375 c 1
 90.23828125 652.465820312 l 2
 90.4208984375 655.306640625 92.0078125 657.767578125 94.3203125 659.1484375 c 0
 134.224609375 682.515625 187.046875 691.836914062 232.978515625 698.96484375 c 0
 245.369140625 700.887695312 258.064453125 702.85546875 271.087890625 705.212890625 c 2
 287.9140625 708.330078125 l 2
 288.969726562 712.37109375 289.907226562 716.64453125 291.078125 720.872070312 c 0
 295.291992188 751.430664062 406.522460938 785.52734375 500 784.482421875 c 0
 593.477539062 785.52734375 704.708007812 751.430664062 708.921875 720.872070312 c 0
 710.122070312 716.54296875 711.076171875 712.166015625 712.1640625 708.041015625 c 2
 729.177734375 704.889648438 l 2
 742.202148438 702.532226562 754.896484375 700.564453125 767.287109375 698.641601562 c 0
 813.219726562 691.513671875 866.041992188 682.19140625 905.946289062 658.82421875 c 0
 908.258789062 657.444335938 909.845703125 654.983398438 910.02734375 652.142578125 c 2
 907.586914062 634.577148438 l 1
 907.252929688 634.786132812 l 1
 944.529296875 607.362304688 971.233398438 566.55078125 980.635742188 519.516601562 c 0
 988.599609375 488.590820312 983.525390625 462.71484375 989.370117188 430.456054688 c 0
250.551757812 446.703125 m 2
 250.614257812 498.805664062 l 2
 250.588867188 500.140625 249.508789062 501.220703125 248.173828125 501.24609375 c 2
 202.966796875 501.24609375 l 2
 201.61328125 501.286132812 200.525390625 502.396484375 200.525390625 503.758789062 c 0
 200.525390625 503.775390625 200.525390625 503.791992188 200.526367188 503.807617188 c 2
 200.526367188 548.923828125 l 2
 200.48046875 550.303710938 199.3515625 551.413085938 197.963867188 551.423828125 c 2
 145.862304688 551.423828125 l 1
 145.84375 551.423828125 l 2
 144.455078125 551.423828125 143.32421875 550.307617188 143.299804688 548.923828125 c 2
 143.299804688 503.807617188 l 2
 143.295898438 502.462890625 142.204101562 501.37109375 140.859375 501.3671875 c 2
 95.712890625 501.3671875 l 2
 94.359375 501.328125 93.271484375 500.21875 93.271484375 498.85546875 c 0
 93.271484375 498.838867188 93.271484375 498.822265625 93.2724609375 498.805664062 c 2
 93.2724609375 446.704101562 l 2
 93.2763671875 445.358398438 94.3671875 444.267578125 95.712890625 444.263671875 c 2
 140.858398438 444.263671875 l 2
 142.21484375 444.202148438 143.298828125 443.08203125 143.298828125 441.7109375 c 2
 143.298828125 441.701171875 l 1
 143.298828125 396.494140625 l 1
 143.298828125 396.453125 l 2
 143.298828125 395.1015625 144.390625 394.002929688 145.739257812 393.9921875 c 2
 197.962890625 393.9921875 l 2
 199.294921875 394.06640625 200.361328125 395.153320312 200.403320312 396.494140625 c 2
 200.403320312 441.700195312 l 2
 200.443359375 443.053710938 201.553710938 444.141601562 202.916992188 444.141601562 c 2
 202.965820312 444.141601562 l 1
 248.111328125 444.141601562 l 2
 249.46484375 444.180664062 250.552734375 445.291015625 250.552734375 446.653320312 c 0
 250.552734375 446.669921875 250.552734375 446.686523438 250.551757812 446.703125 c 2
500 483.673828125 m 0
 477.8203125 483.673828125 459.8125 465.666015625 459.8125 443.486328125 c 0
 459.8125 421.306640625 477.8203125 403.298828125 500 403.298828125 c 0
 522.1796875 403.298828125 540.1875 421.306640625 540.1875 443.486328125 c 0x3d
 540.1875 465.666015625 522.1796875 483.673828125 500 483.673828125 c 0
500 120.6015625 m 0
 562.1640625 120.6015625 612.6328125 171.0703125 612.633789062 233.234375 c 0
 612.633789062 295.3984375 562.1640625 345.869140625 500 345.869140625 c 0
 437.8359375 345.869140625 387.366210938 295.399414062 387.366210938 233.235351562 c 0
 387.366210938 171.071289062 437.8359375 120.6015625 500 120.6015625 c 0
874.776367188 575.676757812 m 0
 874.776367188 592.963867188 860.741210938 606.999023438 843.454101562 606.999023438 c 0
 826.166992188 606.999023438 812.131835938 592.963867188 812.131835938 575.676757812 c 0
 812.131835938 558.389648438 826.166992188 544.35546875 843.454101562 544.35546875 c 0
 860.741210938 544.35546875 874.775390625 558.389648438 874.776367188 575.676757812 c 0
695.0078125 409.6328125 m 0
 717.681640625 409.6328125 736.08984375 428.041992188 736.08984375 450.715820312 c 0x3d80
 736.08984375 473.389648438 717.681640625 491.798828125 695.0078125 491.798828125 c 0
 672.333007812 491.798828125 653.924804688 473.389648438 653.924804688 450.715820312 c 0
 653.924804688 428.041015625 672.333007812 409.6328125 695.0078125 409.6328125 c 0
768.219726562 333.494140625 m 0x7c
 790.893554688 333.494140625 809.301757812 351.90234375 809.302734375 374.576171875 c 0
 809.302734375 397.25 790.893554688 415.659179688 768.219726562 415.659179688 c 0
 745.545898438 415.659179688 727.137695312 397.25 727.137695312 374.576171875 c 0
 727.137695312 351.90234375 745.545898438 333.494140625 768.219726562 333.494140625 c 0x7c
781.956054688 483.7109375 m 0
 799.243164062 483.7109375 813.278320312 497.74609375 813.278320312 515.033203125 c 0x3c20
 813.278320312 532.3203125 799.243164062 546.35546875 781.956054688 546.35546875 c 0
 764.668945312 546.35546875 750.633789062 532.3203125 750.633789062 515.033203125 c 0
 750.633789062 497.74609375 764.668945312 483.7109375 781.956054688 483.7109375 c 0
847.358398438 422.3359375 m 0
 864.645507812 422.3359375 878.681640625 436.37109375 878.681640625 453.658203125 c 0
 878.681640625 470.946289062 864.646484375 484.981445312 847.358398438 484.981445312 c 0
 830.071289062 484.981445312 816.036132812 470.946289062 816.036132812 453.658203125 c 0x3c80
 816.036132812 436.37109375 830.071289062 422.3359375 847.358398438 422.3359375 c 0
907.3671875 483.7109375 m 0
 924.654296875 483.7109375 938.689453125 497.74609375 938.689453125 515.033203125 c 0
 938.688476562 532.3203125 924.654296875 546.35546875 907.3671875 546.35546875 c 0
 890.080078125 546.35546875 876.044921875 532.3203125 876.044921875 515.033203125 c 0x3c20
 876.044921875 497.74609375 890.080078125 483.7109375 907.3671875 483.7109375 c 0
EndSplineSet
Validated: 33
EndChar

StartChar: NES
Encoding: 835600 835600 11
Width: 1000
Flags: MW
HStem: 81.25 31.25<50.0186 330.444 580.2 950.013> 81.25 66.5312 163.894 43.6992 175.366 20.2031 228.223 42.6641 237.866 62.499 280.226 20.1406 284.956 53.4951 351.605 53.4658 418.135 100.615 456.281 62.4688
VStem: 0 31.2812 155.548 62.5 330.444 29.251 442.337 26.0625 551.071 29.1279 611.328 20.1719 716.125 20.2061 767.581 20.1367 872.375 20.2061 968.75 31.25<131.237 437.543 437.543 437.543>
LayerCount: 2
Fore
SplineSet
623.840820312 300.366210938 m 2x129ff8
 723.818359375 300.366210938 l 2
 730.719726562 300.35546875 736.321289062 294.754882812 736.331054688 287.853515625 c 2
 736.331054688 187.877929688 l 2
 736.3203125 180.977539062 730.719726562 175.376953125 723.818359375 175.366210938 c 2
 623.840820312 175.366210938 l 2
 616.939453125 175.375 611.337890625 180.9765625 611.328125 187.877929688 c 2
 611.328125 287.853515625 l 2
 611.336914062 294.754882812 616.939453125 300.357421875 623.840820312 300.366210938 c 2x129ff8
673.831054688 195.569335938 m 2
 697.17578125 195.584960938 716.125 214.541015625 716.125 237.889648438 c 2
 716.125 237.897460938 l 2
 716.116210938 261.243164062 697.16015625 280.194335938 673.8125 280.194335938 c 0
 650.458984375 280.194335938 631.5 261.234375 631.5 237.881835938 c 0
 631.5 214.529296875 650.458984375 195.569335938 673.8125 195.569335938 c 2
 673.831054688 195.569335938 l 2
780.087890625 300.366210938 m 2
 880.068359375 300.366210938 l 2
 886.969726562 300.35546875 892.571289062 294.754882812 892.581054688 287.853515625 c 2
 892.581054688 187.877929688 l 2
 892.5703125 180.977539062 886.969726562 175.376953125 880.068359375 175.366210938 c 2
 780.087890625 175.366210938 l 2
 773.188476562 175.376953125 767.588867188 180.978515625 767.581054688 187.877929688 c 2
 767.581054688 287.853515625 l 2
 767.588867188 294.75390625 773.188476562 300.35546875 780.087890625 300.366210938 c 2
830.081054688 195.569335938 m 2
 853.419921875 195.581054688 872.365234375 214.52734375 872.375 237.866210938 c 2x149ff8
 872.374023438 237.897460938 l 2
 872.374023438 261.258789062 853.408203125 280.225585938 830.045898438 280.225585938 c 0
 806.684570312 280.225585938 787.717773438 261.258789062 787.717773438 237.897460938 c 0
 787.717773438 214.536132812 806.684570312 195.569335938 830.045898438 195.569335938 c 2
 830.081054688 195.569335938 l 2
280.547851562 244.122070312 m 2
 280.543945312 240.671875 277.743164062 237.87109375 274.291992188 237.866210938 c 2
 224.3046875 237.866210938 l 2
 220.862304688 237.865234375 218.06640625 235.079101562 218.047851562 231.640625 c 2
 218.047851562 181.591796875 l 2
 218.030273438 178.153320312 215.234375 175.3671875 211.791992188 175.366210938 c 2
 161.8046875 175.366210938 l 2
 158.362304688 175.3671875 155.56640625 178.153320312 155.547851562 181.591796875 c 2
 155.547851562 231.640625 l 2
 155.530273438 235.079101562 152.734375 237.865234375 149.291992188 237.866210938 c 2
 99.3046875 237.866210938 l 2
 95.853515625 237.87109375 93.052734375 240.671875 93.0478515625 244.122070312 c 2
 93.0478515625 294.109375 l 2
 93.052734375 297.560546875 95.853515625 300.361328125 99.3046875 300.365234375 c 2
 149.291992188 300.365234375 l 2
 152.743164062 300.370117188 155.543945312 303.170898438 155.547851562 306.622070312 c 2
 155.547851562 356.609375 l 2
 155.552734375 360.060546875 158.353515625 362.861328125 161.8046875 362.865234375 c 2
 211.791992188 362.865234375 l 2
 215.243164062 362.861328125 218.043945312 360.060546875 218.047851562 356.609375 c 2
 218.047851562 306.622070312 l 2
 218.052734375 303.170898438 220.853515625 300.370117188 224.3046875 300.365234375 c 2
 274.291992188 300.365234375 l 2
 277.743164062 300.361328125 280.543945312 297.560546875 280.547851562 294.109375 c 2
 280.547851562 244.122070312 l 2
580.26171875 390.790039062 m 2
 580.26171875 365.887695312 l 2
 580.250976562 358.009765625 573.856445312 351.615234375 565.978515625 351.60546875 c 2
 344.818359375 351.60546875 l 2
 336.940429688 351.615234375 330.545898438 358.009765625 330.53515625 365.887695312 c 2
 330.53515625 390.790039062 l 2
 330.545898438 398.66796875 336.940429688 405.061523438 344.818359375 405.071289062 c 2
 565.978515625 405.071289062 l 2
 573.856445312 405.061523438 580.250976562 398.66796875 580.26171875 390.790039062 c 2
580.200195312 324.169921875 m 2
 580.19921875 299.237304688 l 2
 580.188476562 291.359375 573.794921875 284.965820312 565.91796875 284.956054688 c 2
 344.787109375 284.956054688 l 2
 336.91015625 284.965820312 330.516601562 291.359375 330.505859375 299.237304688 c 2
 330.505859375 324.169921875 l 2
 330.516601562 332.046875 336.91015625 338.440429688 344.787109375 338.451171875 c 2
 565.918945312 338.451171875 l 2x019ff8
 573.795898438 338.440429688 580.189453125 332.046875 580.200195312 324.169921875 c 2
987.487304688 518.75 m 2x80bff8
 994.389648438 518.7421875 999.9921875 513.139648438 1000 506.237304688 c 2
 1000 93.7626953125 l 2
 999.9921875 86.8603515625 994.389648438 81.2578125 987.487304688 81.25 c 2
 12.51171875 81.25 l 2
 5.6103515625 81.2587890625 0.0087890625 86.8603515625 0 93.7626953125 c 2
 0 506.237304688 l 2
 0.0087890625 513.138671875 5.6103515625 518.740234375 12.51171875 518.75 c 2
 987.487304688 518.75 l 2x80bff8
565.91796875 147.78125 m 2x409ff8
 573.787109375 147.747070312 580.168945312 141.36328125 580.200195312 133.494140625 c 2
 580.200195312 112.5 l 1
 950.012695312 112.5 l 2
 960.341796875 112.525390625 968.724609375 120.908203125 968.75 131.237304688 c 2
 968.75 437.54296875 l 2
 968.725585938 447.873046875 960.342773438 456.256835938 950.012695312 456.28125 c 2
 580.26171875 456.28125 l 1x80bff8
 580.26171875 432.416015625 l 2
 580.250976562 424.538085938 573.856445312 418.14453125 565.978515625 418.134765625 c 2
 344.818359375 418.134765625 l 2x00dff8
 336.940429688 418.14453125 330.545898438 424.538085938 330.53515625 432.416015625 c 2
 330.53515625 456.28125 l 1
 50.0185546875 456.28125 l 2
 39.6875 456.256835938 31.3046875 447.873046875 31.28125 437.54296875 c 2
 31.28125 131.237304688 l 2
 31.3056640625 120.907226562 39.6884765625 112.525390625 50.0185546875 112.5 c 2
 330.444335938 112.5 l 1x80bff8
 330.444335938 133.494140625 l 2
 330.453125 141.373046875 336.84765625 147.76953125 344.7265625 147.78125 c 2
 565.91796875 147.78125 l 2x409ff8
565.91796875 270.88671875 m 2x289ff8
 573.795898438 270.875976562 580.189453125 264.481445312 580.19921875 256.603515625 c 2
 580.19921875 178.173828125 l 2
 580.19921875 178.166015625 580.200195312 178.159179688 580.200195312 178.15234375 c 0
 580.200195312 170.283203125 573.810546875 163.893554688 565.94140625 163.893554688 c 2
 565.91796875 163.893554688 l 1
 344.7265625 163.893554688 l 1
 344.703125 163.893554688 l 2
 336.833007812 163.893554688 330.444335938 170.282226562 330.444335938 178.15234375 c 2
 330.444335938 178.173828125 l 1
 330.444335938 256.603515625 l 2
 330.454101562 264.481445312 336.848632812 270.875976562 344.7265625 270.88671875 c 2
 565.91796875 270.88671875 l 2x289ff8
432.022460938 207.592773438 m 2
 437.715820312 207.592773438 442.336914062 212.21484375 442.336914062 217.907226562 c 0
 442.336914062 223.600585938 437.715820312 228.22265625 432.022460938 228.22265625 c 2
 370.010742188 228.22265625 l 2
 364.317382812 228.22265625 359.6953125 223.600585938 359.6953125 217.907226562 c 0
 359.6953125 212.21484375 364.317382812 207.592773438 370.010742188 207.592773438 c 2
 432.022460938 207.592773438 l 2
540.756835938 207.592773438 m 2
 546.450195312 207.592773438 551.071289062 212.21484375 551.071289062 217.907226562 c 0
 551.071289062 223.600585938 546.44921875 228.22265625 540.755859375 228.22265625 c 2
 478.713867188 228.22265625 l 2
 473.021484375 228.22265625 468.399414062 223.600585938 468.399414062 217.907226562 c 0
 468.399414062 212.21484375 473.021484375 207.592773438 478.713867188 207.592773438 c 2
 540.756835938 207.592773438 l 2
EndSplineSet
Validated: 1
EndChar

StartChar: PS1
Encoding: 835601 835601 12
Width: 1000
Flags: MW
HStem: 234.532 69.3818 234.558 282.989 336.784 92.7881 364.073 36.2344 503.84 120.508
VStem: 194.616 36.2334 462.883 77.2188 736.04 108.63
LayerCount: 2
Fore
SplineSet
997.614257812 117.28125 m 1x0f
 998.979492188 107.35546875 999.778320312 97.4248046875 999.997070312 87.1787109375 c 0
 1000.015625 86.6240234375 999.965820312 86.05859375 999.970703125 85.501953125 c 0
 999.953125 84.5068359375 999.922851562 83.548828125 999.872070312 82.6298828125 c 0
 994.0078125 -8.1982421875 872.46875 -61.353515625 807.638671875 11.9833984375 c 1
 807.626953125 11.958984375 l 1
 782.346679688 39.6533203125 706.344726562 172.991210938 675.772460938 223.150390625 c 0
 671.606445312 229.98828125 664.096679688 234.532226562 655.510742188 234.532226562 c 2
 655.4296875 234.532226562 l 1
 344.572265625 234.532226562 l 2x8f
 344.544921875 234.532226562 344.53515625 234.557617188 344.5078125 234.557617188 c 0
 335.921875 234.557617188 328.395507812 229.987304688 324.229492188 223.149414062 c 0
 293.657226562 172.989257812 217.654296875 39.65234375 192.375 11.9580078125 c 1
 192.362304688 11.982421875 l 1
 127.533203125 -61.35546875 5.9931640625 -8.19921875 0.1298828125 82.62890625 c 0
 0.0791015625 83.5478515625 0.048828125 84.505859375 0.03125 85.5009765625 c 0
 0.0361328125 86.0576171875 -0.0126953125 86.623046875 0.0048828125 87.177734375 c 0
 0.22265625 97.423828125 1.0224609375 107.354492188 2.38671875 117.280273438 c 1
 2.361328125 117.290039062 l 1
 2.98828125 121.903320312 4.1171875 129.80078125 4.080078125 129.321289062 c 1
 41.09375 388.420898438 l 1
 44.2822265625 443.612304688 73.7080078125 491.803710938 117.25390625 520.469726562 c 1
 117.25390625 520.469726562 124.793945312 563.692382812 129.291992188 577.5703125 c 0
 131.474609375 584.282226562 135.967773438 589.916015625 141.877929688 593.54296875 c 0
 143.041992188 594.2890625 144.63671875 595.165039062 146.4140625 596.077148438 c 0
 148.943359375 597.375 151.626953125 598.3046875 154.231445312 599.4296875 c 0
 154.633789062 601.856445312 156.271484375 610.319335938 159.954101562 612.745117188 c 0
 175.377929688 620 192.638671875 624.122070312 210.798828125 624.122070312 c 0
 212.177734375 624.122070312 213.55078125 624.098632812 214.91796875 624.052734375 c 0
 217.473632812 624.247070312 220.0703125 624.280273438 222.674804688 624.280273438 c 0
 240.793945312 624.280273438 257.799804688 619.474609375 272.485351562 611.0703125 c 0
 275.204101562 607.325195312 277.0546875 602.842773438 277.697265625 598.040039062 c 0
 281.76953125 596.178710938 285.51953125 593.770507812 288.876953125 590.887695312 c 0
 297.170898438 582.95703125 303.326171875 572.815429688 306.458007812 561.43359375 c 2
 312.94140625 526.171875 l 2
 313.840820312 521.272460938 318.139648438 517.546875 323.296875 517.546875 c 2
 676.703125 517.546875 l 2x47
 681.861328125 517.546875 686.158203125 521.2734375 687.059570312 526.173828125 c 2
 693.54296875 561.435546875 l 2
 696.673828125 572.81640625 702.829101562 582.958007812 711.123046875 590.889648438 c 0
 714.48046875 593.772460938 718.23046875 596.180664062 722.303710938 598.041015625 c 0
 722.946289062 602.84375 724.796875 607.326171875 727.515625 611.0703125 c 0
 742.201171875 619.475585938 759.220703125 624.34765625 777.33984375 624.34765625 c 0
 779.9453125 624.34765625 782.526367188 624.248046875 785.08203125 624.052734375 c 0
 786.44921875 624.099609375 787.86328125 624.056640625 789.2421875 624.056640625 c 0
 807.40234375 624.056640625 824.623046875 620.000976562 840.045898438 612.74609375 c 0
 843.728515625 610.321289062 845.366210938 601.859375 845.768554688 599.430664062 c 0
 848.373046875 598.306640625 851.056640625 597.376953125 853.5859375 596.079101562 c 0
 855.364257812 595.166992188 856.958007812 594.2890625 858.123046875 593.544921875 c 0
 864.03125 589.916992188 868.525390625 584.283203125 870.708007812 577.571289062 c 0
 875.206054688 563.693359375 872 574 882.747070312 520.471679688 c 1
 926.291992188 491.8046875 955.71875 443.614257812 958.90625 388.421875 c 1
 995.919921875 129.322265625 l 1
 995.8828125 129.801757812 997.01171875 121.904296875 997.639648438 117.291015625 c 1
 997.614257812 117.28125 l 1x0f
181.571289062 461.880859375 m 2
 181.571289062 429 l 2
 181.571289062 424.553710938 183.591796875 420.58203125 186.774414062 417.953125 c 2
 204.602539062 403.227539062 l 2
 206.809570312 401.403320312 209.65625 400.307617188 212.741210938 400.307617188 c 0x17
 215.826171875 400.307617188 218.65625 401.403320312 220.864257812 403.227539062 c 2
 238.692382812 417.953125 l 2
 241.875 420.58203125 243.895507812 424.553710938 243.895507812 429 c 2
 243.895507812 461.880859375 l 2
 243.895507812 466.306640625 240.301757812 469.900390625 235.875976562 469.900390625 c 2
 189.590820312 469.900390625 l 2
 185.1640625 469.900390625 181.571289062 466.306640625 181.571289062 461.880859375 c 2
165.923828125 351.028320312 m 2
 170.370117188 351.028320312 174.341796875 353.048828125 176.970703125 356.231445312 c 2
 191.696289062 374.059570312 l 2
 193.520507812 376.267578125 194.616210938 379.114257812 194.616210938 382.198242188 c 0
 194.616210938 385.283203125 193.520507812 388.11328125 191.696289062 390.321289062 c 2
 176.970703125 408.149414062 l 2
 174.341796875 411.33203125 170.370117188 413.352539062 165.923828125 413.352539062 c 2
 133.04296875 413.352539062 l 2
 128.6171875 413.352539062 125.0234375 409.758789062 125.0234375 405.333007812 c 2
 125.0234375 359.047851562 l 2
 125.0234375 354.622070312 128.6171875 351.028320312 133.04296875 351.028320312 c 2
 165.923828125 351.028320312 l 2
243.895507812 302.5 m 2
 243.895507812 335.380859375 l 2
 243.895507812 339.827148438 241.875 343.798828125 238.692382812 346.427734375 c 2
 220.864257812 361.153320312 l 2
 218.65625 362.977539062 215.809570312 364.073242188 212.725585938 364.073242188 c 0
 209.640625 364.073242188 206.809570312 362.977539062 204.602539062 361.153320312 c 2
 186.774414062 346.427734375 l 2
 183.591796875 343.798828125 181.571289062 339.827148438 181.571289062 335.380859375 c 2
 181.571289062 302.5 l 2
 181.571289062 298.07421875 185.1640625 294.479492188 189.590820312 294.479492188 c 2
 235.875976562 294.479492188 l 2
 240.301757812 294.479492188 243.895507812 298.07421875 243.895507812 302.5 c 2
300.442382812 359.046875 m 2
 300.442382812 405.33203125 l 2
 300.442382812 409.758789062 296.849609375 413.3515625 292.422851562 413.3515625 c 2
 259.54296875 413.3515625 l 2
 255.095703125 413.3515625 251.125 411.331054688 248.49609375 408.1484375 c 2
 233.76953125 390.3203125 l 2
 231.946289062 388.11328125 230.849609375 385.266601562 230.849609375 382.181640625 c 0
 230.849609375 379.096679688 231.946289062 376.266601562 233.76953125 374.05859375 c 2
 248.49609375 356.23046875 l 2
 251.125 353.047851562 255.095703125 351.02734375 259.54296875 351.02734375 c 2
 292.422851562 351.02734375 l 2
 296.848632812 351.02734375 300.442382812 354.62109375 300.442382812 359.046875 c 2
462.8828125 308.633789062 m 2
 462.8828125 326.302734375 l 2
 462.8828125 328.907226562 460.767578125 331.022460938 458.162109375 331.022460938 c 2
 421.1328125 331.022460938 l 2
 418.528320312 331.022460938 416.413085938 328.907226562 416.412109375 326.302734375 c 2
 416.412109375 308.633789062 l 2
 416.413085938 306.029296875 418.528320312 303.9140625 421.1328125 303.9140625 c 2
 458.162109375 303.9140625 l 2x87
 460.766601562 303.9140625 462.8828125 306.029296875 462.8828125 308.633789062 c 2
588.6171875 314.04296875 m 2
 590.120117188 314.45703125 591.224609375 315.833984375 591.224609375 317.467773438 c 0
 591.224609375 319.100585938 590.119140625 320.478515625 588.6171875 320.892578125 c 2
 544.59765625 333.010742188 l 2
 544.296875 333.09375 543.98046875 333.137695312 543.654296875 333.137695312 c 0
 541.693359375 333.137695312 540.1015625 331.546875 540.1015625 329.5859375 c 2
 540.1015625 305.348632812 l 2
 540.1015625 303.387695312 541.693359375 301.796875 543.653320312 301.796875 c 0
 543.98046875 301.796875 544.296875 301.840820312 544.59765625 301.923828125 c 2
 588.6171875 314.04296875 l 2
699.540039062 346.05078125 m 0
 719.71875 346.275390625 736.040039062 362.72265625 736.040039062 382.954101562 c 0
 736.040039062 383.028320312 736.0390625 383.103515625 736.0390625 383.177734375 c 0
 736.0390625 403.671875 719.388671875 420.311523438 698.89453125 420.311523438 c 0
 678.399414062 420.311523438 661.760742188 403.672851562 661.760742188 383.178710938 c 0
 661.760742188 362.68359375 678.399414062 346.044921875 698.89453125 346.044921875 c 0
 699.109375 346.044921875 699.325195312 346.046875 699.540039062 346.05078125 c 0
790.779296875 262.521484375 m 0
 810.954101562 262.720703125 827.279296875 279.157226562 827.279296875 299.37890625 c 0
 827.279296875 299.46875 827.279296875 299.559570312 827.278320312 299.650390625 c 0
 827.278320312 320.14453125 810.627929688 336.784179688 790.133789062 336.784179688 c 0x27
 769.638671875 336.784179688 753 320.14453125 753 299.650390625 c 0
 753 279.155273438 769.638671875 262.516601562 790.133789062 262.516601562 c 0
 790.349609375 262.516601562 790.564453125 262.517578125 790.779296875 262.521484375 c 0
790.779296875 429.578125 m 0
 810.954101562 429.77734375 827.279296875 446.212890625 827.279296875 466.434570312 c 0
 827.279296875 466.525390625 827.279296875 466.615234375 827.278320312 466.706054688 c 0
 827.278320312 487.201171875 810.627929688 503.83984375 790.133789062 503.83984375 c 0x2f
 769.638671875 503.83984375 753 487.201171875 753 466.706054688 c 0
 753 446.211914062 769.638671875 429.572265625 790.133789062 429.572265625 c 0
 790.349609375 429.572265625 790.564453125 429.57421875 790.779296875 429.578125 c 0
882.44921875 346.05078125 m 0
 902.624023438 346.25 918.94921875 362.685546875 918.94921875 382.907226562 c 0
 918.94921875 382.997070312 918.948242188 383.087890625 918.948242188 383.177734375 c 0
 918.948242188 403.671875 902.297851562 420.311523438 881.802734375 420.311523438 c 0
 861.30859375 420.311523438 844.669921875 403.672851562 844.669921875 383.178710938 c 0
 844.669921875 362.68359375 861.30859375 346.044921875 881.802734375 346.044921875 c 0
 882.018554688 346.044921875 882.234375 346.046875 882.44921875 346.05078125 c 0
EndSplineSet
Validated: 37
EndChar

StartChar: PS2
Encoding: 835602 835602 13
Width: 1000
Flags: MW
HStem: 113.514 58.6436 190.34 91.2051 308.512 213.766 348.831 82.4824 369.928 41.1533 402.112 120.165 499.675 113.496
VStem: 177.997 45.2959 736.605 114.074 750.544 82.1016
LayerCount: 2
Fore
SplineSet
996.192382812 131.01953125 m 2xc380
 998.521484375 117.259765625 999.734375 103.563476562 999.734375 89.14453125 c 0
 999.734375 83.9140625 999.57421875 78.720703125 999.259765625 73.5693359375 c 0
 998.548828125 63.3662109375 996.001953125 53.5087890625 992.022460938 44.5986328125 c 0
 974.436523438 3.890625 913.329101562 -18.703125 868.899414062 -9.7373046875 c 0
 837.25 -5.1904296875 808.748046875 26.1943359375 795.807617188 44.8671875 c 0
 777.360351562 71.6064453125 730.51953125 156.83203125 729.963867188 157.84375 c 1
 711.260742188 131.0546875 680.2734375 113.646484375 645.153320312 113.646484375 c 0
 597.309570312 113.646484375 557.0078125 146.196289062 545.203125 190.33984375 c 1
 454.982421875 190.33984375 l 1
 443.165039062 146.193359375 402.92578125 113.513671875 355.07421875 113.513671875 c 0
 319.892578125 113.513671875 288.788085938 131.107421875 270.086914062 157.96875 c 1
 270.086914062 157.96875 222.75 71.7998046875 204.193359375 44.900390625 c 0
 191.251953125 26.2265625 162.750976562 -5.1572265625 131.1015625 -9.7041015625 c 0
 86.728515625 -18.68359375 25.5390625 3.9345703125 7.9765625 44.62890625 c 0
 3.998046875 53.541015625 1.4521484375 63.3994140625 0.740234375 73.6025390625 c 0
 0.42578125 78.75390625 0.265625 83.5068359375 0.265625 88.736328125 c 0
 0.265625 103.155273438 1.478515625 117.291992188 3.8076171875 131.052734375 c 1
 3.8759765625 131.059570312 l 1
 17.2705078125 206.5 34.314453125 319.630859375 41.8515625 374.04296875 c 1
 37.8828125 427.240234375 68.1943359375 488.642578125 104.887695312 510.412109375 c 0
 111.919921875 513.64453125 117.403320312 519.587890625 120.041992188 526.924804688 c 0
 122.072265625 533.98046875 126.609375 554.047851562 131.90234375 570.768554688 c 0
 134.857421875 579.88671875 141.16796875 587.452148438 149.428710938 592.016601562 c 1
 149.428710938 597.006835938 l 2
 149.431640625 601.021484375 151.981445312 604.44140625 155.549804688 605.739257812 c 0
 169.504882812 610.553710938 184.453125 613.208984375 200.03515625 613.208984375 c 0
 201.263671875 613.208984375 202.48828125 613.193359375 203.708984375 613.161132812 c 0
 222.182617188 612.9140625 240.080078125 610.1640625 257.0546875 605.291015625 c 0
 260.787109375 604.140625 263.502929688 600.665039062 263.502929688 596.556640625 c 2
 263.502929688 596.477539062 l 1
 263.502929688 592.676757812 l 1
 263.432617188 592.7109375 263.419921875 592.634765625 263.354492188 592.661132812 c 1
 277.596679688 585.643554688 278.249023438 575.240234375 281.081054688 563.063476562 c 0
 286.499023438 539.764648438 280.43359375 522.541992188 313.092773438 522.125 c 2
 318.40234375 522.125 l 1
 312.806640625 522.27734375 l 1xe180
 686.608398438 522.27734375 l 2xc580
 719.268554688 522.693359375 713.202148438 539.916015625 718.62109375 563.21484375 c 0
 721.46875 575.461914062 722.123046875 585.909179688 736.60546875 592.928710938 c 1
 736.60546875 596.477539062 l 1
 736.60546875 596.552734375 l 2
 736.60546875 600.662109375 739.321289062 604.140625 743.0546875 605.29296875 c 0
 760.028320312 610.166015625 777.92578125 612.916015625 796.400390625 613.163085938 c 0
 797.618164062 613.1953125 798.813476562 613.170898438 800.0390625 613.170898438 c 0
 815.624023438 613.170898438 830.6015625 610.555664062 844.55859375 605.741210938 c 0
 848.127929688 604.443359375 850.676757812 601.0234375 850.6796875 597.008789062 c 2
 850.6796875 591.921875 l 1
 858.745117188 587.345703125 864.896484375 579.885742188 867.797851562 570.919921875 c 0
 873.092773438 554.200195312 877.62890625 534.1328125 879.66015625 527.077148438 c 0
 882.297851562 519.740234375 887.782226562 513.797851562 894.813476562 510.564453125 c 2
 895.03515625 510.416992188 l 1
 895.099609375 510.413085938 l 1
 931.765625 488.66015625 962.0546875 427.333007812 958.139648438 374.1640625 c 1
 958.360351562 374.043945312 l 1
 965.686523438 322.267578125 981.438476562 214.047851562 994.74609375 140.34765625 c 2
 996.192382812 131.01953125 l 2xc380
177.364257812 463.776367188 m 1
 177.364257812 429.504882812 l 1
 177.364257812 429.504882812 178.25 428.70703125 179.439453125 427.78515625 c 2
 198.577148438 411.81640625 l 2
 199.1484375 411.356445312 199.879882812 411.081054688 200.669921875 411.081054688 c 0xc9
 201.459960938 411.081054688 202.186523438 411.356445312 202.7578125 411.81640625 c 2
 221.833984375 427.78515625 l 2
 222.993164062 428.70703125 223.87890625 429.504882812 223.87890625 429.504882812 c 1
 223.87890625 463.776367188 l 1
 223.87890625 463.833007812 l 2
 223.87890625 465.286132812 222.704101562 466.467773438 221.25390625 466.478515625 c 2
 180.05078125 466.478515625 l 2
 178.567382812 466.47265625 177.364257812 465.266601562 177.364257812 463.782226562 c 2
 177.364257812 463.776367188 l 1
161.372070312 366.427734375 m 2
 177.2421875 385.65234375 l 2
 177.713867188 386.229492188 177.997070312 386.970703125 177.997070312 387.7734375 c 0
 177.997070312 388.575195312 177.713867188 389.3125 177.2421875 389.889648438 c 2
 161.372070312 409.11328125 l 2
 160.42578125 410.28125 159.693359375 411.203125 159.693359375 411.203125 c 1
 125.5703125 411.203125 l 1
 125.564453125 411.203125 l 2
 124.0859375 411.203125 122.884765625 410.002929688 122.884765625 408.5234375 c 2
 122.884765625 408.5 l 1
 122.884765625 367.104492188 l 2
 122.883789062 367.083007812 122.8828125 367.063476562 122.8828125 367.041992188 c 0
 122.8828125 365.583984375 124.06640625 364.400390625 125.524414062 364.400390625 c 0
 125.540039062 364.400390625 125.555664062 364.400390625 125.5703125 364.401367188 c 2
 159.693359375 364.401367188 l 1
 159.693359375 364.401367188 160.42578125 365.321289062 161.372070312 366.427734375 c 2
223.87890625 317.231445312 m 1
 223.87890625 351.502929688 l 1
 223.87890625 351.502929688 222.994140625 352.301757812 221.833984375 353.284179688 c 2
 202.7578125 369.192382812 l 2
 202.186523438 369.65234375 201.455078125 369.927734375 200.665039062 369.927734375 c 0
 199.875 369.927734375 199.149414062 369.65234375 198.577148438 369.192382812 c 2
 179.440429688 353.284179688 l 2
 178.25 352.301757812 177.365234375 351.502929688 177.365234375 351.502929688 c 1
 177.365234375 317.231445312 l 2
 177.383789062 315.754882812 178.575195312 314.556640625 180.05078125 314.528320312 c 2
 221.25390625 314.528320312 l 2
 222.708007812 314.561523438 223.87890625 315.751953125 223.87890625 317.213867188 c 2
 223.87890625 317.231445312 l 1
278.450195312 367.104492188 m 1
 278.451171875 408.5 l 2
 278.431640625 409.977539062 277.239257812 411.174804688 275.763671875 411.203125 c 2
 241.641601562 411.203125 l 1
 241.641601562 411.203125 240.817382812 410.28125 239.87109375 409.11328125 c 2
 224.000976562 389.889648438 l 2
 223.556640625 389.30078125 223.29296875 388.561523438 223.29296875 387.768554688 c 0
 223.29296875 386.974609375 223.556640625 386.241210938 224.000976562 385.65234375 c 2
 239.87109375 366.427734375 l 2
 240.817382812 365.321289062 241.641601562 364.401367188 241.641601562 364.401367188 c 1
 275.762695312 364.401367188 l 2
 277.247070312 364.40625 278.450195312 365.61328125 278.450195312 367.098632812 c 2
 278.450195312 367.104492188 l 1
353.256835938 172.158203125 m 0
 390.670898438 172.276367188 421.013671875 202.68359375 421.013671875 240.125 c 0
 421.013671875 240.1953125 421.013671875 240.265625 421.012695312 240.3359375 c 0
 421.012695312 277.962890625 390.456054688 308.51171875 352.828125 308.51171875 c 0xe1
 315.200195312 308.51171875 284.650390625 277.962890625 284.650390625 240.333984375 c 0
 284.650390625 202.706054688 315.200195312 172.157226562 352.828125 172.157226562 c 0
 352.970703125 172.157226562 353.114257812 172.157226562 353.256835938 172.158203125 c 0
435.205078125 371.923828125 m 2
 435.205078125 400.176757812 l 2
 435.159179688 401.25 434.274414062 402.108398438 433.190429688 402.112304688 c 2
 389.576171875 402.112304688 l 2xc5
 388.538085938 402.068359375 387.705078125 401.220703125 387.68359375 400.176757812 c 2
 387.68359375 371.923828125 l 2
 387.705078125 370.880859375 388.538085938 370.034179688 389.576171875 369.990234375 c 2
 433.190429688 369.990234375 l 2
 434.274414062 369.993164062 435.158203125 370.8515625 435.205078125 371.923828125 c 2
520.296875 283.142578125 m 1
 520.296875 307.158203125 l 1
 520.297851562 307.161132812 l 2
 520.297851562 308.041992188 519.583007812 308.755859375 518.703125 308.755859375 c 0
 518.684570312 308.755859375 518.666992188 308.755859375 518.6484375 308.754882812 c 2
 481.53515625 308.754882812 l 2
 481.512695312 308.755859375 481.491210938 308.756835938 481.46875 308.756835938 c 0
 480.612304688 308.756835938 479.916992188 308.061523438 479.916992188 307.205078125 c 0
 479.916992188 307.189453125 479.916992188 307.173828125 479.91796875 307.158203125 c 2
 479.91796875 283.142578125 l 2
 479.916992188 283.127929688 479.916015625 283.112304688 479.916015625 283.096679688 c 0
 479.916015625 282.240234375 480.611328125 281.544921875 481.467773438 281.544921875 c 0
 481.490234375 281.544921875 481.512695312 281.545898438 481.53515625 281.546875 c 2
 518.6484375 281.546875 l 2
 518.666992188 281.545898438 518.684570312 281.545898438 518.702148438 281.545898438 c 0
 519.58203125 281.545898438 520.296875 282.259765625 520.296875 283.140625 c 2
 520.296875 283.142578125 l 1
563.850585938 372.814453125 m 2
 563.850585938 371.556640625 564.705078125 371.00390625 565.680664062 371.279296875 c 2
 611.889648438 386.634765625 l 2
 612.8671875 386.971679688 612.8671875 387.525390625 611.889648438 387.955078125 c 2
 565.680664062 403.279296875 l 2
 565.543945312 403.32421875 565.397460938 403.350585938 565.245117188 403.350585938 c 0
 564.47265625 403.350585938 563.845703125 402.723632812 563.845703125 401.951171875 c 0
 563.845703125 401.912109375 563.84765625 401.874023438 563.850585938 401.8359375 c 2
 563.850585938 372.814453125 l 2
642.408203125 172.158203125 m 0
 679.819335938 172.25390625 710.166015625 202.651367188 710.166015625 240.084960938 c 2
 710.166015625 240.3359375 l 2
 710.165039062 277.962890625 679.608398438 308.51171875 641.98046875 308.51171875 c 0xe1
 604.352539062 308.51171875 573.803710938 277.962890625 573.803710938 240.333984375 c 0
 573.803710938 202.706054688 604.352539062 172.157226562 641.98046875 172.157226562 c 0
 642.123046875 172.157226562 642.265625 172.158203125 642.408203125 172.158203125 c 0
716.602539062 353.986328125 m 0
 735.362304688 354.16015625 750.543945312 369.4453125 750.543945312 388.245117188 c 2
 750.543945312 388.259765625 l 2xc140
 750.509765625 407.112304688 735.188476562 422.409179688 716.327148438 422.409179688 c 0
 697.4453125 422.409179688 682.116210938 407.079101562 682.116210938 388.197265625 c 0
 682.116210938 369.315429688 697.4453125 353.985351562 716.327148438 353.985351562 c 0
 716.418945312 353.985351562 716.510742188 353.986328125 716.602539062 353.986328125 c 0
793.399414062 280.408203125 m 0
 812.147460938 280.528320312 827.334960938 295.783203125 827.334960938 314.559570312 c 0
 827.334960938 314.599609375 827.334960938 314.639648438 827.333984375 314.6796875 c 0
 827.30078125 333.533203125 811.978515625 348.831054688 793.1171875 348.831054688 c 0xd1
 774.235351562 348.831054688 758.90625 333.500976562 758.90625 314.619140625 c 0
 758.90625 295.737304688 774.235351562 280.407226562 793.1171875 280.407226562 c 0
 793.211914062 280.407226562 793.305664062 280.408203125 793.399414062 280.408203125 c 0
793.399414062 431.313476562 m 2
 812.142578125 431.397460938 827.333984375 446.638671875 827.333984375 465.400390625 c 2
 827.333984375 465.463867188 l 1
 827.330078125 465.494140625 l 2
 827.330078125 484.359375 812.013671875 499.674804688 793.1484375 499.674804688 c 0xd3
 774.284179688 499.674804688 758.967773438 484.359375 758.967773438 465.494140625 c 0
 758.967773438 446.62890625 774.284179688 431.313476562 793.1484375 431.313476562 c 2
 793.399414062 431.313476562 l 2
867.131835938 353.987304688 m 0
 885.885742188 354.119140625 901.073242188 369.383789062 901.073242188 388.16796875 c 2
 901.073242188 388.259765625 l 2
 901.0390625 407.11328125 885.717773438 422.409179688 866.857421875 422.409179688 c 0
 847.975585938 422.409179688 832.645507812 407.080078125 832.645507812 388.198242188 c 0xc140
 832.645507812 369.31640625 847.975585938 353.986328125 866.857421875 353.986328125 c 0
 866.94921875 353.986328125 867.040039062 353.986328125 867.131835938 353.987304688 c 0
EndSplineSet
Validated: 33
EndChar

StartChar: PS3
Encoding: 835603 835603 14
Width: 1000
Flags: MW
HStem: 113.514 58.6436 190.34 78.1309 308.512 213.766 348.831 82.4824 369.928 41.1533 402.112 120.165 499.675 113.496
VStem: 177.997 45.2959 421.013 46.3564 532.3 41.5039 736.605 114.074 750.545 82.1006
LayerCount: 2
Fore
SplineSet
996.192382812 131.01953125 m 2xc3e0
 998.521484375 117.259765625 999.734375 103.563476562 999.734375 89.14453125 c 0
 999.734375 83.9140625 999.57421875 78.720703125 999.259765625 73.5693359375 c 0
 998.548828125 63.3662109375 996.001953125 53.5087890625 992.022460938 44.5986328125 c 0
 974.436523438 3.890625 913.329101562 -18.703125 868.899414062 -9.7373046875 c 0
 837.25 -5.1904296875 808.748046875 26.1943359375 795.807617188 44.8671875 c 0
 777.360351562 71.6064453125 730.51953125 156.83203125 729.963867188 157.84375 c 1
 711.260742188 131.0546875 680.2734375 113.646484375 645.153320312 113.646484375 c 0
 597.309570312 113.646484375 557.0078125 146.196289062 545.203125 190.33984375 c 1
 454.982421875 190.33984375 l 1
 443.165039062 146.193359375 402.92578125 113.513671875 355.07421875 113.513671875 c 0
 319.892578125 113.513671875 288.788085938 131.107421875 270.086914062 157.96875 c 1
 270.086914062 157.96875 222.75 71.7998046875 204.193359375 44.900390625 c 0
 191.251953125 26.2265625 162.750976562 -5.1572265625 131.1015625 -9.7041015625 c 0
 86.728515625 -18.68359375 25.5390625 3.9345703125 7.9765625 44.62890625 c 0
 3.998046875 53.541015625 1.4521484375 63.3994140625 0.740234375 73.6025390625 c 0
 0.42578125 78.75390625 0.265625 83.5068359375 0.265625 88.736328125 c 0
 0.265625 103.155273438 1.478515625 117.291992188 3.8076171875 131.052734375 c 1
 3.8759765625 131.059570312 l 1
 17.2705078125 206.5 34.314453125 319.630859375 41.8515625 374.04296875 c 1
 37.8828125 427.240234375 68.1943359375 488.642578125 104.887695312 510.412109375 c 0
 111.919921875 513.64453125 117.403320312 519.587890625 120.041992188 526.924804688 c 0
 122.072265625 533.98046875 126.609375 554.047851562 131.90234375 570.768554688 c 0
 134.857421875 579.88671875 141.16796875 587.452148438 149.428710938 592.016601562 c 1
 149.428710938 597.006835938 l 2
 149.431640625 601.021484375 151.981445312 604.44140625 155.549804688 605.739257812 c 0
 169.504882812 610.553710938 184.453125 613.208984375 200.03515625 613.208984375 c 0
 201.263671875 613.208984375 202.48828125 613.193359375 203.708984375 613.161132812 c 0
 222.182617188 612.9140625 240.080078125 610.1640625 257.0546875 605.291015625 c 0
 260.787109375 604.140625 263.502929688 600.665039062 263.502929688 596.556640625 c 2
 263.502929688 596.477539062 l 1
 263.502929688 592.676757812 l 1
 263.432617188 592.7109375 263.419921875 592.634765625 263.354492188 592.661132812 c 1
 277.596679688 585.643554688 278.249023438 575.240234375 281.081054688 563.063476562 c 0
 286.499023438 539.764648438 280.43359375 522.541992188 313.092773438 522.125 c 2
 318.40234375 522.125 l 1
 312.806640625 522.27734375 l 1xe1e0
 686.608398438 522.27734375 l 2xc5e0
 719.268554688 522.693359375 713.202148438 539.916015625 718.62109375 563.21484375 c 0
 721.46875 575.461914062 722.123046875 585.909179688 736.60546875 592.928710938 c 1
 736.60546875 596.477539062 l 1
 736.60546875 596.552734375 l 2
 736.60546875 600.662109375 739.321289062 604.140625 743.0546875 605.29296875 c 0
 760.028320312 610.166015625 777.92578125 612.916015625 796.400390625 613.163085938 c 0
 797.618164062 613.1953125 798.813476562 613.170898438 800.0390625 613.170898438 c 0
 815.624023438 613.170898438 830.6015625 610.555664062 844.55859375 605.741210938 c 0
 848.127929688 604.443359375 850.676757812 601.0234375 850.6796875 597.008789062 c 2
 850.6796875 591.921875 l 1
 858.745117188 587.345703125 864.896484375 579.885742188 867.797851562 570.919921875 c 0
 873.092773438 554.200195312 877.62890625 534.1328125 879.66015625 527.077148438 c 0
 882.297851562 519.740234375 887.782226562 513.797851562 894.813476562 510.564453125 c 2
 895.03515625 510.416992188 l 1
 895.099609375 510.413085938 l 1
 931.765625 488.66015625 962.0546875 427.333007812 958.139648438 374.1640625 c 1
 958.360351562 374.043945312 l 1
 965.686523438 322.267578125 981.438476562 214.047851562 994.74609375 140.34765625 c 2
 996.192382812 131.01953125 l 2xc3e0
177.364257812 463.776367188 m 1
 177.364257812 429.504882812 l 1
 177.364257812 429.504882812 178.25 428.70703125 179.439453125 427.78515625 c 2
 198.577148438 411.81640625 l 2
 199.1484375 411.356445312 199.879882812 411.081054688 200.669921875 411.081054688 c 0xc9c0
 201.459960938 411.081054688 202.186523438 411.356445312 202.7578125 411.81640625 c 2
 221.833984375 427.78515625 l 2
 222.993164062 428.70703125 223.87890625 429.504882812 223.87890625 429.504882812 c 1
 223.87890625 463.776367188 l 1
 223.87890625 463.833007812 l 2
 223.87890625 465.286132812 222.704101562 466.467773438 221.25390625 466.478515625 c 2
 180.05078125 466.478515625 l 2
 178.567382812 466.47265625 177.364257812 465.266601562 177.364257812 463.782226562 c 2
 177.364257812 463.776367188 l 1
161.372070312 366.427734375 m 2
 177.2421875 385.65234375 l 2
 177.713867188 386.229492188 177.997070312 386.970703125 177.997070312 387.7734375 c 0
 177.997070312 388.575195312 177.713867188 389.3125 177.2421875 389.889648438 c 2
 161.372070312 409.11328125 l 2
 160.42578125 410.28125 159.693359375 411.203125 159.693359375 411.203125 c 1
 125.5703125 411.203125 l 1
 125.564453125 411.203125 l 2
 124.0859375 411.203125 122.884765625 410.002929688 122.884765625 408.5234375 c 2
 122.884765625 408.5 l 1
 122.884765625 367.104492188 l 2
 122.883789062 367.083007812 122.8828125 367.063476562 122.8828125 367.041992188 c 0
 122.8828125 365.583984375 124.06640625 364.400390625 125.524414062 364.400390625 c 0
 125.540039062 364.400390625 125.555664062 364.400390625 125.5703125 364.401367188 c 2
 159.693359375 364.401367188 l 1
 159.693359375 364.401367188 160.42578125 365.321289062 161.372070312 366.427734375 c 2
223.87890625 317.231445312 m 1
 223.87890625 351.502929688 l 1
 223.87890625 351.502929688 222.994140625 352.301757812 221.833984375 353.284179688 c 2
 202.7578125 369.192382812 l 2
 202.186523438 369.65234375 201.455078125 369.927734375 200.665039062 369.927734375 c 0
 199.875 369.927734375 199.149414062 369.65234375 198.577148438 369.192382812 c 2
 179.440429688 353.284179688 l 2
 178.25 352.301757812 177.365234375 351.502929688 177.365234375 351.502929688 c 1
 177.365234375 317.231445312 l 2
 177.383789062 315.754882812 178.575195312 314.556640625 180.05078125 314.528320312 c 2
 221.25390625 314.528320312 l 2
 222.708007812 314.561523438 223.87890625 315.751953125 223.87890625 317.213867188 c 2
 223.87890625 317.231445312 l 1
278.450195312 367.104492188 m 1
 278.451171875 408.5 l 2
 278.431640625 409.977539062 277.239257812 411.174804688 275.763671875 411.203125 c 2
 241.641601562 411.203125 l 1
 241.641601562 411.203125 240.817382812 410.28125 239.87109375 409.11328125 c 2
 224.000976562 389.889648438 l 2
 223.556640625 389.30078125 223.29296875 388.561523438 223.29296875 387.768554688 c 0
 223.29296875 386.974609375 223.556640625 386.241210938 224.000976562 385.65234375 c 2
 239.87109375 366.427734375 l 2
 240.817382812 365.321289062 241.641601562 364.401367188 241.641601562 364.401367188 c 1
 275.762695312 364.401367188 l 2
 277.247070312 364.40625 278.450195312 365.61328125 278.450195312 367.098632812 c 2
 278.450195312 367.104492188 l 1
353.256835938 172.158203125 m 0
 390.670898438 172.276367188 421.013671875 202.68359375 421.013671875 240.125 c 0
 421.013671875 240.1953125 421.013671875 240.265625 421.012695312 240.3359375 c 0
 421.012695312 277.962890625 390.456054688 308.51171875 352.828125 308.51171875 c 0xe1c0
 315.200195312 308.51171875 284.650390625 277.962890625 284.650390625 240.333984375 c 0
 284.650390625 202.706054688 315.200195312 172.157226562 352.828125 172.157226562 c 0
 352.970703125 172.157226562 353.114257812 172.157226562 353.256835938 172.158203125 c 0
435.205078125 371.923828125 m 2
 435.205078125 400.176757812 l 2
 435.159179688 401.25 434.274414062 402.108398438 433.190429688 402.112304688 c 2
 389.576171875 402.112304688 l 2xc5c0
 388.538085938 402.068359375 387.705078125 401.220703125 387.68359375 400.176757812 c 2
 387.68359375 371.923828125 l 2
 387.705078125 370.880859375 388.538085938 370.034179688 389.576171875 369.990234375 c 2
 433.190429688 369.990234375 l 2
 434.274414062 369.993164062 435.158203125 370.8515625 435.205078125 371.923828125 c 2
500.069335938 268.470703125 m 2
 517.869140625 268.54296875 532.299804688 283.014648438 532.299804688 300.830078125 c 0
 532.299804688 300.865234375 532.299804688 300.899414062 532.298828125 300.93359375 c 0
 532.298828125 318.849609375 517.749023438 333.395507812 499.83203125 333.395507812 c 0
 481.916015625 333.395507812 467.369140625 318.849609375 467.369140625 300.932617188 c 0
 467.369140625 283.016601562 481.916015625 268.470703125 499.83203125 268.470703125 c 2
 500.069335938 268.470703125 l 2
563.850585938 372.814453125 m 2
 563.850585938 371.556640625 564.705078125 371.00390625 565.681640625 371.279296875 c 2
 611.890625 386.634765625 l 2
 612.868164062 386.971679688 612.868164062 387.525390625 611.890625 387.955078125 c 2
 565.681640625 403.279296875 l 2
 565.543945312 403.32421875 565.397460938 403.350585938 565.245117188 403.350585938 c 0
 564.473632812 403.350585938 563.846679688 402.723632812 563.846679688 401.951171875 c 0
 563.846679688 401.912109375 563.84765625 401.874023438 563.850585938 401.8359375 c 2
 563.850585938 372.814453125 l 2
642.408203125 172.158203125 m 0
 679.819335938 172.25390625 710.166015625 202.651367188 710.166015625 240.084960938 c 2
 710.166015625 240.3359375 l 2
 710.165039062 277.962890625 679.608398438 308.51171875 641.98046875 308.51171875 c 0xe1c0
 604.352539062 308.51171875 573.803710938 277.962890625 573.803710938 240.333984375 c 0
 573.803710938 202.706054688 604.352539062 172.157226562 641.98046875 172.157226562 c 0
 642.123046875 172.157226562 642.265625 172.158203125 642.408203125 172.158203125 c 0
716.602539062 353.986328125 m 0
 735.362304688 354.16015625 750.544921875 369.4453125 750.544921875 388.245117188 c 2
 750.544921875 388.259765625 l 2xc1d0
 750.510742188 407.112304688 735.188476562 422.409179688 716.328125 422.409179688 c 0
 697.446289062 422.409179688 682.116210938 407.079101562 682.116210938 388.197265625 c 0
 682.116210938 369.315429688 697.446289062 353.985351562 716.328125 353.985351562 c 0
 716.419921875 353.985351562 716.51171875 353.986328125 716.602539062 353.986328125 c 0
793.399414062 280.408203125 m 0
 812.147460938 280.528320312 827.334960938 295.783203125 827.334960938 314.559570312 c 2
 827.334960938 314.6796875 l 2
 827.30078125 333.533203125 811.979492188 348.831054688 793.118164062 348.831054688 c 0xd1c0
 774.236328125 348.831054688 758.90625 333.500976562 758.90625 314.619140625 c 0
 758.90625 295.737304688 774.236328125 280.407226562 793.118164062 280.407226562 c 0
 793.211914062 280.407226562 793.305664062 280.408203125 793.399414062 280.408203125 c 0
793.399414062 431.313476562 m 2
 812.142578125 431.397460938 827.334960938 446.638671875 827.334960938 465.400390625 c 2
 827.334960938 465.463867188 l 1
 827.330078125 465.494140625 l 2
 827.330078125 484.359375 812.013671875 499.674804688 793.149414062 499.674804688 c 0xd3c0
 774.284179688 499.674804688 758.967773438 484.359375 758.967773438 465.494140625 c 0
 758.967773438 446.62890625 774.284179688 431.313476562 793.149414062 431.313476562 c 2
 793.399414062 431.313476562 l 2
867.1328125 353.987304688 m 0
 885.88671875 354.119140625 901.07421875 369.3828125 901.07421875 388.16796875 c 2
 901.07421875 388.259765625 l 2
 901.040039062 407.11328125 885.717773438 422.409179688 866.857421875 422.409179688 c 0
 847.975585938 422.409179688 832.645507812 407.080078125 832.645507812 388.198242188 c 0xc1d0
 832.645507812 369.31640625 847.975585938 353.986328125 866.857421875 353.986328125 c 0
 866.94921875 353.986328125 867.041015625 353.986328125 867.1328125 353.987304688 c 0
EndSplineSet
Validated: 33
EndChar

StartChar: PS4
Encoding: 835604 835604 15
Width: 1000
Flags: MW
HStem: 184.965 37.918 212.771 56.7578 323.959 60.1572 346.382 37.7344 382.435 79.1768 398.696 181.613 412.591 18.5879 507.177 107.184 531.642 82.7129 550.077 30.3389
VStem: 175.835 18.6133 215.386 112.508 270.867 57.0264 311.414 16.4795 400.22 72.5381 527.188 73.0322 672.106 16.542 672.106 34.8662 776.598 78.1533
LayerCount: 2
Fore
SplineSet
638.234375 398.749023438 m 2x042320
 361.768554688 398.696289062 l 1
 361.765625 398.696289062 l 2
 351.822265625 398.696289062 343.75 406.76953125 343.75 416.711914062 c 2
 343.75 572.508789062 l 2
 343.75 576.814453125 347.24609375 580.309570312 351.551757812 580.309570312 c 2
 648.44921875 580.291015625 l 2
 652.754882812 580.291015625 656.25 576.794921875 656.25 572.490234375 c 2
 656.25 416.767578125 l 2
 656.25 406.82421875 648.177734375 398.750976562 638.234375 398.749023438 c 2x042320
970.208007812 355.905273438 m 1
 984.87109375 293.1875 1044.45898438 29.935546875 937.5703125 -6.9619140625 c 0
 892.49609375 -22.521484375 843.119140625 -16.7998046875 808.68359375 41.248046875 c 0
 783.046875 89.5791015625 761.321289062 141.426757812 744.733398438 194.466796875 c 0
 742.459960938 200.171875 738.09765625 204.779296875 732.55859375 207.365234375 c 0
 731.403320312 208.161132812 729.993164062 208.62890625 728.486328125 208.62890625 c 0
 726.7265625 208.62890625 725.114257812 207.994140625 723.866210938 206.94140625 c 0
 706.100585938 193.165039062 683.6484375 184.952148438 659.448242188 184.952148438 c 0
 634.434570312 184.952148438 611.452148438 193.717773438 593.407226562 208.341796875 c 0
 590.1875 211.099609375 585.999023438 212.770507812 581.431640625 212.770507812 c 2
 581.32421875 212.770507812 l 1
 419.33984375 212.770507812 l 2x50a3a0
 419.09765625 212.780273438 418.854492188 212.780273438 418.610351562 212.780273438 c 0
 414.022460938 212.780273438 409.822265625 211.110351562 406.584960938 208.345703125 c 0
 388.540039062 193.721679688 365.405273438 184.96484375 340.392578125 184.96484375 c 0
 316.19140625 184.96484375 293.891601562 193.169921875 276.125 206.947265625 c 0
 271.873046875 210.912109375 266.393554688 206.94140625 262.70703125 204.25390625 c 0
 259.217773438 201.956054688 256.571289062 198.525390625 255.258789062 194.47265625 c 0
 238.670898438 141.43359375 216.944335938 89.5859375 191.30859375 41.25390625 c 0
 156.872070312 -16.79296875 107.494140625 -22.51953125 62.421875 -6.9560546875 c 0
 -44.4833984375 29.958984375 15.162109375 293.161132812 29.78515625 355.909179688 c 1
 29.7080078125 355.846679688 l 1
 29.7080078125 355.846679688 35.6103515625 383.888671875 52.0908203125 442.428710938 c 0
 68.5712890625 500.96875 78.408203125 519.909179688 84.3125 528.024414062 c 0
 90.216796875 536.140625 109.399414062 568.856445312 109.399414062 568.856445312 c 1
 109.45703125 568.413085938 l 1
 113.456054688 576.1953125 115.19921875 584.381835938 128.83203125 587.556640625 c 0
 129.366210938 589.735351562 127.603515625 595.7109375 130.481445312 596.831054688 c 0
 150.198242188 607.508789062 172.859375 613.856445312 196.71875 614.360351562 c 0x8123a0
 215.359375 614.171875 233.349609375 610.87109375 250.0546875 605.036132812 c 0
 255.758789062 603.473632812 253.276367188 593.599609375 253.783203125 589.510742188 c 1
 264.05078125 590.744140625 270.2109375 579.928710938 280.251953125 580.416015625 c 0
 280.251953125 580.416992188 306.6640625 580.416992188 320.161132812 580.416992188 c 2
 320.245117188 580.416992188 l 2
 324.465820312 580.416992188 327.893554688 576.990234375 327.893554688 572.768554688 c 2
 327.893554688 572.762695312 l 2x0067a0
 327.880859375 540.557617188 327.920898438 417.723632812 327.893554688 417.690429688 c 0
 327.919921875 399.168945312 342.955078125 384.13671875 361.477539062 384.116210938 c 2
 638.533203125 384.065429688 l 1
 638.540039062 384.065429688 l 2
 657.065429688 384.065429688 672.106445312 399.10546875 672.106445312 417.631835938 c 2x106b60
 672.106445312 572.538085938 l 2
 672.106445312 576.80859375 675.568359375 580.278320312 679.8359375 580.290039062 c 2
 719.73828125 580.411132812 l 2
 729.77734375 579.922851562 735.942382812 590.73828125 746.20703125 589.505859375 c 1
 746.857421875 593.625 744.14453125 603.446289062 749.9375 605.029296875 c 0
 766.640625 610.865234375 784.630859375 614.166015625 803.270507812 614.354492188 c 0x10a3a0
 827.130859375 613.8515625 849.791015625 607.502929688 869.508789062 596.825195312 c 0
 872.306640625 595.732421875 870.78515625 589.69140625 871.158203125 587.551757812 c 0
 884.791992188 584.375976562 886.53515625 576.189453125 890.533203125 568.407226562 c 1
 890.590820312 568.849609375 l 1
 890.590820312 568.849609375 909.775390625 536.135742188 915.6796875 528.01953125 c 0
 921.583007812 519.903320312 931.422851562 500.963867188 947.901367188 442.423828125 c 0
 964.380859375 383.8828125 970.284179688 355.842773438 970.284179688 355.842773438 c 1
 970.208007812 355.905273438 l 1
156.790039062 492.536132812 m 2
 156.790039062 461.188476562 l 2
 156.790039062 461.166992188 156.791015625 461.142578125 156.791015625 461.120117188 c 0
 156.791015625 460.1171875 157.1328125 459.192382812 157.706054688 458.45703125 c 2
 157.766601562 458.395507812 l 2
 157.982421875 458.067382812 158.248046875 457.782226562 158.560546875 457.544921875 c 2
 182.669921875 432.576171875 l 2
 183.549804688 431.711914062 184.758789062 431.178710938 186.088867188 431.178710938 c 0
 187.418945312 431.178710938 188.625 431.711914062 189.505859375 432.576171875 c 2
 213.615234375 457.544921875 l 2
 213.926757812 457.783203125 214.19140625 458.067382812 214.407226562 458.395507812 c 2
 214.469726562 458.45703125 l 2
 215.04296875 459.192382812 215.385742188 460.119140625 215.385742188 461.123046875 c 2
 215.385742188 461.188476562 l 1
 215.385742188 492.536132812 l 2
 215.385742188 500.615234375 202.262695312 507.176757812 186.087890625 507.176757812 c 0x033320
 169.912109375 507.176757812 156.790039062 500.615234375 156.790039062 492.536132812 c 2
148.489257812 393.698242188 m 2
 148.798828125 393.915039062 149.064453125 394.178710938 149.282226562 394.48828125 c 2
 174.369140625 418.483398438 l 2
 175.271484375 419.336914062 175.834960938 420.545898438 175.834960938 421.884765625 c 0
 175.834960938 423.224609375 175.271484375 424.432617188 174.369140625 425.287109375 c 2
 149.282226562 449.283203125 l 2
 149.064453125 449.591796875 148.798828125 449.85546875 148.489257812 450.072265625 c 2
 148.427734375 450.1328125 l 1
 148.3671875 450.1328125 l 2
 147.640625 450.703125 146.724609375 451.045898438 145.729492188 451.045898438 c 0
 145.693359375 451.045898438 145.65625 451.045898438 145.620117188 451.044921875 c 2
 114.125 451.044921875 l 2
 106.006835938 451.044921875 99.4140625 437.984375 99.4140625 421.885742188 c 0
 99.4140625 405.787109375 106.006835938 392.725585938 114.125 392.725585938 c 2
 145.620117188 392.725585938 l 2
 145.65625 392.724609375 145.693359375 392.725585938 145.729492188 392.725585938 c 0
 146.724609375 392.725585938 147.640625 393.06640625 148.3671875 393.63671875 c 2
 148.427734375 393.63671875 l 1
 148.489257812 393.698242188 l 2
215.385742188 351.173828125 m 2
 215.384765625 382.581054688 l 2
 215.385742188 382.603515625 215.383789062 382.627929688 215.383789062 382.649414062 c 0
 215.383789062 383.654296875 215.041992188 384.579101562 214.469726562 385.315429688 c 2
 214.407226562 385.375976562 l 2
 214.19140625 385.704101562 213.92578125 385.98828125 213.614257812 386.2265625 c 2
 189.504882812 411.193359375 l 2
 188.625 412.057617188 187.416015625 412.590820312 186.0859375 412.590820312 c 0
 184.755859375 412.590820312 183.549804688 412.057617188 182.668945312 411.193359375 c 2
 158.559570312 386.2265625 l 2
 158.248046875 385.98828125 157.982421875 385.704101562 157.766601562 385.375976562 c 2
 157.705078125 385.315429688 l 2
 157.1328125 384.579101562 156.7890625 383.651367188 156.7890625 382.647460938 c 0
 156.7890625 382.625 156.7890625 382.603515625 156.790039062 382.581054688 c 2
 156.790039062 351.173828125 l 2
 156.790039062 343.154296875 169.913085938 336.59375 186.087890625 336.59375 c 0
 202.26171875 336.59375 215.385742188 343.154296875 215.385742188 351.173828125 c 2
256.158203125 392.725585938 m 2
 264.275390625 392.725585938 270.8671875 405.788085938 270.8671875 421.885742188 c 0x002b20
 270.8671875 437.984375 264.275390625 451.044921875 256.158203125 451.044921875 c 2
 224.662109375 451.044921875 l 2
 224.638671875 451.044921875 224.612304688 451.04296875 224.587890625 451.04296875 c 0
 223.563476562 451.04296875 222.616210938 450.704101562 221.854492188 450.1328125 c 2
 221.79296875 450.072265625 l 2
 221.483398438 449.85546875 221.217773438 449.591796875 221 449.283203125 c 2
 195.9140625 425.287109375 l 2
 195.01171875 424.432617188 194.448242188 423.224609375 194.448242188 421.884765625 c 0
 194.448242188 420.545898438 195.01171875 419.336914062 195.9140625 418.483398438 c 2
 221.000976562 394.48828125 l 2
 221.21875 394.178710938 221.484375 393.915039062 221.793945312 393.698242188 c 2
 221.85546875 393.63671875 l 2
 222.618164062 393.065429688 223.567382812 392.724609375 224.592773438 392.724609375 c 0
 224.616210938 392.724609375 224.639648438 392.725585938 224.663085938 392.725585938 c 2
 256.158203125 392.725585938 l 2
277.154296875 532.14453125 m 2
 277.154296875 510.638671875 l 2
 277.141601562 510.375 277.13671875 510.110351562 277.13671875 509.84375 c 0
 277.13671875 500.384765625 284.815429688 492.705078125 294.275390625 492.705078125 c 0
 303.734375 492.705078125 311.4140625 500.384765625 311.4140625 509.84375 c 0
 311.4140625 510.110351562 311.407226562 510.375 311.395507812 510.638671875 c 2
 311.395507812 532.14453125 l 2
 311.407226562 532.407226562 311.413085938 532.671875 311.413085938 532.938476562 c 0
 311.413085938 542.397460938 303.733398438 550.077148438 294.274414062 550.077148438 c 0x006720
 284.815429688 550.077148438 277.135742188 542.397460938 277.135742188 532.938476562 c 0
 277.135742188 532.671875 277.141601562 532.407226562 277.154296875 532.14453125 c 2
399.454101562 275.176757812 m 0
 399.919921875 278.235351562 400.219726562 281.30859375 400.219726562 284.498046875 c 0
 400.219726562 318.65234375 372.490234375 346.381835938 338.3359375 346.381835938 c 0
 335.002929688 346.381835938 331.732421875 346.1171875 328.541992188 345.609375 c 0
 299.142578125 340.86328125 276.603515625 315.401367188 276.603515625 284.670898438 c 0
 276.603515625 250.569335938 304.290039062 222.8828125 338.391601562 222.8828125 c 0x902320
 369.265625 222.8828125 394.880859375 245.575195312 399.454101562 275.176757812 c 0
499.903320312 269.528320312 m 0x602320
 514.927734375 269.528320312 527.177734375 281.721679688 527.1875 296.744140625 c 0
 527.1875 311.764648438 514.994140625 323.958984375 499.973632812 323.958984375 c 0
 484.952148438 323.958984375 472.7578125 311.764648438 472.7578125 296.743164062 c 0
 472.7578125 281.74609375 484.915039062 269.565429688 499.903320312 269.528320312 c 0x602320
688.666992188 532.14453125 m 2
 688.666992188 510.638671875 l 2
 688.654296875 510.365234375 688.6484375 510.090820312 688.6484375 509.814453125 c 0x0023a0
 688.6484375 500.373046875 696.313476562 492.70703125 705.755859375 492.70703125 c 0
 715.197265625 492.70703125 722.862304688 500.373046875 722.862304688 509.814453125 c 0
 722.862304688 510.090820312 722.856445312 510.365234375 722.842773438 510.638671875 c 2
 722.842773438 532.14453125 l 2
 722.856445312 532.41796875 722.862304688 532.694335938 722.862304688 532.971679688 c 0
 722.862304688 542.413085938 715.197265625 550.079101562 705.754882812 550.079101562 c 0
 696.313476562 550.079101562 688.647460938 542.413085938 688.647460938 532.971679688 c 0
 688.647460938 532.694335938 688.654296875 532.41796875 688.666992188 532.14453125 c 2
723.073242188 275.180664062 m 0
 723.5390625 278.23828125 723.838867188 281.310546875 723.838867188 284.498046875 c 0
 723.838867188 318.65234375 696.110351562 346.380859375 661.956054688 346.380859375 c 0
 658.620117188 346.380859375 655.344726562 346.116210938 652.151367188 345.607421875 c 0
 622.754882812 340.857421875 600.219726562 315.397460938 600.219726562 284.668945312 c 0
 600.219726562 250.56640625 627.90625 222.87890625 662.008789062 222.87890625 c 0
 692.885742188 222.87890625 718.502929688 245.575195312 723.073242188 275.180664062 c 0
775.474609375 413.518554688 m 0
 776.21484375 416.34375 776.59765625 419.297851562 776.59765625 422.354492188 c 0
 776.59765625 441.567382812 760.998046875 457.166992188 741.78515625 457.166992188 c 0
 722.571289062 457.166992188 706.97265625 441.567382812 706.97265625 422.354492188 c 0x002360
 706.97265625 403.140625 722.571289062 387.541992188 741.78515625 387.541992188 c 0
 744.666992188 387.541992188 747.467773438 387.892578125 750.146484375 388.553710938 c 0
 762.513671875 391.551757812 772.3046875 401.219726562 775.474609375 413.518554688 c 0
779.7421875 505.192382812 m 0
 778.969726562 502.321289062 778.543945312 499.318359375 778.543945312 496.205078125 c 0
 778.543945312 477.112304688 794.044921875 461.611328125 813.137695312 461.611328125 c 0
 816.327148438 461.611328125 819.416015625 462.043945312 822.349609375 462.852539062 c 0
 837.428710938 466.729492188 848.603515625 480.407226562 848.603515625 496.689453125 c 0
 848.603515625 515.98046875 832.94140625 531.641601562 813.651367188 531.641601562 c 0x08a320
 797.291992188 531.641601562 783.543945312 520.379882812 779.7421875 505.192382812 c 0
848.923828125 339.0625 m 0
 849.614257812 341.796875 849.971679688 344.6484375 849.971679688 347.596679688 c 0
 849.971679688 366.82421875 834.361328125 382.434570312 815.133789062 382.434570312 c 0
 795.90625 382.434570312 780.295898438 366.82421875 780.295898438 347.596679688 c 0
 780.295898438 328.369140625 795.90625 312.758789062 815.133789062 312.758789062 c 0
 818.178710938 312.758789062 821.133789062 313.150390625 823.950195312 313.885742188 c 0
 836.220703125 317.0234375 845.881835938 326.752929688 848.923828125 339.0625 c 0
923.301757812 413.74609375 m 0
 924.004882812 416.502929688 924.369140625 419.380859375 924.369140625 422.356445312 c 0
 924.369140625 441.567382812 908.771484375 457.165039062 889.559570312 457.165039062 c 0
 870.348632812 457.165039062 854.750976562 441.567382812 854.750976562 422.356445312 c 0
 854.750976562 403.14453125 870.348632812 387.546875 889.559570312 387.546875 c 0
 892.561523438 387.546875 895.474609375 387.927734375 898.25390625 388.643554688 c 0
 910.532226562 391.756835938 920.213867188 401.45703125 923.301757812 413.74609375 c 0
EndSplineSet
Validated: 33
EndChar

StartChar: PS5
Encoding: 835605 835605 16
Width: 1000
Flags: MW
HStem: 199.848 44.4023 361.854 30.4717 400.172 82.1602 407.985 216.437 427.506 27.6865 473.723 54.6543 522.934 109.285 573.635 35.2451
VStem: 174.569 28.1035 301.887 395.574 525.499 76.4727 771.018 81.5283
LayerCount: 2
Fore
SplineSet
315.26171875 510.668945312 m 1xd0d0
 304.432617188 562.252929688 l 2
 302.764648438 567.59375 301.88671875 573.328125 301.88671875 579.215820312 c 0
 301.88671875 591.092773438 305.545898438 602.122070312 311.796875 611.237304688 c 0
 314.096679688 613.645507812 316.876953125 615.559570312 320.004882812 616.84765625 c 0
 353.60546875 626.020507812 430.548828125 624.42578125 499.663085938 624.421875 c 1
 499.663085938 624.399414062 l 1
 568.778320312 624.404296875 645.721679688 625.998046875 679.322265625 616.826171875 c 0
 682.44921875 615.538085938 685.23046875 613.624023438 687.529296875 611.21484375 c 0
 693.78125 602.100585938 697.4609375 591.014648438 697.4609375 579.13671875 c 0
 697.4609375 573.25 696.561523438 567.572265625 694.893554688 562.231445312 c 2
 684.064453125 510.646484375 l 1
 679.075195312 487.422851562 l 2
 677.930664062 482.021484375 676.870117188 476.795898438 675.86328125 471.829101562 c 0
 673.719726562 461.231445312 671.819335938 451.786132812 669.69921875 444.165039062 c 0
 659.658203125 408.123046875 618.177734375 408.458984375 615.98828125 407.962890625 c 2
 383.338867188 407.985351562 l 2
 381.149414062 408.481445312 339.66796875 408.145507812 329.627929688 444.186523438 c 0
 327.506835938 451.80859375 325.607421875 461.25390625 323.463867188 471.850585938 c 0
 322.456054688 476.817382812 321.395507812 482.043945312 320.250976562 487.4453125 c 2
 315.26171875 510.668945312 l 1xd0d0
999.998046875 158.911132812 m 1
 999.998046875 158.911132812 1000.71484375 53.515625 973.112304688 14.0830078125 c 0
 953.35546875 -14.1416015625 935.80078125 -20.5068359375 927.418945312 -21.8525390625 c 0
 913.30078125 -24.119140625 874.27734375 -30.41015625 865.28125 -31.8603515625 c 0
 859.643554688 -32.0595703125 857.251953125 -29.1044921875 853.377929688 -22.8408203125 c 0
 835.573242188 12.41796875 819.459960938 49.4384765625 805.69921875 86.85546875 c 0
 782.3984375 148.874023438 775.586914062 183.288085938 727.908203125 199.779296875 c 0
 720.694335938 202.028320312 713.059570312 203.625976562 705.323242188 204.438476562 c 0
 694.028320312 204.038085938 677.250976562 199.390625 666.088867188 199.103515625 c 0
 627.813476562 198.333007812 612.313476562 200.565429688 546.33984375 199.868164062 c 1
 546.3359375 199.779296875 l 1
 546.3359375 199.779296875 526.455078125 199.821289062 500 199.84765625 c 0
 473.544921875 199.821289062 453.665039062 199.779296875 453.665039062 199.779296875 c 1
 453.661132812 199.868164062 l 1
 387.713867188 200.565429688 372.1640625 198.333007812 333.912109375 199.103515625 c 0
 322.696289062 199.396484375 306.017578125 204.03125 294.677734375 204.438476562 c 0
 286.94140625 203.625976562 279.306640625 202.028320312 272.092773438 199.779296875 c 0
 224.4140625 183.288085938 217.602539062 148.874023438 194.301757812 86.85546875 c 0
 180.541015625 49.4384765625 164.426757812 12.41796875 146.623046875 -22.8408203125 c 0
 142.743164062 -29.091796875 140.36328125 -32.07421875 134.71875 -31.8603515625 c 0
 125.72265625 -30.41015625 86.69921875 -24.1181640625 72.5810546875 -21.8525390625 c 0
 64.19921875 -20.5068359375 46.6455078125 -14.1416015625 26.8876953125 14.0830078125 c 0
 -0.71484375 53.515625 0.001953125 158.911132812 0.001953125 158.911132812 c 1
 0.1572265625 158.9375 l 2
 0.1572265625 159.255859375 0.138671875 158.818359375 0.138671875 159.13671875 c 0
 0.138671875 204.125976562 3.896484375 248.244140625 11.1142578125 291.194335938 c 0
 26.76171875 391.95703125 58.7763671875 489.412109375 103.362304688 577.194335938 c 1
 104.380859375 578.639648438 l 2
 108.229492188 583.34765625 115.751953125 583.444335938 121.064453125 584.9921875 c 1
 123.321289062 600.56640625 l 1
 137.380859375 618.001953125 180.146484375 628.720703125 196.452148438 630.6796875 c 0
 203.21875 631.701171875 209.934570312 632.21875 216.984375 632.21875 c 0xc290
 227.9296875 632.21875 238.579101562 630.94140625 248.791992188 628.529296875 c 0
 253.809570312 627.572265625 253.809570312 624.705078125 253.809570312 624.705078125 c 1
 255.844726562 608.879882812 l 1
 255.850585938 608.879882812 l 2xc190
 269.184570312 608.551757812 280.265625 599.008789062 282.965820312 586.397460938 c 2
 299.987304688 507.374023438 l 1
 304.961914062 484.1953125 l 2
 306.10546875 478.83984375 307.151367188 473.674804688 308.142578125 468.74609375 c 0
 310.393554688 457.637695312 312.338867188 448.040039062 314.58203125 439.991210938 c 0
 324.029296875 412.271484375 350.249023438 392.325195312 381.1484375 392.325195312 c 0
 381.904296875 392.325195312 382.657226562 392.336914062 383.407226562 392.360351562 c 2
 616.500976562 392.329101562 l 1
 617.111328125 392.329101562 l 2
 617.764648438 392.311523438 618.370117188 392.290039062 619.028320312 392.290039062 c 0
 649.87109375 392.290039062 676.083007812 412.274414062 685.409179688 439.990234375 c 0
 687.66796875 448.0625 689.60546875 457.690429688 691.864257812 468.836914062 c 1
 691.868164062 468.842773438 l 2
 692.853515625 473.747070312 693.89453125 478.880859375 695.032226562 484.208007812 c 2
 700.006835938 507.38671875 l 1
 717.028320312 586.411132812 l 2
 719.728515625 599.021484375 730.809570312 608.564453125 744.143554688 608.892578125 c 2
 744.149414062 608.892578125 l 1
 746.184570312 624.717773438 l 1
 746.184570312 624.717773438 746.184570312 627.5859375 751.203125 628.541992188 c 0
 761.415039062 630.955078125 771.853515625 632.244140625 782.798828125 632.244140625 c 0
 789.848632812 632.244140625 796.775390625 631.71484375 803.541992188 630.692382812 c 1
 803.547851562 630.680664062 l 1
 819.868164062 628.71484375 862.603515625 618.008789062 876.678710938 600.56640625 c 1
 878.935546875 584.9921875 l 1
 884.244140625 583.446289062 891.775390625 583.345703125 895.619140625 578.639648438 c 2
 896.637695312 577.194335938 l 1
 941.223632812 489.411132812 973.237304688 391.956054688 988.884765625 291.192382812 c 0
 996.103515625 248.244140625 999.842773438 204.883789062 999.842773438 159.896484375 c 2
 999.842773438 158.9375 l 1
 999.998046875 158.911132812 l 1
174.041992188 521.619140625 m 0
 167.311523438 520.657226562 162.073242188 514.986328125 161.791992188 508.060546875 c 2
 161.791992188 508.060546875 162.279296875 495.155273438 163.165039062 486.362304688 c 2
 163.4140625 482.4375 l 2
 163.559570312 478.3203125 165.412109375 474.62890625 168.29296875 472.069335938 c 0
 172.806640625 466.774414062 182.318359375 457.2265625 183.7578125 456.434570312 c 0
 185.198242188 455.643554688 186.872070312 455.192382812 188.629882812 455.192382812 c 0xca90
 190.387695312 455.192382812 192.040039062 455.643554688 193.48046875 456.434570312 c 2
 193.48046875 456.434570312 204.432617188 466.774414062 208.946289062 472.069335938 c 0
 211.827148438 474.629882812 213.678710938 478.3203125 213.825195312 482.4375 c 2
 214.07421875 486.362304688 l 2
 214.958984375 495.154296875 215.727539062 501.135742188 215.446289062 508.060546875 c 0
 215.165039062 514.986328125 209.927734375 520.657226562 203.198242188 521.619140625 c 0
 198.400390625 522.330078125 193.575195312 522.771484375 188.620117188 522.93359375 c 0
 183.6640625 522.771484375 178.83984375 522.331054688 174.041992188 521.619140625 c 0
147.32421875 415.477539062 m 2
 151.442382812 415.623046875 155.1328125 417.475585938 157.693359375 420.35546875 c 0
 162.987304688 424.870117188 172.536132812 434.381835938 173.327148438 435.821289062 c 0
 174.119140625 437.26171875 174.569335938 438.935546875 174.569335938 440.693359375 c 0
 174.569335938 442.451171875 174.119140625 444.104492188 173.327148438 445.543945312 c 2
 173.327148438 445.543945312 162.987304688 456.49609375 157.692382812 461.009765625 c 0
 155.1328125 463.890625 151.442382812 465.743164062 147.32421875 465.888671875 c 2
 143.400390625 466.13671875 l 2
 134.607421875 467.022460938 128.626953125 467.790039062 121.701171875 467.509765625 c 0
 114.775390625 467.228515625 109.10546875 461.991210938 108.142578125 455.26171875 c 0
 107.431640625 450.462890625 106.990234375 445.638671875 106.829101562 440.68359375 c 0
 106.990234375 435.727539062 107.431640625 430.903320312 108.142578125 426.10546875 c 0
 109.104492188 419.375 114.775390625 414.13671875 121.701171875 413.856445312 c 2
 121.701171875 413.856445312 134.607421875 414.34375 143.400390625 415.229492188 c 2
 147.32421875 415.477539062 l 2
203.69921875 361.079101562 m 0
 210.4296875 362.040039062 215.66796875 367.711914062 215.948242188 374.637695312 c 2
 215.948242188 374.637695312 215.4609375 387.54296875 214.575195312 396.3359375 c 2
 214.328125 400.26171875 l 2
 214.181640625 404.37890625 212.329101562 408.069335938 209.448242188 410.62890625 c 0
 204.934570312 415.924804688 195.422851562 425.47265625 193.983398438 426.264648438 c 0
 192.54296875 427.055664062 190.868164062 427.505859375 189.111328125 427.505859375 c 0
 187.353515625 427.505859375 185.700195312 427.055664062 184.259765625 426.264648438 c 2
 184.259765625 426.264648438 173.30859375 415.924804688 168.794921875 410.62890625 c 0
 165.9140625 408.069335938 164.061523438 404.37890625 163.915039062 400.26171875 c 2
 163.66796875 396.336914062 l 2
 162.782226562 387.543945312 162.015625 381.563476562 162.294921875 374.637695312 c 0
 162.575195312 367.711914062 167.813476562 362.041015625 174.54296875 361.079101562 c 0
 179.340820312 360.368164062 184.166015625 359.926757812 189.12109375 359.764648438 c 0
 194.077148438 359.926757812 198.901367188 360.368164062 203.69921875 361.079101562 c 0
269.098632812 426.10546875 m 0
 269.809570312 430.903320312 270.250976562 435.727539062 270.413085938 440.68359375 c 0
 270.250976562 445.638671875 269.810546875 450.463867188 269.098632812 455.26171875 c 0
 268.13671875 461.991210938 262.465820312 467.229492188 255.540039062 467.509765625 c 2
 255.540039062 467.509765625 242.633789062 467.022460938 233.841796875 466.137695312 c 2
 229.916992188 465.889648438 l 2
 225.798828125 465.743164062 222.108398438 463.890625 219.548828125 461.010742188 c 0
 214.25390625 456.49609375 204.706054688 446.984375 203.9140625 445.544921875 c 0
 203.123046875 444.104492188 202.672851562 442.430664062 202.672851562 440.672851562 c 0
 202.672851562 438.915039062 203.123046875 437.26171875 203.9140625 435.822265625 c 2
 203.9140625 435.822265625 214.25390625 424.870117188 219.549804688 420.356445312 c 0
 222.109375 417.475585938 225.799804688 415.623046875 229.916992188 415.477539062 c 2
 233.841796875 415.229492188 l 2
 242.633789062 414.34375 248.614257812 413.576171875 255.540039062 413.856445312 c 0
 262.465820312 414.137695312 268.13671875 419.375 269.098632812 426.10546875 c 0
270.043945312 528.897460938 m 0
 275.279296875 529.930664062 279.240234375 534.541992188 279.240234375 540.078125 c 0
 279.240234375 540.836914062 279.166015625 541.579101562 279.024414062 542.296875 c 2
 274.66015625 564.40625 l 2
 273.634765625 569.65234375 269.009765625 573.634765625 263.465820312 573.634765625 c 0xc190
 257.170898438 573.634765625 252.060546875 568.5234375 252.060546875 562.228515625 c 0
 252.060546875 561.461914062 252.135742188 560.712890625 252.28125 559.98828125 c 2
 256.645507812 537.87890625 l 2
 257.6796875 532.643554688 262.291015625 528.681640625 267.827148438 528.681640625 c 0
 268.584960938 528.681640625 269.326171875 528.755859375 270.043945312 528.897460938 c 0
396.95703125 292.377929688 m 0
 397.685546875 296.051757812 398.112304688 299.803710938 398.112304688 303.690429688 c 0
 398.112304688 335.791992188 372.05078125 361.853515625 339.950195312 361.853515625 c 0
 336.063476562 361.853515625 332.264648438 361.471679688 328.590820312 360.743164062 c 0
 301.973632812 355.432617188 281.84375 331.962890625 281.84375 303.79296875 c 0
 281.84375 271.716796875 307.885742188 245.67578125 339.961914062 245.67578125 c 0
 368.130859375 245.67578125 391.646484375 265.759765625 396.95703125 292.377929688 c 0
519.5546875 244.25 m 2
 522.838867188 244.266601562 525.499023438 246.9375 525.499023438 250.224609375 c 0xc0b0
 525.499023438 253.51171875 522.838867188 256.182617188 519.5546875 256.19921875 c 2
 480.337890625 256.19921875 l 1
 480.306640625 256.19921875 l 2
 477.009765625 256.19921875 474.33203125 253.522460938 474.33203125 250.224609375 c 0
 474.33203125 246.926757812 477.009765625 244.25 480.306640625 244.25 c 2
 480.337890625 244.25 l 1
 519.5546875 244.25 l 2
723.823242188 564.106445312 m 2
 719.458984375 541.99609375 l 2
 719.315429688 541.274414062 719.240234375 540.545898438 719.240234375 539.782226562 c 0
 719.240234375 533.487304688 724.350585938 528.376953125 730.645507812 528.376953125 c 0xc490
 736.186523438 528.376953125 740.810546875 532.336914062 741.837890625 537.578125 c 2
 746.203125 559.6875 l 2
 746.344726562 560.405273438 746.418945312 561.12890625 746.418945312 561.887695312 c 0
 746.418945312 568.182617188 741.30859375 573.293945312 735.013671875 573.293945312 c 0
 729.477539062 573.293945312 724.857421875 569.340820312 723.823242188 564.106445312 c 2
717.084960938 292.377929688 m 0
 717.813476562 296.051757812 718.241210938 299.8046875 718.241210938 303.69140625 c 0
 718.241210938 335.791992188 692.1796875 361.853515625 660.078125 361.853515625 c 0
 656.19140625 361.853515625 652.392578125 361.471679688 648.71875 360.743164062 c 0
 622.1015625 355.432617188 601.971679688 331.962890625 601.971679688 303.79296875 c 0xc0b0
 601.971679688 271.716796875 628.013671875 245.67578125 660.08984375 245.67578125 c 0
 688.258789062 245.67578125 711.774414062 265.759765625 717.084960938 292.377929688 c 0
769.892578125 433.143554688 m 0
 770.6171875 435.82421875 771.017578125 438.630859375 771.017578125 441.540039062 c 0
 771.017578125 459.301757812 756.596679688 473.72265625 738.834960938 473.72265625 c 0xc490
 735.92578125 473.72265625 733.107421875 473.3359375 730.426757812 472.611328125 c 0
 716.427734375 469.021484375 706.051757812 456.325195312 706.051757812 441.212890625 c 0
 706.051757812 423.315429688 720.58203125 408.78515625 738.478515625 408.78515625 c 0
 753.590820312 408.78515625 766.301757812 419.14453125 769.892578125 433.143554688 c 0
843.141601562 359.59375 m 0
 843.866210938 362.2734375 844.265625 365.079101562 844.265625 367.986328125 c 0
 844.265625 385.75 829.84375 400.171875 812.080078125 400.171875 c 0xe090
 809.172851562 400.171875 806.354492188 399.786132812 803.674804688 399.061523438 c 0
 789.674804688 395.471679688 779.298828125 382.775390625 779.298828125 367.663085938 c 0
 779.298828125 349.765625 793.830078125 335.235351562 811.727539062 335.235351562 c 0
 826.83984375 335.235351562 839.55078125 345.594726562 843.141601562 359.59375 c 0
843.143554688 506.698242188 m 0
 843.8671875 509.376953125 844.266601562 512.1796875 844.266601562 515.0859375 c 0
 844.266601562 532.848632812 829.844726562 547.270507812 812.08203125 547.270507812 c 0
 809.174804688 547.270507812 806.357421875 546.883789062 803.677734375 546.16015625 c 0
 789.67578125 542.571289062 779.298828125 529.874023438 779.298828125 514.759765625 c 0
 779.298828125 496.862304688 793.829101562 482.33203125 811.7265625 482.33203125 c 0
 826.841796875 482.33203125 839.555664062 492.6953125 843.143554688 506.698242188 c 0
916.388671875 433.138671875 m 0
 917.114257812 435.821289062 917.515625 438.629882812 917.515625 441.541992188 c 0
 917.515625 459.303710938 903.095703125 473.723632812 885.333984375 473.723632812 c 0
 882.421875 473.723632812 879.599609375 473.3359375 876.916015625 472.609375 c 0
 862.918945312 469.016601562 852.545898438 456.322265625 852.545898438 441.211914062 c 0
 852.545898438 423.313476562 867.077148438 408.783203125 884.974609375 408.783203125 c 0
 900.0859375 408.783203125 912.796875 419.140625 916.388671875 433.138671875 c 0
EndSplineSet
Validated: 33
EndChar

StartChar: Sega_Saturn
Encoding: 835606 835606 17
Width: 1000
Flags: MW
HStem: 263.188 32.6309 293.429 55.2881 321.385 25.2588
VStem: 189.466 55.2881 783.904 12.1719 837.017 9.97559
LayerCount: 2
Fore
SplineSet
997.736328125 228.89453125 m 0x1c
 998.930664062 211.138671875 999.549804688 194.72265625 999.549804688 176.665039062 c 0
 999.549804688 141.772460938 997.282226562 107.404296875 992.887695312 73.701171875 c 0
 989.0078125 46.5419921875 983.1875 23.2626953125 936.629882812 -0.986328125 c 0
 890.072265625 -25.2353515625 846.286132812 -42.326171875 840.603515625 -45.6044921875 c 0
 834.921875 -48.8818359375 828.252929688 -50.76171875 821.227539062 -50.76171875 c 0
 812.913085938 -50.76171875 805.20703125 -48.1337890625 798.895507812 -43.6640625 c 0
 781.436523438 -28.1455078125 671.831054688 71.7607421875 671.831054688 71.7607421875 c 1
 668.637695312 71.5595703125 l 2
 612.1171875 68.001953125 559.637695312 66.1953125 502.227539062 66.1953125 c 0
 443.755859375 66.1953125 385.717773438 68.0673828125 328.170898438 71.7568359375 c 1
 328.170898438 71.7568359375 218.565429688 -28.1484375 201.106445312 -43.66796875 c 0
 194.794921875 -48.1376953125 187.01171875 -50.76171875 178.696289062 -50.76171875 c 0
 171.670898438 -50.76171875 165.080078125 -48.8857421875 159.3984375 -45.6083984375 c 2
 159.3984375 -45.6083984375 109.9296875 -25.240234375 63.3720703125 -0.990234375 c 0
 16.814453125 23.259765625 10.994140625 46.5380859375 7.1142578125 73.697265625 c 0
 2.7197265625 107.400390625 0.462890625 140.267578125 0.462890625 175.161132812 c 0
 0.462890625 193.217773438 1.0703125 211.134765625 2.2646484375 228.890625 c 0
 8.083984375 270.599609375 20.6943359375 359.834960938 111.870117188 469.440429688 c 0
 203.045898438 579.045898438 344.66015625 611.0546875 344.66015625 611.0546875 c 1
 352.559570312 610.02734375 l 1
 361.198242188 624.37109375 371.495117188 637.299804688 383.458007812 648.8828125 c 1
 460.111328125 651.805664062 536.739257812 651.846679688 613.341796875 649.004882812 c 2
 616.54296875 648.88671875 l 1
 628.505859375 637.303710938 638.802734375 624.375 647.44140625 610.03125 c 1
 655.340820312 611.057617188 l 1
 655.340820312 611.057617188 796.955078125 579.048828125 888.130859375 469.444335938 c 0
 979.307617188 359.838867188 991.916992188 270.602539062 997.736328125 228.89453125 c 0x1c
337.1015625 240.5546875 m 0
 393.875976562 312.563476562 392.674804688 408.173828125 334.418945312 454.104492188 c 0
 276.163085938 500.03515625 182.912109375 478.89453125 126.137695312 406.885742188 c 0
 69.36328125 334.876953125 70.5654296875 239.266601562 128.821289062 193.3359375 c 0
 187.077148438 147.405273438 280.328125 168.545898438 337.1015625 240.5546875 c 0
521.918945312 270.599609375 m 1
 521.969726562 270.599609375 l 2
 530.668945312 270.599609375 537.731445312 277.662109375 537.731445312 286.361328125 c 0
 537.731445312 295.060546875 530.668945312 302.123046875 521.969726562 302.123046875 c 2
 521.918945312 302.123046875 l 1
 474.875976562 302.123046875 l 2
 466.200195312 302.095703125 459.165039062 295.04296875 459.165039062 286.361328125 c 0
 459.165039062 277.678710938 466.200195312 270.626953125 474.875976562 270.599609375 c 2
 521.918945312 270.599609375 l 1
745.979492188 422.49609375 m 0
 725.047851562 422.495117188 708.053710938 405.500976562 708.053710938 384.569335938 c 0
 708.053710938 363.63671875 725.046875 346.643554688 745.979492188 346.643554688 c 0x3c
 766.911132812 346.643554688 783.905273438 363.637695312 783.905273438 384.569335938 c 0
 783.905273438 405.500976562 766.911132812 422.49609375 745.979492188 422.49609375 c 0
627.40234375 333.745117188 m 0
 627.40234375 312.8125 644.396484375 295.818359375 665.329101562 295.818359375 c 0x9c
 686.260742188 295.818359375 703.254882812 312.8125 703.254882812 333.744140625 c 0
 703.254882812 354.676757812 686.260742188 371.670898438 665.329101562 371.670898438 c 0
 644.396484375 371.670898438 627.40234375 354.676757812 627.40234375 333.745117188 c 0
689.236328125 162.5859375 m 0
 716.998046875 162.5859375 739.537109375 185.125 739.537109375 212.88671875 c 0
 739.537109375 240.6484375 716.998046875 263.1875 689.236328125 263.1875 c 0
 661.474609375 263.1875 638.935546875 240.6484375 638.935546875 212.88671875 c 0
 638.935546875 185.125 661.474609375 162.5859375 689.236328125 162.5859375 c 0
786.717773438 220.784179688 m 0
 814.478515625 220.784179688 837.017578125 243.323242188 837.017578125 271.084960938 c 0
 837.017578125 298.845703125 814.479492188 321.384765625 786.717773438 321.384765625 c 0x3c
 758.956054688 321.384765625 736.41796875 298.845703125 736.41796875 271.083984375 c 0
 736.41796875 243.323242188 758.956054688 220.784179688 786.717773438 220.784179688 c 0
834.00390625 369.1953125 m 0
 854.935546875 369.1953125 871.928710938 386.188476562 871.9296875 407.120117188 c 0
 871.9296875 428.052734375 854.935546875 445.046875 834.00390625 445.046875 c 0
 813.071289062 445.046875 796.077148438 428.052734375 796.077148438 407.12109375 c 0
 796.077148438 386.189453125 813.071289062 369.1953125 834.00390625 369.1953125 c 0
897.29296875 251.337890625 m 0
 925.0546875 251.337890625 947.59375 273.875976562 947.59375 301.637695312 c 0
 947.59375 329.3984375 925.0546875 351.938476562 897.293945312 351.938476562 c 0
 869.532226562 351.938476562 846.993164062 329.399414062 846.993164062 301.637695312 c 0
 846.993164062 273.876953125 869.532226562 251.337890625 897.29296875 251.337890625 c 0
284.764648438 351.626953125 m 0
 300.013671875 351.626953125 312.43359375 339.245117188 312.43359375 323.99609375 c 0
 312.43359375 308.74609375 300.052734375 296.365234375 284.803710938 296.365234375 c 0
 283.248046875 296.365234375 281.72265625 296.494140625 280.23828125 296.741210938 c 0
 273.70703125 279.858398438 260.692382812 266.299804688 244.172851562 259.064453125 c 0
 244.553710938 257.23828125 244.754882812 255.345703125 244.754882812 253.407226562 c 0
 244.754882812 238.150390625 232.368164062 225.762695312 217.110351562 225.762695312 c 0
 201.853515625 225.762695312 189.466796875 238.150390625 189.466796875 253.407226562 c 0
 189.466796875 255.345703125 189.666992188 257.23828125 190.046875 259.064453125 c 0
 174.421875 265.909179688 161.9453125 278.384765625 155.1015625 294.010742188 c 0
 153.275390625 293.629882812 151.3828125 293.428710938 149.444335938 293.428710938 c 0
 134.186523438 293.428710938 121.799804688 305.815429688 121.799804688 321.073242188 c 0
 121.799804688 336.330078125 134.186523438 348.716796875 149.444335938 348.716796875 c 0x5c
 151.3828125 348.716796875 153.275390625 348.516601562 155.1015625 348.13671875 c 0
 161.965820312 363.810546875 174.498046875 376.31640625 190.190429688 383.146484375 c 0
 189.717773438 385.170898438 189.46484375 387.28125 189.46484375 389.44921875 c 0
 189.46484375 404.706054688 201.8515625 417.092773438 217.108398438 417.092773438 c 0
 232.366210938 417.092773438 244.752929688 404.706054688 244.752929688 389.44921875 c 0
 244.752929688 387.28125 244.502929688 385.170898438 244.029296875 383.146484375 c 0
 258.850585938 376.697265625 270.83984375 365.208007812 277.921875 350.73828125 c 0
 280.112304688 351.307617188 282.399414062 351.618164062 284.764648438 351.626953125 c 0
EndSplineSet
Validated: 33
EndChar

StartChar: SNES
Encoding: 835607 835607 18
Width: 1000
Flags: MW
HStem: 82.2949 19.043 82.3574 88.8037 132.453 94.8047 156.814 12.1309 240.144 11.5967 259.662 62.9883 334.531 12.5938 417.325 13.1641 486.104 31.1191
VStem: 0.132812 93.4336<258.065 324.31 258.065 332.667> 126.861 173.646 182.129 62.9268 333.619 35.9102 441.104 39.5557 552.189 44.2461 628.328 12.4229 735.61 12.8252 829.199 12.6396 936.885 12.2812 981.201 18.7988
LayerCount: 2
Fore
SplineSet
296.875 322.650390625 m 2x0feff0
 298.880859375 322.642578125 300.505859375 321.01171875 300.505859375 319.004882812 c 0
 300.505859375 318.999023438 300.506835938 318.994140625 300.506835938 318.98828125 c 2
 300.506835938 263.32421875 l 1x0feff0
 300.323242188 263.32421875 l 1
 300.323242188 263.2890625 l 2
 300.323242188 261.287109375 298.698242188 259.662109375 296.696289062 259.662109375 c 2
 296.69140625 259.662109375 l 1
 248.6875 259.662109375 l 2
 246.678710938 259.635742188 245.056640625 257.997070312 245.056640625 255.982421875 c 0
 245.056640625 255.967773438 245.055664062 255.954101562 245.055664062 255.939453125 c 2
 245.055664062 207.90625 l 2
 245.016601562 205.926757812 243.408203125 204.327148438 241.423828125 204.3046875 c 2
 185.759765625 204.3046875 l 2
 185.748046875 204.303710938 185.735351562 204.303710938 185.72265625 204.303710938 c 0
 183.739257812 204.303710938 182.127929688 205.915039062 182.127929688 207.899414062 c 2
 182.12890625 207.90625 l 1
 182.12890625 256.0625 l 1
 182.12890625 256.07421875 l 2x0fdff0
 182.12890625 258.116210938 180.475585938 259.775390625 178.435546875 259.78515625 c 2
 130.493164062 259.78515625 l 1
 130.48828125 259.78515625 l 2
 128.486328125 259.78515625 126.861328125 261.411132812 126.861328125 263.412109375 c 2
 126.861328125 263.448242188 l 1
 126.861328125 318.98828125 l 2
 126.86328125 320.998046875 128.487304688 322.631835938 130.493164062 322.650390625 c 2
 178.497070312 322.650390625 l 1
 178.543945312 322.650390625 l 2
 180.541015625 322.650390625 182.165039062 324.260742188 182.190429688 326.251953125 c 2
 182.190429688 374.286132812 l 1
 182.190429688 374.29296875 l 2
 182.190429688 376.27734375 183.80078125 377.887695312 185.78515625 377.887695312 c 2
 185.821289062 377.887695312 l 1
 241.577148438 377.887695312 l 2
 243.547851562 377.8515625 245.142578125 376.2578125 245.178710938 374.286132812 c 2
 245.178710938 326.251953125 l 2
 245.185546875 324.263671875 246.801757812 322.651367188 248.791992188 322.651367188 c 0
 248.798828125 322.651367188 248.803710938 322.650390625 248.809570312 322.650390625 c 2
 296.875 322.650390625 l 2x0feff0
1000 293.231445312 m 0
 999.97265625 176.80859375 905.443359375 82.294921875 789.013671875 82.294921875 c 0
 752.6484375 82.294921875 718.198242188 91.6455078125 688.318359375 107.874023438 c 0
 681.624023438 111.53515625 665.999023438 119.465820312 659.787109375 123.0625 c 0
 647.607421875 129.049804688 633.909179688 132.413085938 619.432617188 132.413085938 c 0
 617.826171875 132.413085938 616.209960938 132.42578125 614.624023438 132.34375 c 2
 385.7421875 132.34375 l 2
 384.25 132.416015625 382.749023438 132.453125 381.239257812 132.453125 c 0xafcff0
 366.130859375 132.453125 351.842773438 128.7421875 339.263671875 122.26953125 c 0
 331.489257812 117.65625 318.737304688 111.212890625 307.1875 105.654296875 c 0
 302.850585938 103.419921875 298.427734375 101.33984375 293.918945312 99.4130859375 c 0
 292.696289062 98.8525390625 291.439453125 98.2744140625 290.357421875 97.7880859375 c 2
 290.265625 97.7880859375 l 1
 265.7890625 87.83984375 239.028320312 82.357421875 210.997070312 82.357421875 c 0x4fcff0
 94.6181640625 82.357421875 0.1328125 176.842773438 0.1328125 293.221679688 c 0
 0.1328125 372.11328125 43.1962890625 440.720703125 107.419921875 476.877929688 c 1
 107.15625 476.732421875 106.951171875 476.653320312 106.680664062 476.499023438 c 1
 106.025390625 478.221679688 105.666015625 480.08984375 105.666015625 482.040039062 c 0
 105.666015625 488.262695312 109.298828125 493.637695312 114.57421875 496.139648438 c 0
 139.013671875 508.174804688 166.51171875 515.66796875 195.19140625 517.209960938 c 0
 225.041992188 518.327148438 314.677734375 517.209960938 314.677734375 517.209960938 c 2
 314.8515625 517.220703125 315.02734375 517.2265625 315.204101562 517.2265625 c 0
 319.712890625 517.2265625 323.372070312 513.590820312 323.42578125 509.094726562 c 2
 323.42578125 504.170898438 l 1
 323.424804688 504.169921875 l 1
 676.576171875 504.169921875 l 1
 676.57421875 504.170898438 l 1
 676.57421875 509.09375 l 2
 676.627929688 513.58984375 680.294921875 517.22265625 684.802734375 517.22265625 c 0
 684.979492188 517.22265625 685.1484375 517.219726562 685.322265625 517.208984375 c 0
 685.49609375 517.197265625 774.958007812 518.326171875 804.80859375 517.208984375 c 0
 833.48828125 515.666992188 860.986328125 508.173828125 885.42578125 496.138671875 c 0
 890.701171875 493.637695312 894.353515625 488.260742188 894.353515625 482.038085938 c 0
 894.353515625 480.086914062 893.974609375 478.220703125 893.319335938 476.498046875 c 1
 893.123046875 476.610351562 892.911132812 476.68359375 892.71484375 476.793945312 c 1
 956.860351562 440.671875 1000 372.032226562 1000 293.231445312 c 0
333.618164062 291.15625 m 2
 333.618164062 357.400390625 279.836914062 411.212890625 213.592773438 411.212890625 c 0
 147.348632812 411.212890625 93.56640625 357.431640625 93.56640625 291.1875 c 0
 93.56640625 224.943359375 147.348632812 171.162109375 213.592773438 171.162109375 c 2
 213.623046875 171.161132812 l 1
 213.659179688 171.161132812 l 2x4fcff0
 279.8671875 171.161132812 333.619140625 224.913085938 333.619140625 291.120117188 c 2
 333.618164062 291.15625 l 2
437.866210938 285.418945312 m 0
 435.12890625 288.87890625 430.892578125 291.100585938 426.142578125 291.100585938 c 0
 422.642578125 291.100585938 419.41796875 289.87890625 416.870117188 287.860351562 c 2
 375.244140625 253.864257812 l 2
 371.766601562 251.138671875 369.529296875 246.899414062 369.529296875 242.142578125 c 0
 369.529296875 233.926757812 376.19921875 227.2578125 384.4140625 227.2578125 c 0x2fcff0
 387.904296875 227.2578125 391.137695312 228.47265625 393.676757812 230.487304688 c 2
 435.424804688 264.484375 l 2
 438.8828125 267.208984375 441.104492188 271.43359375 441.104492188 276.173828125 c 0
 441.104492188 279.6640625 439.8828125 282.880859375 437.866210938 285.418945312 c 0
548.950195312 285.418945312 m 0
 546.240234375 288.875976562 542.025390625 291.099609375 537.296875 291.099609375 c 0
 533.813476562 291.099609375 530.60546875 289.876953125 528.076171875 287.860351562 c 2
 486.328125 253.864257812 l 2
 482.876953125 251.133789062 480.66015625 246.908203125 480.66015625 242.169921875 c 0
 480.66015625 233.944335938 487.338867188 227.266601562 495.564453125 227.266601562 c 0
 499.05078125 227.266601562 502.282226562 228.478515625 504.821289062 230.487304688 c 2
 546.508789062 264.484375 l 2
 549.967773438 267.208984375 552.189453125 271.43359375 552.189453125 276.172851562 c 0
 552.189453125 279.6640625 550.966796875 282.880859375 548.950195312 285.418945312 c 0
981.201171875 293.720703125 m 0
 981.201171875 399.899414062 894.997070312 486.103515625 788.818359375 486.103515625 c 0
 682.639648438 486.103515625 596.435546875 399.899414062 596.435546875 293.720703125 c 0
 596.435546875 187.541992188 682.639648438 101.337890625 788.818359375 101.337890625 c 0x8fcff0
 894.997070312 101.337890625 981.201171875 187.541992188 981.201171875 293.720703125 c 0
821.758789062 336.15625 m 2
 713.942382812 251.46875 l 2
 704.938476562 244.376953125 693.580078125 240.143554688 681.240234375 240.143554688 c 0
 652.037109375 240.143554688 628.328125 263.852539062 628.328125 293.055664062 c 0
 628.328125 309.918945312 636.155273438 324.907226562 648.458984375 334.599609375 c 2
 756.283203125 419.151367188 l 2
 765.282226562 426.250976562 776.641601562 430.489257812 788.982421875 430.489257812 c 0
 818.154296875 430.489257812 841.838867188 406.8046875 841.838867188 377.6328125 c 0
 841.838867188 360.801757812 834.032226562 345.838867188 821.758789062 336.15625 c 2
722.731445312 292.728515625 m 2
 722.731445312 315.352539062 704.364257812 333.71875 681.741210938 333.71875 c 0
 659.118164062 333.71875 640.750976562 315.352539062 640.750976562 292.728515625 c 0
 640.750976562 270.10546875 659.118164062 251.740234375 681.740234375 251.740234375 c 2
 681.770507812 251.740234375 l 2
 704.377929688 251.740234375 722.732421875 270.09375 722.732421875 292.702148438 c 2
 722.731445312 292.728515625 l 2
829.19921875 376.333984375 m 2
 829.19921875 398.95703125 810.831054688 417.325195312 788.20703125 417.325195312 c 0
 765.583984375 417.325195312 747.215820312 398.95703125 747.215820312 376.333984375 c 0
 747.215820312 353.709960938 765.583984375 335.341796875 788.208007812 335.341796875 c 2
 788.237304688 335.341796875 l 2
 810.844726562 335.341796875 829.19921875 353.696289062 829.19921875 376.3046875 c 2
 829.19921875 376.333007812 l 1
 829.19921875 376.333984375 l 2
929.174804688 252.821289062 m 2
 821.350585938 168.26953125 l 2
 812.325195312 161.099609375 800.90625 156.814453125 788.494140625 156.814453125 c 0x1fcff0
 759.306640625 156.814453125 735.610351562 180.510742188 735.610351562 209.697265625 c 0
 735.610351562 226.6171875 743.495117188 241.649414062 755.875 251.33203125 c 2
 863.69921875 335.883789062 l 2
 872.681640625 342.924804688 883.99609375 347.125 896.283203125 347.125 c 0
 925.470703125 347.125 949.166015625 323.428710938 949.166015625 294.241210938 c 0
 949.166015625 277.446289062 941.3984375 262.51171875 929.174804688 252.821289062 c 2
830.416992188 209.936523438 m 2
 830.416015625 232.559570312 812.048828125 250.926757812 789.42578125 250.926757812 c 0
 766.802734375 250.926757812 748.435546875 232.559570312 748.435546875 209.936523438 c 0
 748.435546875 187.313476562 766.803710938 168.9453125 789.426757812 168.9453125 c 0
 812.03515625 168.978515625 830.384765625 187.328125 830.416992188 209.935546875 c 2
 830.416992188 209.936523438 l 2
936.883789062 293.608398438 m 2
 936.846679688 316.200195312 918.494140625 334.53125 895.892578125 334.53125 c 0
 873.26953125 334.53125 854.90234375 316.1640625 854.90234375 293.540039062 c 0
 854.90234375 270.916992188 873.26953125 252.551757812 895.891601562 252.55078125 c 2
 895.922851562 252.55078125 l 2
 918.530273438 252.55078125 936.884765625 270.905273438 936.884765625 293.51171875 c 0
 936.884765625 293.544921875 936.883789062 293.575195312 936.883789062 293.607421875 c 2
 936.883789062 293.608398438 l 2
EndSplineSet
Validated: 33
EndChar

StartChar: Stadia
Encoding: 835608 835608 19
Width: 1000
Flags: MW
HStem: -28.5264 378.232 192.341 56.2842 192.341 80.5703 412.652 72.3857 466.647 148.686 475.267 139.952 536.236 79.0967
VStem: 394.235 72.4385 533.395 70.4482 594.121 96.2197 753.285 73.0176
LayerCount: 2
Fore
SplineSet
998.5546875 114.91796875 m 0x0520
 1012.05371094 -6.41796875 927.305664062 -25.12109375 897.409179688 -28.09375 c 0
 894.376953125 -28.3701171875 891.430664062 -28.5263671875 888.326171875 -28.5263671875 c 0x8520
 844.141601562 -28.5263671875 806.599609375 0.146484375 793.309570312 39.8837890625 c 0
 783.90625 64.3583984375 755.901367188 146.391601562 747.71875 158.665039062 c 0
 724.956054688 192.809570312 709.916015625 189.0390625 670.296875 192.340820312 c 2
 329.771484375 192.340820312 l 2
 290.153320312 189.0390625 275.112304688 192.80859375 252.349609375 158.665039062 c 0
 244.166992188 146.391601562 216.163085938 64.3583984375 206.760742188 39.8837890625 c 0
 197.125976562 14.2470703125 178.608398438 -6.8603515625 154.78515625 -19.7861328125 c 0
 95.6220703125 -45.5322265625 -14.130859375 -17.548828125 1.5087890625 114.919921875 c 0
 28.8232421875 311.333007812 48.0068359375 478.950195312 135.12890625 569.073242188 c 1
 137.630859375 584.794921875 148.020507812 597.9140625 162.140625 604.159179688 c 0
 179.647460938 612.87109375 198.740234375 619.673828125 218.319335938 623.987304688 c 1
 218.319335938 623.987304688 284.39453125 639.822265625 288.918945312 615.21875 c 0x4520
 291.831054688 615.288085938 294.745117188 615.333007812 297.659179688 615.333007812 c 2
 702.41015625 615.333007812 l 2x0320
 705.32421875 615.333007812 708.237304688 615.288085938 711.149414062 615.21875 c 0
 715.674804688 639.822265625 762.169921875 628.299804688 781.749023438 623.987304688 c 0
 801.329101562 619.673828125 820.420898438 612.87109375 837.927734375 604.159179688 c 0
 852.048828125 597.9140625 862.4375 584.794921875 864.940429688 569.073242188 c 1
 951.939453125 479.272460938 971.372070312 310.82421875 998.5546875 114.91796875 c 0x0520
241.0625 423.021484375 m 2
 266.091796875 423.021484375 l 2
 280.508789062 423.021484375 292.213867188 434.7265625 292.213867188 449.14453125 c 0
 292.213867188 463.561523438 280.508789062 475.266601562 266.091796875 475.266601562 c 2
 241.061523438 475.266601562 l 2
 238.547851562 475.266601562 236.506835938 477.307617188 236.506835938 479.821289062 c 2
 236.506835938 504.850585938 l 2
 236.506835938 519.268554688 224.801757812 530.973632812 210.384765625 530.973632812 c 0
 195.967773438 530.973632812 184.26171875 519.268554688 184.26171875 504.850585938 c 2
 184.26171875 479.821289062 l 2
 184.26171875 477.307617188 182.221679688 475.266601562 179.708007812 475.266601562 c 2
 154.677734375 475.266601562 l 2
 140.260742188 475.266601562 128.555664062 463.561523438 128.555664062 449.14453125 c 0
 128.555664062 434.7265625 140.260742188 423.021484375 154.677734375 423.021484375 c 2
 179.708007812 423.021484375 l 2
 182.221679688 423.021484375 184.262695312 420.98046875 184.262695312 418.466796875 c 2
 184.262695312 393.4375 l 2
 184.262695312 379.020507812 195.967773438 367.315429688 210.385742188 367.315429688 c 0
 224.802734375 367.315429688 236.5078125 379.020507812 236.5078125 393.4375 c 2
 236.5078125 418.466796875 l 2
 236.5078125 420.98046875 238.548828125 423.021484375 241.0625 423.021484375 c 2
337.584960938 248.625 m 0x4120
 368.8515625 248.625976562 394.235351562 274.009765625 394.235351562 305.275390625 c 0
 394.235351562 336.541992188 368.8515625 361.926757812 337.584960938 361.926757812 c 0
 306.319335938 361.926757812 280.934570312 336.541992188 280.934570312 305.275390625 c 0
 280.934570312 274.009765625 306.319335938 248.625 337.584960938 248.625 c 0x4120
392.552734375 505.865234375 m 2
 400.890625 505.865234375 407.66015625 512.633789062 407.66015625 520.971679688 c 0
 407.66015625 529.309570312 400.890625 536.078125 392.552734375 536.078125 c 2
 369.263671875 536.078125 l 2
 360.92578125 536.078125 354.157226562 529.309570312 354.157226562 520.971679688 c 0
 354.157226562 512.633789062 360.92578125 505.865234375 369.263671875 505.865234375 c 2
 392.552734375 505.865234375 l 2
424.946289062 427.84765625 m 0
 435.653320312 427.84765625 444.345703125 436.540039062 444.345703125 447.247070312 c 0
 444.345703125 457.954101562 435.653320312 466.647460938 424.946289062 466.647460938 c 0x0920
 414.239257812 466.647460938 405.546875 457.955078125 405.546875 447.247070312 c 0
 405.546875 436.540039062 414.239257812 427.84765625 424.946289062 427.84765625 c 0
500.034179688 272.911132812 m 0x21a0
 518.446289062 272.911132812 533.39453125 287.860351562 533.39453125 306.271484375 c 0
 533.39453125 324.68359375 518.446289062 339.631835938 500.034179688 339.631835938 c 0
 481.622070312 339.631835938 466.673828125 324.68359375 466.673828125 306.271484375 c 0
 466.673828125 287.859375 481.622070312 272.911132812 500.034179688 272.911132812 c 0x21a0
574.721679688 427.84765625 m 0
 585.428710938 427.84765625 594.12109375 436.540039062 594.12109375 447.247070312 c 0
 594.12109375 457.954101562 585.428710938 466.647460938 574.721679688 466.647460938 c 0x0960
 564.014648438 466.647460938 555.322265625 457.955078125 555.322265625 447.247070312 c 0
 555.322265625 436.540039062 564.014648438 427.84765625 574.721679688 427.84765625 c 0
592.08984375 521.12890625 m 0
 592.08984375 512.791992188 598.858398438 506.022460938 607.1953125 506.022460938 c 2
 630.486328125 506.022460938 l 2
 638.823242188 506.022460938 645.592773438 512.791992188 645.592773438 521.12890625 c 0
 645.592773438 529.466796875 638.823242188 536.236328125 630.486328125 536.236328125 c 2
 607.1953125 536.236328125 l 2x0320
 598.858398438 536.235351562 592.08984375 529.465820312 592.08984375 521.12890625 c 0
660.493164062 248.625 m 0x41a0
 691.759765625 248.625976562 717.143554688 274.009765625 717.143554688 305.275390625 c 0
 717.143554688 336.541992188 691.759765625 361.926757812 660.493164062 361.926757812 c 0
 629.227539062 361.926757812 603.842773438 336.541992188 603.842773438 305.275390625 c 0
 603.842773438 274.009765625 629.227539062 248.625 660.493164062 248.625 c 0x41a0
721.813476562 417.671875 m 0
 739.18359375 417.671875 753.28515625 431.774414062 753.28515625 449.14453125 c 0
 753.28515625 466.514648438 739.18359375 480.616210938 721.813476562 480.616210938 c 0
 704.443359375 480.616210938 690.340820312 466.514648438 690.340820312 449.14453125 c 0x0160
 690.340820312 431.774414062 704.443359375 417.671875 721.813476562 417.671875 c 0
790.741210938 349.706054688 m 0x9120
 808.111328125 349.706054688 822.212890625 363.809570312 822.212890625 381.1796875 c 0
 822.212890625 398.549804688 808.111328125 412.65234375 790.741210938 412.65234375 c 0
 773.37109375 412.65234375 759.268554688 398.549804688 759.268554688 381.1796875 c 0
 759.268554688 363.80859375 773.37109375 349.706054688 790.741210938 349.706054688 c 0x9120
790.741210938 485.038085938 m 0
 808.111328125 485.038085938 822.212890625 499.140625 822.212890625 516.510742188 c 0
 822.212890625 533.880859375 808.111328125 547.984375 790.741210938 547.984375 c 0
 773.37109375 547.984375 759.268554688 533.881835938 759.268554688 516.51171875 c 0
 759.268554688 499.140625 773.37109375 485.038085938 790.741210938 485.038085938 c 0
857.774414062 417.671875 m 0
 875.14453125 417.671875 889.247070312 431.774414062 889.247070312 449.14453125 c 0
 889.247070312 466.514648438 875.14453125 480.616210938 857.774414062 480.616210938 c 0
 840.404296875 480.616210938 826.302734375 466.514648438 826.302734375 449.14453125 c 0
 826.302734375 431.774414062 840.404296875 417.671875 857.774414062 417.671875 c 0
EndSplineSet
Validated: 33
EndChar

